#VRML V2.0 utf8
# 3D model generated by easyeda2kicad.py (https://github.com/uPesy/easyeda2kicad.py)

Shape{
    appearance Appearance {
        material  Material 	{
            diffuseColor 0.11372549019607843 0.11372549019607843 0.11372549019607843
            specularColor 0.058823529411764705 0.058823529411764705 0.058823529411764705
            ambientIntensity 0.2
            transparency 0
            shininess 0.5
        }
    }
    geometry IndexedFaceSet {
        ccw TRUE
        solid FALSE
        coord DEF co Coordinate {
            point [
                -0.0099 -0.3858 0.0079, -0.0984 -0.3858 0.0079, -0.0984 0.0159 0.0079, -0.0071 0.0446 0.0079, 0.0078 0.0446 0.0079, 0.0078 0.0349 0.0079, -0.0071 0.0349 0.0079, -0.0071 0.0316 0.0079, -0.0099 0.0159 0.0079, -0.0071 0.0478 0.0079, -0.0099 0.3858 0.0079, 0.0106 0.0478 0.0079, 0.0514 0.0195 0.0079, 0.0478 0.0322 0.0079, 0.0984 0.0159 0.0079, 0.0664 0.0163 0.0079, 0.0664 0.0478 0.0079, 0.0458 0.0403 0.0079, 0.0404 0.0459 0.0079, 0.0322 0.0485 0.0079, 0.0635 0.0195 0.0079, 0.0635 0.0478 0.0079, 0.0984 0.3858 0.0079, 0.0309 0.0486 0.0079, 0.0232 0.047 0.0079, 0.0199 0.045 0.0079, 0.0106 0.0163 0.0079, 0.0171 0.042 0.0079, 0.0181 0.0432 0.0079, 0.0078 0.0316 0.0079, 0.0078 0.0195 0.0079, -0.0071 0.0195 0.0079, -0.0071 0.0163 0.0079, 0.0331 0.0159 0.0079, 0.0514 0.0163 0.0079, 0.0379 0.0168 0.0079, 0.041 0.0184 0.0079, 0.038 0.0436 0.0079, 0.0429 0.0392 0.0079, 0.031 0.0454 0.0079, 0.0449 0.0333 0.0079, 0.045 0.032 0.0079, 0.0433 0.0255 0.0079, 0.039 0.021 0.0079, 0.0328 0.0188 0.0079, 0.0232 0.0171 0.0079, 0.0267 0.0159 0.0079, 0.0268 0.0159 0.0079, 0.0428 0.0199 0.0079, 0.0438 0.021 0.0079, 0.0468 0.0262 0.0079, 0.0171 0.0221 0.0079, 0.0196 0.024 0.0079, 0.0196 0.0401 0.0079, 0.0246 0.02 0.0079, 0.0247 0.0441 0.0079, 0.0308 0.0187 0.0079, 0.0277 0.045 0.0079, 0.0297 0.0453 0.0079, 0.0984 -0.3858 0.0079, 0.0308 0.0155 0.0079, 0.0292 0.0155 0.0079, -0.0695 0.0163 0.0079, -0.0427 0.0163 0.0079, -0.0323 0.0185 0.0079, -0.0259 0.0165 0.0079, -0.0291 0.0466 0.0079, -0.0348 0.0428 0.0079, -0.0576 0.0478 0.0079, -0.0225 0.0163 0.0079, -0.0457 0.0163 0.0079, -0.0505 0.0264 0.0079, -0.0648 0.0264 0.0079, -0.0242 0.0476 0.0079, -0.0984 0.3858 0.0079, -0.058 0.0478 0.0079, -0.0725 0.0163 0.0079, -0.038 0.0366 0.0079, -0.0386 0.0316 0.0079, -0.0368 0.0237 0.0079, -0.0128 0.0163 0.0079, -0.0128 0.0478 0.0079, -0.0191 0.0478 0.0079, -0.0191 0.0478 0.0079
            ]
        }
        coordIndex [
            0,1,2,-1,3,4,5,-1,6,7,8,-1,5,6,3,-1,3,6,8,-1,3,8,9,-1,9,8,10,-1,9,10,11,-1,10,12,13,-1,14,15,16,-1,13,17,10,-1,10,17,18,-1,10,18,19,-1,20,12,21,-1,21,12,10,-1,21,10,16,-1,16,10,22,-1,16,22,14,-1,19,23,10,-1,10,23,24,-1,10,24,25,-1,26,11,27,-1,27,11,10,-1,27,10,28,-1,28,10,25,-1,29,30,7,-1,7,30,31,-1,7,31,8,-1,8,31,32,-1,8,32,26,-1,15,33,34,-1,34,33,35,-1,34,35,36,-1,37,38,39,-1,39,38,40,-1,39,40,41,-1,41,42,39,-1,39,42,43,-1,39,43,44,-1,45,46,26,-1,26,46,47,-1,26,47,8,-1,36,48,34,-1,34,48,49,-1,34,49,12,-1,12,49,50,-1,12,50,13,-1,45,26,51,-1,51,26,27,-1,51,27,52,-1,52,27,53,-1,52,53,54,-1,54,53,55,-1,54,55,56,-1,56,55,57,-1,56,57,44,-1,44,57,58,-1,44,58,39,-1,15,14,33,-1,33,14,59,-1,33,59,60,-1,60,59,61,-1,61,59,0,-1,61,0,47,-1,47,0,8,-1,8,0,2,-1,8,2,62,-1,63,64,65,-1,66,67,68,-1,65,69,63,-1,63,69,8,-1,63,8,70,-1,70,8,62,-1,70,62,71,-1,71,62,72,-1,73,66,10,-1,10,66,68,-1,10,68,74,-1,74,68,75,-1,74,75,2,-1,2,75,76,-1,2,76,62,-1,67,77,68,-1,68,77,78,-1,68,78,63,-1,63,78,79,-1,63,79,64,-1,69,80,8,-1,8,80,81,-1,8,81,10,-1,10,81,82,-1,10,82,73,-1,
        ]
    }
}
Shape{
    appearance Appearance {
        material  Material 	{
            diffuseColor 0.7529411764705882 0.7529411764705882 0.7529411764705882
            specularColor 0.3764705882352941 0.3764705882352941 0.3764705882352941
            ambientIntensity 0.2
            transparency 0
            shininess 0.5
        }
    }
    geometry IndexedFaceSet {
        ccw TRUE
        solid FALSE
        coord DEF co Coordinate {
            point [
                0.1503 0.3858 0.2087, -0.1503 0.3858 0.2087, 0.1503 -0.3858 0.2087, -0.1503 -0.3858 0.2087, 0.1503 -0.3937 0.2165, 0.1503 -0.3937 0.2087, 0.2283 -0.3937 0.2165, 0.2283 -0.3937 0.2087, 0.2323 -0.3937 0.2155, 0.2323 -0.3937 0.0011, 0.2283 -0.3937 0.0079, 0.2283 -0.3937 0.0, 0.0984 -0.3937 0.0079, 0.0984 -0.3937 0.0, 0.2352 -0.3937 0.2126, 0.2362 -0.3937 0.2087, 0.2362 -0.3937 0.0079, 0.2352 -0.3937 0.0039, -0.0984 -0.3937 0.0, -0.0984 -0.3937 0.0079, -0.2283 -0.3937 0.0, -0.2283 -0.3937 0.0079, -0.2323 -0.3937 0.0011, -0.2323 -0.3937 0.2155, -0.2283 -0.3937 0.2087, -0.2283 -0.3937 0.2165, -0.1503 -0.3937 0.2087, -0.1503 -0.3937 0.2165, -0.2352 -0.3937 0.0039, -0.2362 -0.3937 0.0079, -0.2362 -0.3937 0.2087, -0.2352 -0.3937 0.2126, -0.1503 0.3937 0.2165, -0.1503 0.3937 0.2087, -0.2283 0.3937 0.2165, -0.2283 0.3937 0.2087, -0.2323 0.3937 0.2155, -0.2323 0.3937 0.0011, -0.2283 0.3937 0.0079, -0.2283 0.3937 0.0, -0.0984 0.3937 0.0079, -0.0984 0.3937 0.0, -0.2352 0.3937 0.2126, -0.2362 0.3937 0.2087, -0.2362 0.3937 0.0079, -0.2352 0.3937 0.0039, 0.0984 0.3937 0.0, 0.0984 0.3937 0.0079, 0.2283 0.3937 0.0, 0.2283 0.3937 0.0079, 0.2323 0.3937 0.0011, 0.2323 0.3937 0.2155, 0.2283 0.3937 0.2087, 0.2283 0.3937 0.2165, 0.1503 0.3937 0.2087, 0.1503 0.3937 0.2165, 0.2352 0.3937 0.0039, 0.2362 0.3937 0.0079, 0.2362 0.3937 0.2087, 0.2352 0.3937 0.2126, 0.0984 -0.3858 0.0079, 0.0984 0.0159 0.0079, 0.0984 0.3858 0.0079, -0.0984 0.3858 0.0079, -0.0984 0.0159 0.0079, -0.0984 -0.3858 0.0079, -0.2283 -0.3858 0.0079, -0.2283 -0.3858 0.2087, 0.2283 -0.3858 0.2087, 0.2283 -0.3858 0.0079, -0.0099 -0.3858 0.0079, 0.2283 0.3858 0.0079, 0.2283 0.3858 0.2087, -0.2283 0.3858 0.2087, -0.2283 0.3858 0.0079, -0.0099 0.3858 0.0079, -0.0576 0.0478 0.0157, -0.058 0.0478 0.0157, -0.0576 0.0478 0.0079, -0.058 0.0478 0.0079, -0.0725 0.0163 0.0157, -0.0725 0.0163 0.0079, -0.0695 0.0163 0.0157, -0.0695 0.0163 0.0079, -0.0648 0.0264 0.0157, -0.0648 0.0264 0.0079, -0.0505 0.0264 0.0157, -0.0505 0.0264 0.0079, -0.0457 0.0163 0.0157, -0.0457 0.0163 0.0079, -0.0427 0.0163 0.0157, -0.0427 0.0163 0.0079, -0.0633 0.0296 0.0157, -0.0521 0.0296 0.0157, -0.0578 0.0416 0.0157, -0.0633 0.0296 0.0079, -0.0578 0.0416 0.0079, -0.0521 0.0296 0.0079, -0.0225 0.0163 0.0157, -0.0128 0.0163 0.0157, -0.0225 0.0163 0.0079, -0.0128 0.0163 0.0079, -0.0128 0.0478 0.0157, -0.0128 0.0478 0.0079, -0.0191 0.0478 0.0157, -0.0191 0.0478 0.0079, -0.0291 0.0466 0.0157, -0.0291 0.0466 0.0079, -0.0242 0.0476 0.0079, -0.0242 0.0476 0.0157, -0.0386 0.0316 0.0157, -0.0386 0.0316 0.0079, -0.038 0.0366 0.0079, -0.038 0.0366 0.0157, -0.0348 0.0428 0.0079, -0.0348 0.0428 0.0157, -0.0259 0.0165 0.0079, -0.0259 0.0165 0.0157, -0.0323 0.0185 0.0079, -0.0323 0.0185 0.0157, -0.0368 0.0237 0.0079, -0.0368 0.0237 0.0157, -0.0353 0.0277 0.0157, -0.0327 0.0231 0.0157, -0.0282 0.0203 0.0157, -0.0237 0.0196 0.0157, -0.0192 0.0195 0.0157, -0.0156 0.0195 0.0157, -0.0156 0.0446 0.0157, -0.0178 0.0446 0.0157, -0.0227 0.0444 0.0157, -0.0275 0.0437 0.0157, -0.031 0.042 0.0157, -0.0344 0.0379 0.0157, -0.0358 0.0316 0.0157, -0.0156 0.0446 0.0079, -0.0156 0.0195 0.0079, -0.0178 0.0446 0.0079, -0.0227 0.0444 0.0079, -0.0275 0.0437 0.0079, -0.031 0.042 0.0079, -0.0344 0.0379 0.0079, -0.0358 0.0316 0.0079, -0.0353 0.0277 0.0079, -0.0327 0.0231 0.0079, -0.0282 0.0203 0.0079, -0.0237 0.0196 0.0079, -0.0192 0.0195 0.0079, 0.0106 0.0163 0.0157, 0.0106 0.0478 0.0157, 0.0106 0.0163 0.0079, 0.0106 0.0478 0.0079, -0.0071 0.0478 0.0157, -0.0071 0.0478 0.0079, -0.0071 0.0446 0.0157, -0.0071 0.0446 0.0079, 0.0078 0.0446 0.0157, 0.0078 0.0446 0.0079, 0.0078 0.0349 0.0157, 0.0078 0.0349 0.0079, -0.0071 0.0349 0.0157, -0.0071 0.0349 0.0079, -0.0071 0.0316 0.0157, -0.0071 0.0316 0.0079, 0.0078 0.0316 0.0157, 0.0078 0.0316 0.0079, 0.0078 0.0195 0.0157, 0.0078 0.0195 0.0079, -0.0071 0.0195 0.0157, -0.0071 0.0195 0.0079, -0.0071 0.0163 0.0157, -0.0071 0.0163 0.0079, 0.0171 0.042 0.0157, 0.0171 0.042 0.0079, 0.0181 0.0432 0.0079, 0.0181 0.0432 0.0157, 0.0199 0.045 0.0079, 0.0199 0.045 0.0157, 0.0232 0.047 0.0079, 0.0232 0.047 0.0157, 0.0309 0.0486 0.0079, 0.0309 0.0486 0.0157, 0.0196 0.0401 0.0157, 0.0196 0.0401 0.0079, 0.031 0.0454 0.0157, 0.031 0.0454 0.0079, 0.0297 0.0453 0.0079, 0.0297 0.0453 0.0157, 0.0277 0.045 0.0079, 0.0277 0.045 0.0157, 0.0247 0.0441 0.0079, 0.0247 0.0441 0.0157, 0.045 0.032 0.0157, 0.045 0.032 0.0079, 0.0449 0.0333 0.0079, 0.0449 0.0333 0.0157, 0.0429 0.0392 0.0079, 0.0429 0.0392 0.0157, 0.038 0.0436 0.0079, 0.038 0.0436 0.0157, 0.0308 0.0187 0.0157, 0.0308 0.0187 0.0079, 0.0328 0.0188 0.0079, 0.0328 0.0188 0.0157, 0.039 0.021 0.0079, 0.039 0.021 0.0157, 0.0433 0.0255 0.0079, 0.0433 0.0255 0.0157, 0.0196 0.024 0.0157, 0.0196 0.024 0.0079, 0.0246 0.02 0.0079, 0.0246 0.02 0.0157, 0.0171 0.0221 0.0157, 0.0171 0.0221 0.0079, 0.0308 0.0155 0.0157, 0.0308 0.0155 0.0079, 0.0292 0.0155 0.0079, 0.0292 0.0155 0.0157, 0.0268 0.0159 0.0079, 0.0267 0.0159 0.0157, 0.0267 0.0159 0.0079, 0.0232 0.0171 0.0079, 0.0232 0.0171 0.0157, 0.0331 0.0159 0.0079, 0.0379 0.0168 0.0157, 0.0379 0.0168 0.0079, 0.041 0.0184 0.0157, 0.041 0.0184 0.0079, 0.0428 0.0199 0.0157, 0.0428 0.0199 0.0079, 0.0438 0.021 0.0157, 0.0438 0.021 0.0079, 0.0478 0.0322 0.0157, 0.0478 0.0322 0.0079, 0.0468 0.0262 0.0079, 0.0468 0.0262 0.0157, 0.0322 0.0485 0.0079, 0.0322 0.0485 0.0157, 0.0404 0.0459 0.0079, 0.0404 0.0459 0.0157, 0.0458 0.0403 0.0079, 0.0458 0.0403 0.0157, 0.0664 0.0163 0.0157, 0.0664 0.0478 0.0157, 0.0664 0.0163 0.0079, 0.0664 0.0478 0.0079, 0.0635 0.0478 0.0157, 0.0635 0.0478 0.0079, 0.0635 0.0195 0.0157, 0.0635 0.0195 0.0079, 0.0514 0.0195 0.0157, 0.0514 0.0195 0.0079, 0.0514 0.0163 0.0157, 0.0514 0.0163 0.0079, 0.0514 0.0163 0.0079
            ]
        }
        coordIndex [
            0,1,2,-1,2,1,3,-1,4,5,6,-1,6,5,7,-1,6,7,8,-1,9,10,11,-1,11,10,12,-1,11,12,13,-1,14,8,15,-1,15,8,7,-1,15,7,16,-1,16,7,10,-1,16,10,17,-1,17,10,9,-1,18,19,20,-1,20,19,21,-1,20,21,22,-1,23,24,25,-1,25,24,26,-1,25,26,27,-1,28,22,29,-1,29,22,21,-1,29,21,30,-1,30,21,24,-1,30,24,31,-1,31,24,23,-1,32,33,34,-1,34,33,35,-1,34,35,36,-1,37,38,39,-1,39,38,40,-1,39,40,41,-1,42,36,43,-1,43,36,35,-1,43,35,44,-1,44,35,38,-1,44,38,45,-1,45,38,37,-1,46,47,48,-1,48,47,49,-1,48,49,50,-1,51,52,53,-1,53,52,54,-1,53,54,55,-1,56,50,57,-1,57,50,49,-1,57,49,58,-1,58,49,52,-1,58,52,59,-1,59,52,51,-1,34,25,32,-1,32,25,27,-1,11,13,48,-1,48,13,46,-1,57,58,16,-1,16,58,15,-1,43,44,30,-1,30,44,29,-1,6,53,4,-1,4,53,55,-1,39,41,20,-1,20,41,18,-1,12,60,13,-1,13,60,61,-1,13,61,46,-1,46,61,62,-1,46,62,47,-1,40,63,41,-1,41,63,64,-1,41,64,18,-1,18,64,65,-1,18,65,19,-1,65,66,19,-1,19,66,21,-1,66,67,21,-1,21,67,24,-1,26,24,3,-1,3,24,67,-1,2,68,5,-1,5,68,7,-1,68,69,7,-1,7,69,10,-1,69,60,10,-1,10,60,12,-1,3,67,66,-1,69,68,60,-1,60,68,2,-1,60,2,70,-1,70,2,3,-1,70,3,65,-1,65,3,66,-1,62,71,47,-1,47,71,49,-1,71,72,49,-1,49,72,52,-1,52,72,54,-1,54,72,0,-1,73,35,1,-1,1,35,33,-1,73,74,35,-1,35,74,38,-1,74,63,38,-1,38,63,40,-1,72,71,0,-1,0,71,62,-1,0,62,1,-1,74,73,63,-1,63,73,1,-1,63,1,75,-1,75,1,62,-1,76,77,78,-1,78,77,79,-1,77,80,79,-1,79,80,81,-1,80,82,81,-1,81,82,83,-1,82,84,83,-1,83,84,85,-1,84,86,85,-1,85,86,87,-1,86,88,87,-1,87,88,89,-1,88,90,89,-1,89,90,91,-1,90,76,91,-1,91,76,78,-1,92,80,77,-1,76,93,77,-1,77,93,94,-1,77,94,92,-1,90,88,86,-1,82,80,84,-1,84,80,92,-1,84,92,86,-1,86,92,93,-1,86,93,90,-1,90,93,76,-1,92,94,95,-1,95,94,96,-1,93,92,97,-1,97,92,95,-1,94,93,96,-1,96,93,97,-1,98,99,100,-1,100,99,101,-1,99,102,101,-1,101,102,103,-1,102,104,103,-1,103,104,105,-1,106,107,108,-1,106,108,109,-1,109,108,105,-1,109,105,104,-1,110,111,112,-1,110,112,113,-1,113,112,114,-1,113,114,115,-1,115,114,107,-1,115,107,106,-1,98,100,116,-1,98,116,117,-1,117,116,118,-1,117,118,119,-1,119,118,120,-1,119,120,121,-1,121,120,111,-1,121,111,110,-1,122,123,119,-1,119,123,124,-1,119,124,117,-1,117,124,125,-1,117,125,98,-1,98,125,126,-1,98,126,99,-1,99,126,127,-1,99,127,102,-1,102,127,128,-1,102,128,104,-1,104,128,129,-1,104,129,109,-1,109,129,130,-1,109,130,106,-1,106,130,131,-1,106,131,115,-1,115,131,132,-1,115,132,113,-1,113,132,133,-1,113,133,110,-1,110,133,134,-1,110,134,121,-1,121,134,122,-1,121,122,119,-1,128,127,135,-1,135,127,136,-1,129,128,137,-1,137,128,135,-1,129,137,138,-1,129,138,130,-1,130,138,139,-1,130,139,131,-1,131,139,140,-1,131,140,132,-1,132,140,141,-1,132,141,133,-1,133,141,142,-1,133,142,134,-1,134,142,143,-1,134,143,122,-1,122,143,144,-1,122,144,123,-1,123,144,145,-1,123,145,124,-1,124,145,146,-1,124,146,125,-1,125,146,147,-1,125,147,126,-1,127,126,136,-1,136,126,147,-1,148,149,150,-1,150,149,151,-1,149,152,151,-1,151,152,153,-1,152,154,153,-1,153,154,155,-1,154,156,155,-1,155,156,157,-1,156,158,157,-1,157,158,159,-1,158,160,159,-1,159,160,161,-1,160,162,161,-1,161,162,163,-1,162,164,163,-1,163,164,165,-1,164,166,165,-1,165,166,167,-1,166,168,167,-1,167,168,169,-1,168,170,169,-1,169,170,171,-1,170,148,171,-1,171,148,150,-1,148,170,168,-1,168,166,148,-1,148,166,164,-1,148,164,149,-1,154,152,156,-1,156,152,149,-1,156,149,158,-1,158,149,164,-1,158,164,160,-1,160,164,162,-1,172,173,174,-1,172,174,175,-1,175,174,176,-1,175,176,177,-1,177,176,178,-1,177,178,179,-1,179,178,180,-1,179,180,181,-1,172,182,173,-1,173,182,183,-1,184,185,186,-1,184,186,187,-1,187,186,188,-1,187,188,189,-1,189,188,190,-1,189,190,191,-1,191,190,183,-1,191,183,182,-1,192,193,194,-1,192,194,195,-1,195,194,196,-1,195,196,197,-1,197,196,198,-1,197,198,199,-1,199,198,185,-1,199,185,184,-1,200,201,202,-1,200,202,203,-1,203,202,204,-1,203,204,205,-1,205,204,206,-1,205,206,207,-1,207,206,193,-1,207,193,192,-1,208,209,210,-1,208,210,211,-1,211,210,201,-1,211,201,200,-1,208,212,209,-1,209,212,213,-1,214,215,216,-1,214,216,217,-1,217,216,218,-1,217,218,219,-1,218,220,219,-1,219,220,221,-1,219,221,222,-1,222,221,213,-1,222,213,212,-1,215,214,223,-1,223,214,224,-1,223,224,225,-1,225,224,226,-1,225,226,227,-1,227,226,228,-1,227,228,229,-1,229,228,230,-1,229,230,231,-1,232,233,234,-1,232,234,235,-1,235,234,231,-1,235,231,230,-1,181,180,236,-1,181,236,237,-1,237,236,238,-1,237,238,239,-1,239,238,240,-1,239,240,241,-1,241,240,233,-1,241,233,232,-1,212,208,222,-1,222,208,211,-1,232,235,207,-1,207,235,205,-1,205,235,230,-1,205,230,228,-1,182,172,175,-1,182,175,191,-1,191,175,177,-1,191,177,179,-1,228,226,205,-1,205,226,224,-1,205,224,203,-1,203,224,214,-1,203,214,200,-1,200,214,217,-1,200,217,211,-1,211,217,219,-1,211,219,222,-1,207,192,232,-1,232,192,195,-1,232,195,241,-1,241,195,197,-1,241,197,239,-1,239,197,199,-1,239,199,237,-1,237,199,184,-1,237,184,181,-1,181,184,187,-1,181,187,179,-1,179,187,189,-1,179,189,191,-1,242,243,244,-1,244,243,245,-1,243,246,245,-1,245,246,247,-1,246,248,247,-1,247,248,249,-1,248,250,249,-1,249,250,251,-1,250,252,251,-1,251,252,253,-1,252,242,253,-1,253,242,244,-1,246,243,248,-1,248,243,242,-1,248,242,250,-1,250,242,252,-1,
        ]
    }
}
Shape{
    appearance Appearance {
        material  Material 	{
            diffuseColor 0.11372549019607843 0.11372549019607843 0.11372549019607843
            specularColor 0.058823529411764705 0.058823529411764705 0.058823529411764705
            ambientIntensity 0.2
            transparency 0
            shininess 0.5
        }
    }
    geometry IndexedFaceSet {
        ccw TRUE
        solid FALSE
        coord DEF co Coordinate {
            point [
                -0.0578 0.0416 0.0079, -0.0521 0.0296 0.0079, -0.0633 0.0296 0.0079, -0.0156 0.0446 0.0079, -0.0156 0.0195 0.0079, -0.0178 0.0446 0.0079, -0.0192 0.0195 0.0079, -0.0227 0.0444 0.0079, -0.0237 0.0196 0.0079, -0.0275 0.0437 0.0079, -0.0282 0.0203 0.0079, -0.0327 0.0231 0.0079, -0.0353 0.0277 0.0079, -0.0358 0.0316 0.0079, -0.0344 0.0379 0.0079, -0.031 0.042 0.0079, -0.031 0.042 0.0079
            ]
        }
        coordIndex [
            0,1,2,-1,3,4,5,-1,5,4,6,-1,5,6,7,-1,7,6,8,-1,7,8,9,-1,10,11,8,-1,8,11,12,-1,8,12,13,-1,13,14,8,-1,8,14,15,-1,8,15,9,-1,
        ]
    }
}
Shape{
    appearance Appearance {
        material  Material 	{
            diffuseColor 0.7529411764705882 0.7529411764705882 0.7529411764705882
            specularColor 0.3764705882352941 0.3764705882352941 0.3764705882352941
            ambientIntensity 0.2
            transparency 0
            shininess 0.5
        }
    }
    geometry IndexedFaceSet {
        ccw TRUE
        solid FALSE
        coord DEF co Coordinate {
            point [
                0.2283 -0.3937 0.0, 0.2283 0.3937 0.0, 0.2323 0.3937 0.0011, 0.2323 -0.3937 0.0011, 0.2352 0.3937 0.0039, 0.2352 -0.3937 0.0039, 0.2362 0.3937 0.0079, 0.2362 -0.3937 0.0079, 0.2283 0.3937 0.2165, 0.2283 -0.3937 0.2165, 0.2323 -0.3937 0.2155, 0.2323 0.3937 0.2155, 0.2352 -0.3937 0.2126, 0.2352 0.3937 0.2126, 0.2362 -0.3937 0.2087, 0.2362 0.3937 0.2087, -0.2283 -0.3937 0.2165, -0.2283 0.3937 0.2165, -0.2323 0.3937 0.2155, -0.2323 -0.3937 0.2155, -0.2352 0.3937 0.2126, -0.2352 -0.3937 0.2126, -0.2362 0.3937 0.2087, -0.2362 -0.3937 0.2087, -0.2283 0.3937 0.0, -0.2283 -0.3937 0.0, -0.2323 -0.3937 0.0011, -0.2323 0.3937 0.0011, -0.2352 -0.3937 0.0039, -0.2352 0.3937 0.0039, -0.2362 -0.3937 0.0079, -0.2362 0.3937 0.0079, 0.1503 0.3937 0.2165, 0.1503 0.3937 0.2087, 0.1503 0.3858 0.2087, 0.1503 -0.3937 0.2165, 0.1503 -0.3858 0.2087, 0.1503 -0.3937 0.2087, -0.1503 -0.3937 0.2165, -0.1503 -0.3937 0.2087, -0.1503 -0.3858 0.2087, -0.1503 0.3937 0.2165, -0.1503 0.3858 0.2087, -0.1503 0.3937 0.2087, -0.1503 0.3937 0.2087
            ]
        }
        coordIndex [
            0,1,2,-1,0,2,3,-1,3,2,4,-1,3,4,5,-1,5,4,6,-1,5,6,7,-1,8,9,10,-1,8,10,11,-1,11,10,12,-1,11,12,13,-1,13,12,14,-1,13,14,15,-1,16,17,18,-1,16,18,19,-1,19,18,20,-1,19,20,21,-1,21,20,22,-1,21,22,23,-1,24,25,26,-1,24,26,27,-1,27,26,28,-1,27,28,29,-1,29,28,30,-1,29,30,31,-1,32,33,34,-1,32,34,35,-1,35,34,36,-1,35,36,37,-1,38,39,40,-1,38,40,41,-1,41,40,42,-1,41,42,43,-1,
        ]
    }
}