#VRML V2.0 utf8
# 3D model generated by easyeda2kicad.py (https://github.com/uPesy/easyeda2kicad.py)

Shape{
    appearance Appearance {
        material  Material 	{
            diffuseColor 0.8274509803921568 0.6666666666666666 0.12941176470588237
            specularColor 0.4117647058823529 0.3333333333333333 0.06666666666666667
            ambientIntensity 0.2
            transparency 0
            shininess 0.5
        }
    }
    geometry IndexedFaceSet {
        ccw TRUE
        solid FALSE
        coord DEF co Coordinate {
            point [
                -0.5507 -0.0027 -0.0394, -0.5294 -0.0027 -0.0394, -0.5233 0.006 -0.0394, -0.5233 -0.2151 -0.0394, -0.4953 -0.2151 -0.0394, -0.4953 -0.0954 -0.0394, -0.432 -0.315 -0.0394, -0.3742 -0.315 -0.0394, -0.3742 -0.2151 -0.0394, -0.555 -0.0481 -0.0394, -0.5545 -0.0486 -0.0394, -0.5509 -0.0486 -0.0394, -0.5123 -0.0161 -0.0394, -0.5114 -0.0158 -0.0394, -0.5233 -0.0158 -0.0394, -0.4955 -0.0227 -0.0394, -0.4953 -0.0243 -0.0394, -0.4953 -0.0158 -0.0394, -0.5509 -0.0389 -0.0394, -0.5509 -0.0386 -0.0394, -0.5509 -0.0436 -0.0394, -0.5508 -0.0344 -0.0394, -0.5507 -0.0339 -0.0394, -0.5509 -0.0339 -0.0394, -0.4934 0.0442 -0.0394, -0.4953 0.0414 -0.0394, -0.4953 0.006 -0.0394, -0.4977 0.038 -0.0394, -0.5036 0.0329 -0.0394, -0.5097 0.0298 -0.0394, -0.5099 0.029 -0.0394, -0.5122 0.0245 -0.0394, -0.4906 0.0658 -0.0394, -0.4898 0.0586 -0.0394, -0.432 0.006 -0.0394, -0.4906 0.0518 -0.0394, -0.4933 0.0728 -0.0394, -0.432 0.315 -0.0394, -0.4953 0.0762 -0.0394, -0.4953 0.315 -0.0394, -0.4957 0.0769 -0.0394, -0.5141 0.1081 -0.0394, -0.5094 0.1045 -0.0394, -0.5028 0.093 -0.0394, -0.5021 0.087 -0.0394, -0.4988 0.0804 -0.0394, -0.5022 0.0853 -0.0394, -0.5024 0.0835 -0.0394, -0.5084 0.1035 -0.0394, -0.505 0.0986 -0.0394, -0.5473 0.1005 -0.0394, -0.5432 0.1052 -0.0394, -0.5509 0.315 -0.0394, -0.5499 0.095 -0.0394, -0.5509 0.0929 -0.0394, -0.5505 0.0931 -0.0394, -0.5383 0.1087 -0.0394, -0.5326 0.1109 -0.0394, -0.5233 0.315 -0.0394, -0.5267 0.1116 -0.0394, -0.5252 0.1116 -0.0394, -0.5233 0.1112 -0.0394, -0.5195 0.1106 -0.0394, -0.5588 0.0863 -0.0394, -0.5566 0.0893 -0.0394, -0.5538 0.0916 -0.0394, -0.5594 0.0724 -0.0394, -0.5604 0.075 -0.0394, -0.6299 0.006 -0.0394, -0.5608 0.0787 -0.0394, -0.6299 0.2992 -0.0394, -0.6265 0.309 -0.0394, -0.6284 0.306 -0.0394, -0.5603 0.0828 -0.0394, -0.5608 0.0793 -0.0394, -0.6295 0.3027 -0.0394, -0.5594 0.0849 -0.0394, -0.5594 0.315 -0.0394, -0.6142 0.315 -0.0394, -0.6177 0.3146 -0.0394, -0.621 0.3134 -0.0394, -0.624 0.3115 -0.0394, -0.5509 0.0644 -0.0394, -0.551 0.0645 -0.0394, -0.5594 0.006 -0.0394, -0.5544 0.0663 -0.0394, -0.557 0.0686 -0.0394, -0.5591 0.0716 -0.0394, -0.5157 0.0204 -0.0394, -0.52 0.0173 -0.0394, -0.5233 0.016 -0.0394, -0.5246 0.0155 -0.0394, -0.542 0.0451 -0.0394, -0.5416 0.044 -0.0394, -0.5329 0.0422 -0.0394, -0.5296 0.0148 -0.0394, -0.535 0.0155 -0.0394, -0.5509 0.006 -0.0394, -0.5355 0.0673 -0.0394, -0.5249 0.0469 -0.0394, -0.5331 0.0699 -0.0394, -0.5313 0.0732 -0.0394, -0.5426 0.046 -0.0394, -0.5284 0.0242 -0.0394, -0.5255 0.025 -0.0394, -0.5233 0.0261 -0.0394, -0.5233 0.1017 -0.0394, -0.5398 0.0174 -0.0394, -0.544 0.0204 -0.0394, -0.5475 0.0245 -0.0394, -0.5414 0.0428 -0.0394, -0.5414 0.0427 -0.0394, -0.5415 0.0422 -0.0394, -0.5324 0.1008 -0.0394, -0.5355 0.099 -0.0394, -0.5371 0.0913 -0.0394, -0.5383 0.0963 -0.0394, -0.5403 0.0929 -0.0394, -0.5321 0.0857 -0.0394, -0.5342 0.0888 -0.0394, -0.5264 0.1021 -0.0394, -0.5287 0.1019 -0.0394, -0.5308 0.0823 -0.0394, -0.5303 0.0787 -0.0394, -0.5304 0.0768 -0.0394, -0.5461 0.0476 -0.0394, -0.5455 0.0475 -0.0394, -0.5441 0.0635 -0.0394, -0.5444 0.0472 -0.0394, -0.5433 0.0466 -0.0394, -0.5378 0.0273 -0.0394, -0.5354 0.0256 -0.0394, -0.5327 0.0245 -0.0394, -0.5297 0.0242 -0.0394, -0.5507 0.044 -0.0394, -0.5503 0.045 -0.0394, -0.5496 0.046 -0.0394, -0.5492 0.0463 -0.0394, -0.5483 0.047 -0.0394, -0.5472 0.0474 -0.0394, -0.5472 0.0636 -0.0394, -0.5457 0.0635 -0.0394, -0.5498 0.0291 -0.0394, -0.5508 0.0342 -0.0394, -0.5508 0.0431 -0.0394, -0.5416 0.0419 -0.0394, -0.5416 0.0351 -0.0394, -0.541 0.0324 -0.0394, -0.5398 0.0297 -0.0394, -0.538 0.0275 -0.0394, -0.5088 0.0405 -0.0394, -0.5047 0.0439 -0.0394, -0.5135 0.0788 -0.0394, -0.5043 0.0443 -0.0394, -0.5014 0.0486 -0.0394, -0.5087 0.0765 -0.0394, -0.5129 0.0799 -0.0394, -0.5116 0.0833 -0.0394, -0.5229 0.0264 -0.0394, -0.5209 0.0281 -0.0394, -0.5179 0.036 -0.0394, -0.5193 0.0305 -0.0394, -0.5182 0.0331 -0.0394, -0.5179 0.0372 -0.0394, -0.5136 0.0382 -0.0394, -0.5122 0.0922 -0.0394, -0.514 0.0956 -0.0394, -0.5113 0.0885 -0.0394, -0.5163 0.0982 -0.0394, -0.5193 0.1003 -0.0394, -0.5046 0.0731 -0.0394, -0.4995 0.0533 -0.0394, -0.5016 0.069 -0.0394, -0.4989 0.0585 -0.0394, -0.4996 0.0641 -0.0394, -0.5112 0.0869 -0.0394, -0.5227 0.1016 -0.0394, -0.5319 -0.0729 -0.0394, -0.5483 -0.0733 -0.0394, -0.5233 -0.0754 -0.0394, -0.5509 -0.0754 -0.0394, -0.5507 -0.0733 -0.0394, -0.5509 -0.0686 -0.0394, -0.5387 -0.0686 -0.0394, -0.5387 -0.0723 -0.0394, -0.5411 -0.0723 -0.0394, -0.5483 -0.0686 -0.0394, -0.5411 -0.0686 -0.0394, -0.5411 -0.0646 -0.0394, -0.5483 -0.0646 -0.0394, -0.5319 -0.0686 -0.0394, -0.5319 -0.0646 -0.0394, -0.5387 -0.0646 -0.0394, -0.5507 -0.0686 -0.0394, -0.5507 -0.0619 -0.0394, -0.5509 -0.0529 -0.0394, -0.5355 -0.059 -0.0394, -0.547 -0.0513 -0.0394, -0.5482 -0.0516 -0.0394, -0.5482 -0.0517 -0.0394, -0.5233 -0.0486 -0.0394, -0.5294 -0.0619 -0.0394, -0.5233 -0.0686 -0.0394, -0.5294 -0.0686 -0.0394, -0.5294 -0.0729 -0.0394, -0.5477 -0.0518 -0.0394, -0.547 -0.052 -0.0394, -0.5392 -0.0486 -0.0394, -0.5355 -0.0562 -0.0394, -0.5475 -0.0326 -0.0394, -0.5233 -0.0299 -0.0394, -0.5509 -0.0299 -0.0394, -0.5502 -0.0326 -0.0394, -0.5481 -0.0337 -0.0394, -0.5482 -0.0339 -0.0394, -0.5425 -0.0339 -0.0394, -0.542 -0.0334 -0.0394, -0.5415 -0.0331 -0.0394, -0.5407 -0.0328 -0.0394, -0.5396 -0.0327 -0.0394, -0.5387 -0.0328 -0.0394, -0.5378 -0.0331 -0.0394, -0.5425 -0.0339 -0.0394, -0.5594 -0.0339 -0.0394, -0.5511 -0.0368 -0.0394, -0.5509 -0.0352 -0.0394, -0.5358 -0.0422 -0.0394, -0.5384 -0.0422 -0.0394, -0.5477 -0.0428 -0.0394, -0.5485 -0.0425 -0.0394, -0.5492 -0.042 -0.0394, -0.5371 -0.0336 -0.0394, -0.5368 -0.0339 -0.0394, -0.5233 -0.0339 -0.0394, -0.5364 -0.0344 -0.0394, -0.5359 -0.0352 -0.0394, -0.5354 -0.0367 -0.0394, -0.5351 -0.0386 -0.0394, -0.5233 -0.0436 -0.0394, -0.5353 -0.0404 -0.0394, -0.5441 -0.0421 -0.0394, -0.5448 -0.0426 -0.0394, -0.5456 -0.0428 -0.0394, -0.5466 -0.0429 -0.0394, -0.5499 -0.0412 -0.0394, -0.5504 -0.0404 -0.0394, -0.5373 -0.0383 -0.0394, -0.5374 -0.0375 -0.0394, -0.5394 -0.0354 -0.0394, -0.5376 -0.0368 -0.0394, -0.5379 -0.0362 -0.0394, -0.5397 -0.0354 -0.0394, -0.5401 -0.0356 -0.0394, -0.5405 -0.0357 -0.0394, -0.5408 -0.036 -0.0394, -0.5414 -0.0369 -0.0394, -0.5375 -0.0401 -0.0394, -0.5421 -0.0386 -0.0394, -0.5381 -0.0416 -0.0394, -0.5425 -0.0396 -0.0394, -0.5435 -0.0414 -0.0394, -0.5382 -0.0358 -0.0394, -0.5386 -0.0356 -0.0394, -0.5389 -0.0355 -0.0394, -0.5487 -0.0353 -0.0394, -0.544 -0.0367 -0.0394, -0.5433 -0.0351 -0.0394, -0.5489 -0.037 -0.0394, -0.5489 -0.0372 -0.0394, -0.5448 -0.0385 -0.0394, -0.5488 -0.0385 -0.0394, -0.5469 -0.0402 -0.0394, -0.5465 -0.0402 -0.0394, -0.5485 -0.0392 -0.0394, -0.5484 -0.0395 -0.0394, -0.5481 -0.0398 -0.0394, -0.5478 -0.04 -0.0394, -0.5474 -0.0401 -0.0394, -0.5461 -0.0401 -0.0394, -0.5458 -0.0398 -0.0394, -0.5454 -0.0395 -0.0394, -0.4955 -0.0803 -0.0394, -0.5169 -0.0884 -0.0394, -0.5233 -0.0954 -0.0394, -0.511 -0.0832 -0.0394, -0.511 -0.0754 -0.0394, -0.5169 -0.0854 -0.0394, -0.5169 -0.0692 -0.0394, -0.5169 -0.0723 -0.0394, -0.511 -0.0743 -0.0394, -0.498 -0.0461 -0.0394, -0.4953 -0.0486 -0.0394, -0.4955 -0.0461 -0.0394, -0.4953 -0.0436 -0.0394, -0.4955 -0.0436 -0.0394, -0.5048 -0.0455 -0.0394, -0.5073 -0.0455 -0.0394, -0.5073 -0.0379 -0.0394, -0.5144 -0.0379 -0.0394, -0.5144 -0.0436 -0.0394, -0.498 -0.0436 -0.0394, -0.5048 -0.0436 -0.0394, -0.498 -0.0379 -0.0394, -0.5048 -0.0379 -0.0394, -0.5169 -0.0351 -0.0394, -0.5169 -0.0436 -0.0394, -0.5169 -0.0466 -0.0394, -0.5144 -0.0466 -0.0394, -0.5073 -0.0436 -0.0394, -0.4955 -0.0351 -0.0394, -0.4953 -0.0339 -0.0394, -0.6142 -0.315 -0.0394, -0.6299 -0.2151 -0.0394, -0.6299 -0.2992 -0.0394, -0.6295 -0.3027 -0.0394, -0.6284 -0.306 -0.0394, -0.6265 -0.309 -0.0394, -0.624 -0.3115 -0.0394, -0.621 -0.3134 -0.0394, -0.6177 -0.3146 -0.0394, -0.5133 -0.0308 -0.0394, -0.516 -0.0308 -0.0394, -0.5162 -0.0305 -0.0394, -0.4977 -0.0258 -0.0394, -0.4977 -0.0249 -0.0394, -0.5138 -0.0299 -0.0394, -0.498 -0.0284 -0.0394, -0.4989 -0.0308 -0.0394, -0.4988 -0.0306 -0.0394, -0.4985 -0.0299 -0.0394, -0.4981 -0.023 -0.0394, -0.4989 -0.0214 -0.0394, -0.5 -0.02 -0.0394, -0.5002 -0.0198 -0.0394, -0.5017 -0.0188 -0.0394, -0.5035 -0.0181 -0.0394, -0.5064 -0.0178 -0.0394, -0.5073 -0.0178 -0.0394, -0.5142 -0.0291 -0.0394, -0.5147 -0.0267 -0.0394, -0.5148 -0.0253 -0.0394, -0.5094 -0.0181 -0.0394, -0.5111 -0.0188 -0.0394, -0.5125 -0.0198 -0.0394, -0.5131 -0.0204 -0.0394, -0.5146 -0.0234 -0.0394, -0.514 -0.0218 -0.0394, -0.4953 -0.0281 -0.0394, -0.4954 -0.0286 -0.0394, -0.4953 -0.0299 -0.0394, -0.4958 -0.0299 -0.0394, -0.496 -0.0308 -0.0394, -0.5003 -0.0164 -0.0394, -0.4983 -0.0179 -0.0394, -0.4979 -0.0184 -0.0394, -0.4964 -0.0205 -0.0394, -0.5233 -0.0145 -0.0394, -0.4953 -0.0145 -0.0394, -0.5027 -0.0154 -0.0394, -0.5017 -0.0158 -0.0394, -0.5101 -0.0153 -0.0394, -0.5066 -0.0149 -0.0394, -0.5055 -0.0149 -0.0394, -0.5172 -0.0249 -0.0394, -0.5171 -0.0233 -0.0394, -0.5166 -0.0211 -0.0394, -0.5156 -0.0191 -0.0394, -0.5164 -0.0299 -0.0394, -0.5169 -0.0282 -0.0394, -0.5143 -0.0176 -0.0394, -0.5141 -0.0174 -0.0394, -0.5442 -0.0173 -0.0394, -0.5435 -0.0179 -0.0394, -0.5392 -0.0183 -0.0394, -0.5499 -0.025 -0.0394, -0.5506 -0.0241 -0.0394, -0.5507 -0.0263 -0.0394, -0.5509 -0.0231 -0.0394, -0.5509 -0.02 -0.0394, -0.5505 -0.019 -0.0394, -0.5509 -0.0158 -0.0394, -0.5428 -0.0187 -0.0394, -0.5422 -0.0198 -0.0394, -0.5381 -0.0199 -0.0394, -0.5417 -0.0218 -0.0394, -0.5374 -0.0242 -0.0394, -0.5373 -0.0233 -0.0394, -0.5375 -0.0216 -0.0394, -0.5499 -0.0181 -0.0394, -0.5496 -0.0178 -0.0394, -0.5488 -0.0172 -0.0394, -0.5361 -0.0271 -0.0394, -0.5368 -0.0278 -0.0394, -0.5377 -0.0284 -0.0394, -0.5484 -0.0263 -0.0394, -0.5484 -0.0263 -0.0394, -0.549 -0.0258 -0.0394, -0.5479 -0.0169 -0.0394, -0.5467 -0.0168 -0.0394, -0.5463 -0.0168 -0.0394, -0.5452 -0.017 -0.0394, -0.5355 -0.0208 -0.0394, -0.5351 -0.0235 -0.0394, -0.5353 -0.0251 -0.0394, -0.5356 -0.0262 -0.0394, -0.5366 -0.0183 -0.0394, -0.5362 -0.0188 -0.0394, -0.5411 -0.0263 -0.0394, -0.5399 -0.0263 -0.0394, -0.5389 -0.026 -0.0394, -0.5384 -0.0257 -0.0394, -0.5389 -0.0288 -0.0394, -0.5409 -0.029 -0.0394, -0.5507 -0.029 -0.0394, -0.5379 -0.0253 -0.0394, -0.5376 -0.0248 -0.0394, -0.551 -0.023 -0.0394, -0.5594 -0.0299 -0.0394, -0.5594 -0.0158 -0.0394, -0.5511 -0.0216 -0.0394, -0.5509 -0.0201 -0.0394, -0.5464 -0.0486 -0.0394, -0.5355 -0.0443 -0.0394, -0.5355 -0.0473 -0.0394, -0.5507 -0.0503 -0.0394, -0.5509 -0.0502 -0.0394, -0.5535 -0.0491 -0.0394, -0.5594 -0.0436 -0.0394, -0.5577 -0.0449 -0.0394, -0.5553 -0.0449 -0.0394, -0.5555 -0.0454 -0.0394, -0.5556 -0.0464 -0.0394, -0.5575 -0.0486 -0.0394, -0.5578 -0.0477 -0.0394, -0.5594 -0.0486 -0.0394, -0.5579 -0.0466 -0.0394, -0.5579 -0.046 -0.0394, -0.5556 -0.0471 -0.0394, -0.5553 -0.0476 -0.0394, -0.5531 -0.0521 -0.0394, -0.5554 -0.0508 -0.0394, -0.5594 -0.0686 -0.0394, -0.5566 -0.0499 -0.0394, -0.5568 -0.0497 -0.0394, -0.5574 -0.0488 -0.0394, -0.4953 -0.315 -0.0394, -0.5233 -0.315 -0.0394, -0.5509 -0.315 -0.0394, -0.5509 -0.2151 -0.0394, -0.5507 -0.099 -0.0394, -0.5507 -0.0959 -0.0394, -0.5509 -0.0954 -0.0394, -0.5507 -0.1121 -0.0394, -0.5449 -0.1099 -0.0394, -0.5449 -0.101 -0.0394, -0.5294 -0.1041 -0.0394, -0.5294 -0.107 -0.0394, -0.5507 -0.1152 -0.0394, -0.4953 -0.0754 -0.0394, -0.4955 -0.0773 -0.0394, -0.5007 -0.0754 -0.0394, -0.5298 -0.0867 -0.0394, -0.5307 -0.0893 -0.0394, -0.5437 -0.0942 -0.0394, -0.5459 -0.0931 -0.0394, -0.5478 -0.0915 -0.0394, -0.5494 -0.0893 -0.0394, -0.5294 -0.0835 -0.0394, -0.5322 -0.0915 -0.0394, -0.533 -0.0923 -0.0394, -0.5348 -0.0936 -0.0394, -0.5369 -0.0944 -0.0394, -0.5398 -0.0948 -0.0394, -0.5412 -0.0947 -0.0394, -0.5503 -0.0869 -0.0394, -0.5507 -0.0832 -0.0394, -0.5507 -0.0774 -0.0394, -0.5294 -0.0774 -0.0394, -0.5594 -0.0754 -0.0394, -0.5594 -0.0954 -0.0394, -0.5594 -0.2151 -0.0394, -0.5594 -0.315 -0.0394, -0.5169 -0.0506 -0.0394, -0.5073 -0.068 -0.0394, -0.5098 -0.0674 -0.0394, -0.512 -0.0664 -0.0394, -0.5139 -0.0648 -0.0394, -0.501 -0.0669 -0.0394, -0.503 -0.0677 -0.0394, -0.4953 -0.0686 -0.0394, -0.5059 -0.068 -0.0394, -0.4955 -0.0506 -0.0394, -0.4955 -0.0567 -0.0394, -0.4959 -0.06 -0.0394, -0.4968 -0.0626 -0.0394, -0.4984 -0.0648 -0.0394, -0.4991 -0.0656 -0.0394, -0.5155 -0.0626 -0.0394, -0.5164 -0.0601 -0.0394, -0.5169 -0.0565 -0.0394, -0.432 -0.0299 -0.0394, -0.432 -0.0339 -0.0394, -0.432 -0.0436 -0.0394, -0.432 -0.0486 -0.0394, -0.432 -0.0686 -0.0394, -0.432 -0.0754 -0.0394, -0.432 -0.0954 -0.0394, -0.432 -0.2151 -0.0394, -0.6299 -0.0145 -0.0394, -0.5594 -0.0145 -0.0394, -0.6299 -0.0158 -0.0394, -0.6299 -0.0299 -0.0394, -0.6299 -0.0339 -0.0394, -0.6299 -0.0436 -0.0394, -0.6299 -0.0486 -0.0394, -0.6299 -0.0686 -0.0394, -0.6299 -0.0754 -0.0394, -0.6299 -0.0954 -0.0394, -0.5509 -0.0145 -0.0394, -0.5294 -0.0137 -0.0394, -0.5319 -0.0137 -0.0394, -0.5319 -0.0055 -0.0394, -0.5387 -0.0055 -0.0394, -0.5387 -0.0131 -0.0394, -0.5507 -0.0142 -0.0394, -0.5483 -0.0142 -0.0394, -0.5411 -0.0055 -0.0394, -0.5483 -0.0055 -0.0394, -0.5411 -0.0131 -0.0394, -0.4955 -0.0055 -0.0394, -0.5144 -0.0055 -0.0394, -0.5144 -0.014 -0.0394, -0.5169 -0.014 -0.0394, -0.5169 -0.0027 -0.0394, -0.4955 -0.0027 -0.0394, -0.432 -0.0145 -0.0394, -0.432 -0.0158 -0.0394, -0.4952 -0.0258 -0.0394, -0.3742 -0.0954 -0.0394, -0.3742 -0.0754 -0.0394, -0.3742 -0.0686 -0.0394, -0.3742 -0.0486 -0.0394, -0.3742 -0.0436 -0.0394, -0.3742 -0.0339 -0.0394, -0.3742 -0.0299 -0.0394, -0.3742 -0.0158 -0.0394, -0.3742 -0.0145 -0.0394, -0.3742 0.006 -0.0394, -0.3742 0.315 -0.0394, -0.2358 0.315 -0.002, -0.214 0.315 0.0, -0.214 0.315 -0.1181, -0.246 0.315 -0.1306, -0.2924 0.315 -0.1454, -0.2244 0.315 -0.1221, -0.2138 0.315 -0.1191, -0.2029 0.315 -0.1181, -0.6142 0.315 -0.1575, -0.389 0.315 -0.1575, -0.3403 0.315 -0.1545, -0.3378 0.315 -0.036, -0.3027 0.315 -0.0259, -0.2569 0.315 -0.0081, 0.3742 0.315 -0.0394, 0.6142 0.315 -0.0394, 0.6142 0.315 -0.1575, 0.389 0.315 -0.1575, 0.3403 0.315 -0.1545, 0.3378 0.315 -0.036, 0.2924 0.315 -0.1454, 0.3027 0.315 -0.0259, 0.246 0.315 -0.1306, 0.2569 0.315 -0.0081, 0.2244 0.315 -0.1221, 0.2358 0.315 -0.002, 0.2138 0.315 -0.1191, 0.214 0.315 0.0, 0.2029 0.315 -0.1181, 0.2029 0.315 0.0, -0.6142 -0.315 -0.1575, -0.2029 -0.315 -0.1181, -0.214 -0.315 -0.1181, -0.2138 -0.315 -0.1191, -0.2244 -0.315 -0.1221, -0.389 -0.315 -0.1575, -0.3403 -0.315 -0.1545, -0.3378 -0.315 -0.036, -0.2924 -0.315 -0.1454, -0.3027 -0.315 -0.0259, -0.246 -0.315 -0.1306, -0.2569 -0.315 -0.0081, -0.2358 -0.315 -0.002, -0.214 -0.315 0.0, 0.2029 -0.315 0.0, 0.2029 -0.315 -0.1181, 0.214 -0.315 0.0, 0.2138 -0.315 -0.1191, 0.2358 -0.315 -0.002, 0.6142 -0.315 -0.1575, 0.6142 -0.315 -0.0394, 0.389 -0.315 -0.1575, 0.3742 -0.315 -0.0394, 0.3403 -0.315 -0.1545, 0.3378 -0.315 -0.036, 0.2569 -0.315 -0.0081, 0.2244 -0.315 -0.1221, 0.3027 -0.315 -0.0259, 0.246 -0.315 -0.1306, 0.2924 -0.315 -0.1454, 0.6299 -0.2992 -0.0394, 0.6182 -0.3144 -0.0394, 0.622 -0.3129 -0.0394, 0.6253 -0.3103 -0.0394, 0.6278 -0.3071 -0.0394, 0.6294 -0.3033 -0.0394, 0.6299 0.2992 -0.0394, 0.6294 0.3033 -0.0394, 0.6278 0.3071 -0.0394, 0.6253 0.3103 -0.0394, 0.6182 0.3144 -0.0394, 0.622 0.3129 -0.0394, 0.6299 -0.2992 -0.1575, 0.6299 0.2992 -0.1575, 0.6182 -0.3144 -0.1575, 0.6294 -0.3033 -0.1575, 0.6278 -0.3071 -0.1575, 0.622 -0.3129 -0.1575, 0.6253 -0.3103 -0.1575, 0.6182 0.3144 -0.1575, 0.622 0.3129 -0.1575, 0.6253 0.3103 -0.1575, 0.6278 0.3071 -0.1575, 0.6294 0.3033 -0.1575, 0.6294 0.3033 -0.1575
            ]
        }
        coordIndex [
            0,1,2,-1,3,4,5,-1,6,7,8,-1,9,10,11,-1,12,13,14,-1,15,16,17,-1,18,19,20,-1,21,22,23,-1,24,25,26,-1,26,25,27,-1,26,27,28,-1,28,29,26,-1,26,29,30,-1,26,30,31,-1,32,33,34,-1,34,33,35,-1,34,35,24,-1,32,34,36,-1,36,34,37,-1,36,37,38,-1,38,37,39,-1,38,39,40,-1,39,41,42,-1,39,43,40,-1,40,43,44,-1,40,44,45,-1,45,44,46,-1,45,46,47,-1,42,48,39,-1,39,48,49,-1,39,49,43,-1,50,51,52,-1,50,52,53,-1,53,52,54,-1,53,54,55,-1,51,56,52,-1,52,56,57,-1,52,57,58,-1,58,57,59,-1,59,60,58,-1,58,60,61,-1,58,61,39,-1,39,61,62,-1,39,62,41,-1,63,64,52,-1,52,64,65,-1,52,65,54,-1,66,67,68,-1,68,67,69,-1,68,69,70,-1,71,72,73,-1,69,74,70,-1,70,74,73,-1,70,73,75,-1,75,73,72,-1,63,52,76,-1,76,52,77,-1,76,77,73,-1,73,77,78,-1,73,78,79,-1,79,80,73,-1,73,80,81,-1,73,81,71,-1,82,83,84,-1,84,83,85,-1,85,86,84,-1,84,86,87,-1,84,87,66,-1,31,88,26,-1,26,88,89,-1,26,89,2,-1,2,89,90,-1,2,90,91,-1,92,93,94,-1,95,96,97,-1,98,99,100,-1,100,99,101,-1,92,94,102,-1,103,104,99,-1,99,104,105,-1,99,105,106,-1,96,107,97,-1,97,107,108,-1,97,108,109,-1,93,110,94,-1,94,110,111,-1,94,111,112,-1,113,114,115,-1,115,114,116,-1,115,116,117,-1,118,106,119,-1,119,106,120,-1,119,120,115,-1,115,120,121,-1,115,121,113,-1,118,122,106,-1,106,122,123,-1,106,123,99,-1,99,123,124,-1,99,124,101,-1,125,126,127,-1,127,126,128,-1,127,128,94,-1,94,128,129,-1,94,129,102,-1,130,131,94,-1,94,131,132,-1,94,132,99,-1,99,132,133,-1,99,133,103,-1,134,135,82,-1,82,135,136,-1,82,136,137,-1,137,138,82,-1,82,138,139,-1,82,139,140,-1,140,139,125,-1,140,125,141,-1,141,125,127,-1,109,142,97,-1,97,142,143,-1,97,143,82,-1,82,143,144,-1,82,144,134,-1,112,145,94,-1,94,145,146,-1,94,146,147,-1,147,148,94,-1,94,148,149,-1,94,149,130,-1,150,151,152,-1,151,153,152,-1,152,153,154,-1,152,154,155,-1,105,152,106,-1,106,152,156,-1,106,156,157,-1,158,159,160,-1,160,159,161,-1,160,161,162,-1,158,160,105,-1,105,160,163,-1,105,163,152,-1,152,163,164,-1,152,164,150,-1,165,166,167,-1,167,166,168,-1,167,168,169,-1,155,154,170,-1,170,154,171,-1,170,171,172,-1,172,171,173,-1,172,173,174,-1,157,175,106,-1,106,175,167,-1,106,167,176,-1,176,167,169,-1,177,178,179,-1,179,178,180,-1,180,178,181,-1,180,181,182,-1,183,184,177,-1,177,184,178,-1,178,184,185,-1,178,185,186,-1,185,187,186,-1,186,187,188,-1,186,188,189,-1,177,190,183,-1,183,190,191,-1,183,191,192,-1,181,193,182,-1,182,193,194,-1,182,194,195,-1,195,194,196,-1,197,198,199,-1,200,201,202,-1,202,201,203,-1,202,203,179,-1,179,203,204,-1,179,204,177,-1,199,205,197,-1,197,205,206,-1,197,206,207,-1,207,206,208,-1,207,208,200,-1,200,208,196,-1,200,196,201,-1,201,196,194,-1,209,210,211,-1,23,22,211,-1,211,22,212,-1,211,212,209,-1,213,214,215,-1,216,217,209,-1,217,218,209,-1,209,218,219,-1,209,219,210,-1,210,219,220,-1,210,220,221,-1,213,215,209,-1,209,215,222,-1,209,222,216,-1,223,224,225,-1,226,227,20,-1,228,229,20,-1,20,229,230,-1,231,232,233,-1,233,232,234,-1,233,234,235,-1,235,236,233,-1,233,236,237,-1,233,237,238,-1,238,237,239,-1,238,239,226,-1,240,241,227,-1,227,241,242,-1,227,242,20,-1,20,242,243,-1,20,243,228,-1,230,244,20,-1,20,244,245,-1,20,245,18,-1,246,247,248,-1,248,247,249,-1,248,249,250,-1,248,251,246,-1,246,251,252,-1,246,252,253,-1,253,254,246,-1,246,254,255,-1,246,255,256,-1,256,255,257,-1,256,257,258,-1,258,257,259,-1,258,259,227,-1,227,259,260,-1,227,260,240,-1,261,262,250,-1,250,262,263,-1,250,263,248,-1,264,265,214,-1,214,265,266,-1,214,266,215,-1,264,267,265,-1,265,267,268,-1,265,268,269,-1,269,268,270,-1,269,271,272,-1,270,273,269,-1,269,273,274,-1,269,274,275,-1,275,276,269,-1,269,276,277,-1,269,277,271,-1,272,278,269,-1,269,278,279,-1,269,279,280,-1,281,282,283,-1,284,285,286,-1,286,285,179,-1,286,179,282,-1,287,202,288,-1,288,202,179,-1,288,179,289,-1,289,179,285,-1,290,291,292,-1,292,291,293,-1,292,293,294,-1,295,296,200,-1,297,298,299,-1,290,300,301,-1,301,300,302,-1,301,302,303,-1,304,233,305,-1,305,233,238,-1,305,238,306,-1,306,238,200,-1,306,200,307,-1,307,200,296,-1,307,296,299,-1,299,296,308,-1,299,308,297,-1,294,293,309,-1,309,293,310,-1,309,310,304,-1,311,312,313,-1,313,314,311,-1,311,314,315,-1,311,315,316,-1,316,317,311,-1,311,317,318,-1,311,318,319,-1,320,321,233,-1,321,322,233,-1,233,322,210,-1,233,210,231,-1,231,210,221,-1,323,324,325,-1,323,325,326,-1,304,310,233,-1,233,310,327,-1,233,327,320,-1,320,327,328,-1,320,328,325,-1,325,328,329,-1,325,329,326,-1,324,330,325,-1,325,330,331,-1,325,331,332,-1,332,333,325,-1,325,333,334,-1,325,334,335,-1,335,336,325,-1,325,336,337,-1,325,337,338,-1,338,337,339,-1,339,337,340,-1,340,337,341,-1,340,341,342,-1,342,343,340,-1,340,343,344,-1,340,344,345,-1,345,344,346,-1,347,348,349,-1,349,348,350,-1,349,350,310,-1,310,350,351,-1,310,351,327,-1,17,352,353,-1,353,354,17,-1,17,354,355,-1,17,355,15,-1,14,13,356,-1,357,358,17,-1,17,358,359,-1,17,359,352,-1,13,360,356,-1,356,360,361,-1,356,361,357,-1,357,361,362,-1,357,362,358,-1,363,364,14,-1,14,364,365,-1,14,365,366,-1,322,367,210,-1,210,367,368,-1,210,368,363,-1,366,369,14,-1,14,369,370,-1,14,370,12,-1,371,372,373,-1,374,375,376,-1,376,375,377,-1,376,377,211,-1,378,379,380,-1,372,381,373,-1,373,381,382,-1,373,382,383,-1,383,382,384,-1,385,386,384,-1,384,386,387,-1,384,387,383,-1,379,388,380,-1,380,388,389,-1,380,389,390,-1,391,392,210,-1,210,392,393,-1,394,395,376,-1,376,395,396,-1,376,396,374,-1,390,397,380,-1,380,397,398,-1,380,398,399,-1,14,399,400,-1,363,14,210,-1,210,14,401,-1,210,401,402,-1,402,403,210,-1,210,403,404,-1,210,404,391,-1,371,373,400,-1,400,373,405,-1,400,405,14,-1,14,405,406,-1,14,406,401,-1,407,408,384,-1,384,408,409,-1,384,409,410,-1,393,411,210,-1,210,411,412,-1,210,412,211,-1,211,412,413,-1,211,413,376,-1,410,414,384,-1,384,414,415,-1,384,415,385,-1,377,416,417,-1,417,416,418,-1,418,416,419,-1,418,419,420,-1,11,421,20,-1,20,421,422,-1,226,20,238,-1,238,20,422,-1,238,422,200,-1,200,422,423,-1,200,423,207,-1,424,421,425,-1,425,421,11,-1,425,11,426,-1,426,11,10,-1,427,428,429,-1,224,223,19,-1,19,223,427,-1,19,427,20,-1,20,427,429,-1,20,429,11,-1,11,429,430,-1,11,430,431,-1,432,433,434,-1,434,433,435,-1,434,435,427,-1,427,435,436,-1,427,436,428,-1,431,437,11,-1,11,437,438,-1,11,438,9,-1,439,440,441,-1,439,441,195,-1,440,442,441,-1,441,442,443,-1,441,443,434,-1,434,443,444,-1,434,444,432,-1,445,4,446,-1,446,4,3,-1,446,3,447,-1,447,3,448,-1,449,450,451,-1,452,453,454,-1,451,450,283,-1,283,450,455,-1,283,455,456,-1,454,449,452,-1,452,449,451,-1,452,451,457,-1,457,451,448,-1,457,448,456,-1,456,448,3,-1,456,3,283,-1,283,3,5,-1,283,5,281,-1,281,5,458,-1,281,458,459,-1,459,458,460,-1,461,462,283,-1,463,464,451,-1,451,464,465,-1,451,465,466,-1,282,179,283,-1,283,179,467,-1,283,467,461,-1,462,468,283,-1,283,468,469,-1,283,469,470,-1,470,471,283,-1,283,471,472,-1,283,472,451,-1,451,472,473,-1,451,473,463,-1,466,474,451,-1,451,474,475,-1,451,475,180,-1,180,475,476,-1,180,476,179,-1,179,476,477,-1,179,477,467,-1,195,441,182,-1,182,441,478,-1,182,478,180,-1,180,478,479,-1,180,479,451,-1,451,479,480,-1,451,480,448,-1,448,480,481,-1,448,481,447,-1,301,295,290,-1,290,295,200,-1,290,200,291,-1,291,200,482,-1,483,484,202,-1,202,484,485,-1,202,485,486,-1,487,488,489,-1,489,488,490,-1,482,491,291,-1,291,491,492,-1,291,492,489,-1,489,492,493,-1,489,493,494,-1,494,495,489,-1,489,495,496,-1,489,496,487,-1,460,458,287,-1,287,458,489,-1,287,489,202,-1,202,489,490,-1,202,490,483,-1,486,497,202,-1,202,497,498,-1,202,498,200,-1,200,498,499,-1,200,499,482,-1,377,417,211,-1,211,417,223,-1,211,223,23,-1,23,223,225,-1,23,225,21,-1,347,349,500,-1,500,349,310,-1,500,310,501,-1,501,310,293,-1,501,293,502,-1,502,293,291,-1,502,291,503,-1,503,291,489,-1,503,489,504,-1,504,489,458,-1,504,458,505,-1,505,458,5,-1,505,5,506,-1,506,5,4,-1,506,4,507,-1,507,4,445,-1,507,445,6,-1,66,68,84,-1,84,68,508,-1,84,508,509,-1,509,508,510,-1,509,510,418,-1,418,510,511,-1,418,511,417,-1,417,511,512,-1,417,512,223,-1,223,512,513,-1,223,513,427,-1,427,513,514,-1,427,514,434,-1,434,514,515,-1,434,515,441,-1,441,515,516,-1,441,516,478,-1,478,516,517,-1,478,517,479,-1,479,517,312,-1,479,312,480,-1,480,312,311,-1,480,311,481,-1,82,84,97,-1,97,84,509,-1,97,509,518,-1,518,509,418,-1,518,418,380,-1,380,418,420,-1,380,420,378,-1,2,1,356,-1,356,1,519,-1,356,519,520,-1,521,522,520,-1,520,522,523,-1,91,95,2,-1,2,95,97,-1,2,97,0,-1,0,97,518,-1,0,518,524,-1,524,518,525,-1,526,527,528,-1,528,527,525,-1,399,14,380,-1,380,14,356,-1,380,356,518,-1,518,356,520,-1,518,520,525,-1,525,520,523,-1,525,523,528,-1,529,357,26,-1,529,530,357,-1,357,530,531,-1,357,531,356,-1,356,531,532,-1,356,532,2,-1,2,532,533,-1,2,533,26,-1,26,533,534,-1,26,534,529,-1,24,26,34,-1,34,26,357,-1,34,357,535,-1,535,357,17,-1,535,17,536,-1,536,17,16,-1,536,16,500,-1,500,16,537,-1,500,537,347,-1,6,8,507,-1,507,8,538,-1,507,538,506,-1,506,538,539,-1,506,539,505,-1,505,539,540,-1,505,540,504,-1,504,540,541,-1,504,541,503,-1,503,541,542,-1,503,542,502,-1,502,542,543,-1,502,543,501,-1,501,543,544,-1,501,544,500,-1,500,544,545,-1,500,545,536,-1,536,545,546,-1,536,546,535,-1,535,546,547,-1,535,547,34,-1,34,547,548,-1,34,548,37,-1,549,550,551,-1,552,553,554,-1,554,553,551,-1,554,551,555,-1,555,551,556,-1,557,78,558,-1,558,78,548,-1,558,548,559,-1,559,548,560,-1,559,560,553,-1,553,560,561,-1,553,561,551,-1,551,561,562,-1,551,562,549,-1,563,564,565,-1,565,566,563,-1,563,566,567,-1,563,567,568,-1,568,567,569,-1,568,569,570,-1,570,569,571,-1,570,571,572,-1,572,571,573,-1,572,573,574,-1,574,573,575,-1,574,575,576,-1,576,575,577,-1,576,577,578,-1,7,311,579,-1,580,581,582,-1,582,581,583,-1,579,584,7,-1,7,584,585,-1,7,585,586,-1,586,585,587,-1,586,587,588,-1,588,587,589,-1,588,589,590,-1,590,589,583,-1,590,583,591,-1,591,583,581,-1,591,581,592,-1,593,594,595,-1,595,594,596,-1,595,596,597,-1,598,599,600,-1,600,599,601,-1,600,601,602,-1,602,601,603,-1,597,596,604,-1,604,596,605,-1,604,605,606,-1,606,605,607,-1,606,607,603,-1,603,607,608,-1,603,608,602,-1,570,606,568,-1,568,606,603,-1,568,603,563,-1,563,603,601,-1,563,601,564,-1,564,601,599,-1,609,599,610,-1,611,612,613,-1,611,613,610,-1,610,613,614,-1,610,614,609,-1,599,609,564,-1,564,609,615,-1,564,615,616,-1,616,617,564,-1,564,617,618,-1,564,618,619,-1,619,618,620,-1,621,622,609,-1,609,622,615,-1,598,600,621,-1,598,621,623,-1,621,624,623,-1,623,624,625,-1,623,625,626,-1,626,625,627,-1,600,566,621,-1,621,566,565,-1,621,565,622,-1,622,565,628,-1,622,628,629,-1,629,630,622,-1,622,630,631,-1,622,631,632,-1,566,600,602,-1,566,602,567,-1,567,602,608,-1,567,608,569,-1,569,608,607,-1,569,607,571,-1,573,571,605,-1,605,571,607,-1,573,605,575,-1,575,605,596,-1,575,596,577,-1,577,596,594,-1,
        ]
    }
}
Shape{
    appearance Appearance {
        material  Material 	{
            diffuseColor 1.0 1.0 1.0
            specularColor 0.5019607843137255 0.5019607843137255 0.5019607843137255
            ambientIntensity 0.2
            transparency 0
            shininess 0.5
        }
    }
    geometry IndexedFaceSet {
        ccw TRUE
        solid FALSE
        coord DEF co Coordinate {
            point [
                -0.2029 0.315 -0.1181, 0.2029 0.315 -0.1181, -0.2029 -0.315 -0.1181, 0.2029 -0.315 -0.1181, 0.2029 -0.315 -0.1181
            ]
        }
        coordIndex [
            0,1,2,-1,2,1,3,-1,
        ]
    }
}
Shape{
    appearance Appearance {
        material  Material 	{
            diffuseColor 0.8274509803921568 0.6666666666666666 0.12941176470588237
            specularColor 0.4117647058823529 0.3333333333333333 0.06666666666666667
            ambientIntensity 0.2
            transparency 0
            shininess 0.5
        }
    }
    geometry IndexedFaceSet {
        ccw TRUE
        solid FALSE
        coord DEF co Coordinate {
            point [
                -0.2029 0.315 -0.1181, -0.2029 -0.315 -0.1181, -0.2138 0.315 -0.1191, -0.2138 -0.315 -0.1191, -0.2244 0.315 -0.1221, -0.2244 -0.315 -0.1221, -0.246 0.315 -0.1306, -0.246 -0.315 -0.1306, -0.2924 -0.315 -0.1454, -0.2924 0.315 -0.1454, -0.3403 -0.315 -0.1545, -0.3403 0.315 -0.1545, -0.389 -0.315 -0.1575, -0.389 0.315 -0.1575, -0.6299 0.2992 -0.1575, -0.6299 -0.2992 -0.1575, -0.6142 -0.315 -0.1575, -0.6182 -0.3144 -0.1575, -0.6294 -0.3033 -0.1575, -0.6294 0.3033 -0.1575, -0.6182 0.3144 -0.1575, -0.6142 0.315 -0.1575, -0.6278 0.3071 -0.1575, -0.6253 0.3103 -0.1575, -0.622 0.3129 -0.1575, -0.6278 -0.3071 -0.1575, -0.622 -0.3129 -0.1575, -0.6253 -0.3103 -0.1575, -0.6299 0.2992 -0.0394, -0.6299 -0.2992 -0.0394, -0.3742 0.315 -0.0394, -0.3742 -0.315 -0.0394, -0.3378 0.315 -0.036, -0.3378 -0.315 -0.036, -0.3027 0.315 -0.0259, -0.3027 -0.315 -0.0259, -0.2569 0.315 -0.0081, -0.2569 -0.315 -0.0081, -0.2358 -0.315 -0.002, -0.2358 0.315 -0.002, -0.214 -0.315 0.0, -0.214 0.315 0.0, -0.214 0.315 0.0
            ]
        }
        coordIndex [
            0,1,2,-1,2,1,3,-1,2,3,4,-1,4,3,5,-1,6,4,7,-1,7,4,5,-1,6,7,8,-1,6,8,9,-1,9,8,10,-1,9,10,11,-1,11,10,12,-1,11,12,13,-1,14,13,15,-1,15,13,12,-1,12,16,15,-1,15,16,17,-1,15,17,18,-1,19,20,14,-1,14,20,21,-1,14,21,13,-1,19,22,20,-1,20,22,23,-1,20,23,24,-1,18,17,25,-1,25,17,26,-1,25,26,27,-1,14,15,28,-1,28,15,29,-1,30,31,32,-1,32,31,33,-1,32,33,34,-1,34,33,35,-1,36,34,37,-1,37,34,35,-1,36,37,38,-1,36,38,39,-1,39,38,40,-1,39,40,41,-1,
        ]
    }
}
Shape{
    appearance Appearance {
        material  Material 	{
            diffuseColor 1.0 1.0 1.0
            specularColor 0.5019607843137255 0.5019607843137255 0.5019607843137255
            ambientIntensity 0.2
            transparency 0
            shininess 0.5
        }
    }
    geometry IndexedFaceSet {
        ccw TRUE
        solid FALSE
        coord DEF co Coordinate {
            point [
                0.214 -0.315 0.0, 0.214 0.315 0.0, 0.2029 -0.315 0.0, 0.2029 0.315 0.0, -0.214 -0.315 0.0, -0.214 0.315 0.0, -0.214 0.315 0.0
            ]
        }
        coordIndex [
            0,1,2,-1,2,1,3,-1,2,3,4,-1,4,3,5,-1,
        ]
    }
}
Shape{
    appearance Appearance {
        material  Material 	{
            diffuseColor 0.8274509803921568 0.6666666666666666 0.12941176470588237
            specularColor 0.4117647058823529 0.3333333333333333 0.06666666666666667
            ambientIntensity 0.2
            transparency 0
            shininess 0.5
        }
    }
    geometry IndexedFaceSet {
        ccw TRUE
        solid FALSE
        coord DEF co Coordinate {
            point [
                0.214 0.315 0.0, 0.214 -0.315 0.0, 0.2358 -0.315 -0.002, 0.2358 0.315 -0.002, 0.2569 -0.315 -0.0081, 0.2569 0.315 -0.0081, 0.3027 0.315 -0.0259, 0.3027 -0.315 -0.0259, 0.3027 -0.315 -0.0259
            ]
        }
        coordIndex [
            0,1,2,-1,0,2,3,-1,3,2,4,-1,3,4,5,-1,6,5,7,-1,7,5,4,-1,
        ]
    }
}
Shape{
    appearance Appearance {
        material  Material 	{
            diffuseColor 1.0 1.0 1.0
            specularColor 0.5019607843137255 0.5019607843137255 0.5019607843137255
            ambientIntensity 0.2
            transparency 0
            shininess 0.5
        }
    }
    geometry IndexedFaceSet {
        ccw TRUE
        solid FALSE
        coord DEF co Coordinate {
            point [
                -0.214 0.315 -0.1181, -0.214 0.315 0.0, -0.2029 0.315 -0.1181, 0.2029 0.315 0.0, 0.2029 0.315 -0.1181, 0.2029 -0.315 -0.1181, 0.2029 -0.315 0.0, -0.2029 -0.315 -0.1181, -0.214 -0.315 0.0, -0.214 -0.315 -0.1181, -0.214 -0.315 -0.1181
            ]
        }
        coordIndex [
            0,1,2,-1,2,1,3,-1,2,3,4,-1,5,6,7,-1,7,6,8,-1,7,8,9,-1,
        ]
    }
}
Shape{
    appearance Appearance {
        material  Material 	{
            diffuseColor 0.8274509803921568 0.6666666666666666 0.12941176470588237
            specularColor 0.4117647058823529 0.3333333333333333 0.06666666666666667
            ambientIntensity 0.2
            transparency 0
            shininess 0.5
        }
    }
    geometry IndexedFaceSet {
        ccw TRUE
        solid FALSE
        coord DEF co Coordinate {
            point [
                0.6142 -0.315 -0.0394, 0.6142 -0.315 -0.1575, 0.6182 -0.3144 -0.1575, 0.6182 -0.3144 -0.0394, 0.622 -0.3129 -0.1575, 0.622 -0.3129 -0.0394, 0.6253 -0.3103 -0.1575, 0.6253 -0.3103 -0.0394, 0.6278 -0.3071 -0.1575, 0.6278 -0.3071 -0.0394, 0.6294 -0.3033 -0.1575, 0.6294 -0.3033 -0.0394, 0.6299 -0.2992 -0.1575, 0.6299 -0.2992 -0.0394, -0.6142 0.315 -0.0394, -0.6142 0.315 -0.1575, -0.6182 0.3144 -0.1575, -0.6182 0.3144 -0.0394, -0.622 0.3129 -0.1575, -0.622 0.3129 -0.0394, -0.6253 0.3103 -0.1575, -0.6253 0.3103 -0.0394, -0.6278 0.3071 -0.1575, -0.6278 0.3071 -0.0394, -0.6294 0.3033 -0.1575, -0.6294 0.3033 -0.0394, -0.6299 0.2992 -0.1575, -0.6299 0.2992 -0.0394, -0.6142 -0.315 -0.1575, -0.6142 -0.315 -0.0394, -0.6182 -0.3144 -0.0394, -0.6182 -0.3144 -0.1575, -0.622 -0.3129 -0.0394, -0.622 -0.3129 -0.1575, -0.6253 -0.3103 -0.0394, -0.6253 -0.3103 -0.1575, -0.6278 -0.3071 -0.0394, -0.6278 -0.3071 -0.1575, -0.6294 -0.3033 -0.0394, -0.6294 -0.3033 -0.1575, -0.6299 -0.2992 -0.0394, -0.6299 -0.2992 -0.1575, 0.6142 0.315 -0.1575, 0.6142 0.315 -0.0394, 0.6182 0.3144 -0.0394, 0.6182 0.3144 -0.1575, 0.622 0.3129 -0.0394, 0.622 0.3129 -0.1575, 0.6253 0.3103 -0.0394, 0.6253 0.3103 -0.1575, 0.6278 0.3071 -0.0394, 0.6278 0.3071 -0.1575, 0.6294 0.3033 -0.0394, 0.6294 0.3033 -0.1575, 0.6299 0.2992 -0.0394, 0.6299 0.2992 -0.1575, 0.6299 0.2992 -0.1575
            ]
        }
        coordIndex [
            0,1,2,-1,0,2,3,-1,3,2,4,-1,3,4,5,-1,5,4,6,-1,5,6,7,-1,7,6,8,-1,7,8,9,-1,9,8,10,-1,9,10,11,-1,11,10,12,-1,11,12,13,-1,14,15,16,-1,14,16,17,-1,17,16,18,-1,17,18,19,-1,19,18,20,-1,19,20,21,-1,21,20,22,-1,21,22,23,-1,23,22,24,-1,23,24,25,-1,25,24,26,-1,25,26,27,-1,28,29,30,-1,28,30,31,-1,31,30,32,-1,31,32,33,-1,33,32,34,-1,33,34,35,-1,35,34,36,-1,35,36,37,-1,37,36,38,-1,37,38,39,-1,39,38,40,-1,39,40,41,-1,42,43,44,-1,42,44,45,-1,45,44,46,-1,45,46,47,-1,47,46,48,-1,47,48,49,-1,49,48,50,-1,49,50,51,-1,51,50,52,-1,51,52,53,-1,53,52,54,-1,53,54,55,-1,
        ]
    }
}
Shape{
    appearance Appearance {
        material  Material 	{
            diffuseColor 0.07058823529411765 0.07058823529411765 0.07058823529411765
            specularColor 0.00392156862745098 0.00392156862745098 0.00392156862745098
            ambientIntensity 0.2
            transparency 0
            shininess 0.5
        }
    }
    geometry IndexedFaceSet {
        ccw TRUE
        solid FALSE
        coord DEF co Coordinate {
            point [
                -0.5144 -0.014 -0.0354, -0.5169 -0.014 -0.0354, -0.5144 -0.014 -0.0394, -0.5169 -0.014 -0.0394, -0.5144 -0.0055 -0.0354, -0.5144 -0.0055 -0.0394, -0.4955 -0.0055 -0.0354, -0.4955 -0.0055 -0.0394, -0.4955 -0.0027 -0.0354, -0.4955 -0.0027 -0.0394, -0.5169 -0.0027 -0.0354, -0.5169 -0.0027 -0.0394, -0.516 -0.0308 -0.0394, -0.516 -0.0308 -0.0354, -0.5162 -0.0305 -0.0354, -0.5172 -0.0249 -0.0354, -0.5172 -0.0249 -0.0394, -0.5169 -0.0282 -0.0394, -0.5169 -0.0282 -0.0354, -0.5164 -0.0299 -0.0394, -0.5162 -0.0305 -0.0394, -0.5133 -0.0308 -0.0354, -0.5133 -0.0308 -0.0394, -0.5138 -0.0299 -0.0394, -0.5142 -0.0291 -0.0354, -0.5142 -0.0291 -0.0394, -0.5147 -0.0267 -0.0394, -0.5147 -0.0267 -0.0354, -0.5148 -0.0253 -0.0394, -0.5148 -0.0253 -0.0354, -0.5146 -0.0234 -0.0394, -0.5146 -0.0234 -0.0354, -0.514 -0.0218 -0.0394, -0.514 -0.0218 -0.0354, -0.5131 -0.0204 -0.0394, -0.5131 -0.0204 -0.0354, -0.5125 -0.0198 -0.0394, -0.5125 -0.0198 -0.0354, -0.5111 -0.0188 -0.0394, -0.5111 -0.0188 -0.0354, -0.5094 -0.0181 -0.0394, -0.5094 -0.0181 -0.0354, -0.5073 -0.0178 -0.0394, -0.5073 -0.0178 -0.0354, -0.5064 -0.0178 -0.0394, -0.5064 -0.0178 -0.0354, -0.5035 -0.0181 -0.0394, -0.5035 -0.0181 -0.0354, -0.5017 -0.0188 -0.0394, -0.5017 -0.0188 -0.0354, -0.5002 -0.0198 -0.0394, -0.5002 -0.0198 -0.0354, -0.5 -0.02 -0.0394, -0.5 -0.02 -0.0354, -0.4989 -0.0214 -0.0394, -0.4989 -0.0214 -0.0354, -0.4981 -0.023 -0.0394, -0.4981 -0.023 -0.0354, -0.4977 -0.0249 -0.0394, -0.4977 -0.0249 -0.0354, -0.4977 -0.0258 -0.0394, -0.4977 -0.0258 -0.0354, -0.4989 -0.0308 -0.0394, -0.4989 -0.0308 -0.0354, -0.4988 -0.0306 -0.0354, -0.498 -0.0284 -0.0394, -0.498 -0.0284 -0.0354, -0.4985 -0.0299 -0.0394, -0.4988 -0.0306 -0.0394, -0.496 -0.0308 -0.0354, -0.496 -0.0308 -0.0394, -0.4958 -0.0299 -0.0394, -0.4954 -0.0286 -0.0354, -0.4952 -0.0258 -0.0394, -0.4952 -0.0258 -0.0354, -0.4953 -0.0281 -0.0394, -0.4954 -0.0286 -0.0394, -0.4953 -0.0243 -0.0394, -0.4955 -0.0227 -0.0354, -0.4955 -0.0227 -0.0394, -0.4964 -0.0205 -0.0394, -0.4964 -0.0205 -0.0354, -0.4979 -0.0184 -0.0394, -0.4979 -0.0184 -0.0354, -0.4983 -0.0179 -0.0394, -0.4983 -0.0179 -0.0354, -0.5003 -0.0164 -0.0394, -0.5003 -0.0164 -0.0354, -0.5017 -0.0158 -0.0394, -0.5027 -0.0154 -0.0354, -0.5027 -0.0154 -0.0394, -0.5055 -0.0149 -0.0394, -0.5055 -0.0149 -0.0354, -0.5066 -0.0149 -0.0394, -0.5066 -0.0149 -0.0354, -0.5101 -0.0153 -0.0394, -0.5101 -0.0153 -0.0354, -0.5114 -0.0158 -0.0394, -0.5123 -0.0161 -0.0354, -0.5123 -0.0161 -0.0394, -0.5141 -0.0174 -0.0394, -0.5141 -0.0174 -0.0354, -0.5143 -0.0176 -0.0394, -0.5143 -0.0176 -0.0354, -0.5156 -0.0191 -0.0394, -0.5156 -0.0191 -0.0354, -0.5166 -0.0211 -0.0394, -0.5166 -0.0211 -0.0354, -0.5171 -0.0233 -0.0394, -0.5171 -0.0233 -0.0354, -0.5144 -0.0466 -0.0354, -0.5169 -0.0466 -0.0354, -0.5144 -0.0466 -0.0394, -0.5169 -0.0466 -0.0394, -0.5144 -0.0379 -0.0394, -0.5144 -0.0379 -0.0354, -0.5144 -0.0436 -0.0394, -0.5073 -0.0379 -0.0354, -0.5073 -0.0379 -0.0394, -0.5073 -0.0455 -0.0394, -0.5073 -0.0455 -0.0354, -0.5073 -0.0436 -0.0394, -0.5048 -0.0455 -0.0354, -0.5048 -0.0455 -0.0394, -0.5048 -0.0379 -0.0394, -0.5048 -0.0379 -0.0354, -0.5048 -0.0436 -0.0394, -0.498 -0.0379 -0.0354, -0.498 -0.0379 -0.0394, -0.498 -0.0461 -0.0354, -0.498 -0.0436 -0.0394, -0.498 -0.0461 -0.0394, -0.4955 -0.0461 -0.0354, -0.4955 -0.0461 -0.0394, -0.4955 -0.0351 -0.0394, -0.4955 -0.0351 -0.0354, -0.4955 -0.0436 -0.0394, -0.5169 -0.0351 -0.0354, -0.5169 -0.0351 -0.0394, -0.5169 -0.0436 -0.0394, -0.5109 -0.0639 -0.0354, -0.5122 -0.0628 -0.0354, -0.5139 -0.0648 -0.0354, -0.5125 -0.0626 -0.0354, -0.5155 -0.0626 -0.0354, -0.5134 -0.0612 -0.0354, -0.5164 -0.0601 -0.0354, -0.5141 -0.0594 -0.0354, -0.5169 -0.0565 -0.0354, -0.5144 -0.0565 -0.0354, -0.5169 -0.0506 -0.0354, -0.5144 -0.0534 -0.0354, -0.4955 -0.0506 -0.0354, -0.498 -0.0534 -0.0354, -0.4955 -0.0567 -0.0354, -0.498 -0.0566 -0.0354, -0.4959 -0.06 -0.0354, -0.4983 -0.0595 -0.0354, -0.4968 -0.0626 -0.0354, -0.499 -0.0613 -0.0354, -0.4984 -0.0648 -0.0354, -0.5 -0.0628 -0.0354, -0.4991 -0.0656 -0.0354, -0.5006 -0.0634 -0.0354, -0.501 -0.0669 -0.0354, -0.5018 -0.0642 -0.0354, -0.503 -0.0677 -0.0354, -0.5033 -0.0648 -0.0354, -0.5059 -0.068 -0.0354, -0.506 -0.0651 -0.0354, -0.5073 -0.068 -0.0354, -0.5074 -0.0651 -0.0354, -0.5098 -0.0674 -0.0354, -0.5093 -0.0646 -0.0354, -0.512 -0.0664 -0.0354, -0.5169 -0.0565 -0.0394, -0.5169 -0.0506 -0.0394, -0.5164 -0.0601 -0.0394, -0.5155 -0.0626 -0.0394, -0.5139 -0.0648 -0.0394, -0.512 -0.0664 -0.0394, -0.5098 -0.0674 -0.0394, -0.5073 -0.068 -0.0394, -0.5059 -0.068 -0.0394, -0.503 -0.0677 -0.0394, -0.501 -0.0669 -0.0394, -0.4991 -0.0656 -0.0394, -0.4984 -0.0648 -0.0394, -0.4968 -0.0626 -0.0394, -0.4959 -0.06 -0.0394, -0.4955 -0.0567 -0.0394, -0.4955 -0.0506 -0.0394, -0.498 -0.0566 -0.0394, -0.498 -0.0534 -0.0394, -0.5144 -0.0534 -0.0394, -0.5144 -0.0565 -0.0394, -0.5122 -0.0628 -0.0394, -0.5125 -0.0626 -0.0394, -0.5134 -0.0612 -0.0394, -0.5141 -0.0594 -0.0394, -0.506 -0.0651 -0.0394, -0.5074 -0.0651 -0.0394, -0.5093 -0.0646 -0.0394, -0.5109 -0.0639 -0.0394, -0.5 -0.0628 -0.0394, -0.5006 -0.0634 -0.0394, -0.5018 -0.0642 -0.0394, -0.5033 -0.0648 -0.0394, -0.4983 -0.0595 -0.0394, -0.499 -0.0613 -0.0394, -0.499 -0.0613 -0.0394
            ]
        }
        coordIndex [
            0,1,2,-1,2,1,3,-1,4,0,5,-1,5,0,2,-1,6,4,7,-1,7,4,5,-1,8,6,9,-1,9,6,7,-1,10,8,11,-1,11,8,9,-1,1,10,3,-1,3,10,11,-1,6,8,4,-1,4,8,10,-1,4,10,0,-1,0,10,1,-1,12,13,14,-1,15,16,17,-1,15,17,18,-1,18,17,19,-1,18,19,14,-1,14,19,20,-1,14,20,12,-1,21,13,22,-1,22,13,12,-1,22,23,21,-1,21,23,24,-1,23,25,24,-1,24,25,26,-1,24,26,27,-1,27,26,28,-1,27,28,29,-1,29,28,30,-1,29,30,31,-1,31,30,32,-1,31,32,33,-1,33,32,34,-1,33,34,35,-1,35,34,36,-1,35,36,37,-1,37,36,38,-1,37,38,39,-1,39,38,40,-1,39,40,41,-1,41,40,42,-1,41,42,43,-1,43,42,44,-1,43,44,45,-1,45,44,46,-1,45,46,47,-1,47,46,48,-1,47,48,49,-1,49,48,50,-1,49,50,51,-1,51,50,52,-1,51,52,53,-1,53,52,54,-1,53,54,55,-1,55,54,56,-1,55,56,57,-1,57,56,58,-1,57,58,59,-1,59,58,60,-1,59,60,61,-1,62,63,64,-1,61,60,65,-1,61,65,66,-1,66,65,67,-1,66,67,64,-1,64,67,68,-1,64,68,62,-1,69,63,70,-1,70,63,62,-1,69,70,71,-1,69,71,72,-1,73,74,75,-1,75,74,72,-1,75,72,76,-1,76,72,71,-1,74,73,77,-1,74,77,78,-1,77,79,78,-1,78,79,80,-1,78,80,81,-1,81,80,82,-1,81,82,83,-1,83,82,84,-1,83,84,85,-1,85,84,86,-1,85,86,87,-1,87,86,88,-1,87,88,89,-1,88,90,89,-1,89,90,91,-1,89,91,92,-1,92,91,93,-1,92,93,94,-1,94,93,95,-1,94,95,96,-1,96,95,97,-1,96,97,98,-1,97,99,98,-1,98,99,100,-1,98,100,101,-1,101,100,102,-1,101,102,103,-1,103,102,104,-1,103,104,105,-1,105,104,106,-1,105,106,107,-1,107,106,108,-1,107,108,109,-1,109,108,16,-1,109,16,15,-1,47,49,87,-1,55,57,78,-1,87,49,85,-1,78,57,74,-1,78,81,55,-1,55,81,83,-1,55,83,53,-1,53,83,85,-1,53,85,51,-1,51,85,49,-1,57,59,74,-1,74,59,61,-1,74,61,72,-1,72,61,66,-1,72,66,69,-1,69,66,64,-1,69,64,63,-1,94,45,92,-1,92,45,47,-1,92,47,89,-1,89,47,87,-1,13,21,14,-1,14,21,24,-1,14,24,18,-1,18,24,27,-1,18,27,15,-1,15,27,29,-1,15,29,109,-1,109,29,31,-1,109,31,107,-1,107,31,33,-1,107,33,105,-1,105,33,35,-1,105,35,103,-1,103,35,37,-1,103,37,101,-1,101,37,39,-1,101,39,98,-1,98,39,96,-1,96,39,41,-1,96,41,94,-1,94,41,43,-1,94,43,45,-1,110,111,112,-1,112,111,113,-1,114,115,116,-1,116,115,110,-1,116,110,112,-1,117,115,118,-1,118,115,114,-1,119,120,121,-1,121,120,117,-1,121,117,118,-1,122,120,123,-1,123,120,119,-1,124,125,126,-1,126,125,122,-1,126,122,123,-1,127,125,128,-1,128,125,124,-1,127,128,129,-1,129,128,130,-1,129,130,131,-1,132,129,133,-1,133,129,131,-1,134,135,136,-1,136,135,132,-1,136,132,133,-1,137,135,138,-1,138,135,134,-1,137,138,111,-1,111,138,139,-1,111,139,113,-1,120,122,117,-1,117,122,125,-1,111,110,137,-1,137,110,115,-1,129,132,127,-1,127,132,135,-1,127,135,125,-1,125,135,137,-1,125,137,117,-1,117,137,115,-1,140,141,142,-1,142,141,143,-1,142,143,144,-1,144,143,145,-1,144,145,146,-1,146,145,147,-1,146,147,148,-1,148,147,149,-1,148,149,150,-1,150,149,151,-1,150,151,152,-1,152,151,153,-1,152,153,154,-1,154,153,155,-1,154,155,156,-1,156,155,157,-1,156,157,158,-1,158,157,159,-1,158,159,160,-1,160,159,161,-1,160,161,162,-1,162,161,163,-1,162,163,164,-1,164,163,165,-1,164,165,166,-1,166,165,167,-1,166,167,168,-1,168,167,169,-1,168,169,170,-1,170,169,171,-1,170,171,172,-1,172,171,173,-1,172,173,174,-1,174,173,140,-1,174,140,142,-1,148,150,175,-1,175,150,176,-1,148,175,177,-1,148,177,146,-1,146,177,178,-1,146,178,144,-1,144,178,179,-1,144,179,142,-1,142,179,180,-1,142,180,174,-1,174,180,181,-1,174,181,172,-1,172,181,182,-1,172,182,170,-1,170,182,183,-1,170,183,168,-1,168,183,184,-1,168,184,166,-1,166,184,185,-1,166,185,164,-1,164,185,186,-1,164,186,162,-1,162,186,187,-1,162,187,160,-1,160,187,188,-1,160,188,158,-1,158,188,189,-1,158,189,156,-1,156,189,190,-1,156,190,154,-1,152,154,191,-1,191,154,190,-1,150,152,176,-1,176,152,191,-1,155,153,192,-1,192,153,193,-1,153,151,193,-1,193,151,194,-1,151,149,194,-1,194,149,195,-1,141,196,197,-1,141,197,143,-1,143,197,198,-1,143,198,145,-1,145,198,199,-1,145,199,147,-1,147,199,195,-1,147,195,149,-1,169,200,201,-1,169,201,171,-1,171,201,202,-1,171,202,173,-1,173,202,203,-1,173,203,140,-1,140,203,196,-1,140,196,141,-1,161,204,205,-1,161,205,163,-1,163,205,206,-1,163,206,165,-1,165,206,207,-1,165,207,167,-1,167,207,200,-1,167,200,169,-1,155,192,208,-1,155,208,157,-1,157,208,209,-1,157,209,159,-1,159,209,204,-1,159,204,161,-1,
        ]
    }
}
Shape{
    appearance Appearance {
        material  Material 	{
            diffuseColor 0.8274509803921568 0.6666666666666666 0.12941176470588237
            specularColor 0.4117647058823529 0.3333333333333333 0.06666666666666667
            ambientIntensity 0.2
            transparency 0
            shininess 0.5
        }
    }
    geometry IndexedFaceSet {
        ccw TRUE
        solid FALSE
        coord DEF co Coordinate {
            point [
                -0.498 -0.0534 -0.0394, -0.5144 -0.0534 -0.0394, -0.498 -0.0566 -0.0394, -0.5144 -0.0565 -0.0394, -0.5141 -0.0594 -0.0394, -0.5134 -0.0612 -0.0394, -0.5125 -0.0626 -0.0394, -0.5122 -0.0628 -0.0394, -0.5109 -0.0639 -0.0394, -0.5093 -0.0646 -0.0394, -0.506 -0.0651 -0.0394, -0.5 -0.0628 -0.0394, -0.499 -0.0613 -0.0394, -0.5033 -0.0648 -0.0394, -0.5018 -0.0642 -0.0394, -0.5006 -0.0634 -0.0394, -0.5074 -0.0651 -0.0394, -0.4983 -0.0595 -0.0394, -0.4983 -0.0595 -0.0394
            ]
        }
        coordIndex [
            0,1,2,-1,2,1,3,-1,3,4,2,-1,2,4,5,-1,2,5,6,-1,6,7,2,-1,2,7,8,-1,2,8,9,-1,10,11,12,-1,13,14,10,-1,10,14,15,-1,10,15,11,-1,9,16,2,-1,2,16,10,-1,2,10,17,-1,17,10,12,-1,
        ]
    }
}
Shape{
    appearance Appearance {
        material  Material 	{
            diffuseColor 0.07058823529411765 0.07058823529411765 0.07058823529411765
            specularColor 0.00392156862745098 0.00392156862745098 0.00392156862745098
            ambientIntensity 0.2
            transparency 0
            shininess 0.5
        }
    }
    geometry IndexedFaceSet {
        ccw TRUE
        solid FALSE
        coord DEF co Coordinate {
            point [
                -0.5086 -0.0752 -0.0354, -0.4997 -0.0784 -0.0354, -0.4955 -0.0773 -0.0354, -0.5169 -0.0692 -0.0354, -0.5169 -0.0723 -0.0354, -0.511 -0.0743 -0.0354, -0.4991 -0.0786 -0.0354, -0.4983 -0.0787 -0.0354, -0.4955 -0.0803 -0.0354, -0.4983 -0.0788 -0.0354, -0.4992 -0.079 -0.0354, -0.4997 -0.0791 -0.0354, -0.5086 -0.0823 -0.0354, -0.5169 -0.0884 -0.0354, -0.5169 -0.0854 -0.0354, -0.511 -0.0832 -0.0354, -0.4955 -0.0803 -0.0394, -0.5169 -0.0884 -0.0394, -0.4955 -0.0773 -0.0394, -0.5169 -0.0692 -0.0394, -0.5007 -0.0754 -0.0394, -0.5169 -0.0723 -0.0394, -0.511 -0.0743 -0.0394, -0.511 -0.0832 -0.0394, -0.511 -0.0754 -0.0394, -0.5169 -0.0854 -0.0394, -0.5086 -0.0752 -0.0394, -0.5086 -0.0823 -0.0394, -0.4997 -0.0791 -0.0394, -0.4983 -0.0788 -0.0394, -0.4992 -0.079 -0.0394, -0.4983 -0.0787 -0.0394, -0.4997 -0.0784 -0.0394, -0.4991 -0.0786 -0.0394, -0.4991 -0.0786 -0.0394
            ]
        }
        coordIndex [
            0,1,2,-1,3,4,5,-1,1,6,2,-1,2,6,7,-1,2,7,8,-1,8,7,9,-1,8,9,10,-1,10,11,8,-1,8,11,12,-1,8,12,13,-1,14,13,15,-1,15,13,12,-1,15,12,5,-1,5,12,0,-1,5,0,3,-1,3,0,2,-1,8,13,16,-1,16,13,17,-1,2,8,18,-1,18,8,16,-1,19,3,20,-1,20,3,2,-1,20,2,18,-1,4,3,21,-1,21,3,19,-1,5,4,22,-1,22,4,21,-1,23,15,24,-1,24,15,5,-1,24,5,22,-1,14,15,25,-1,25,15,23,-1,13,14,17,-1,17,14,25,-1,0,12,26,-1,26,12,27,-1,12,11,27,-1,27,11,28,-1,9,29,30,-1,9,30,10,-1,10,30,28,-1,10,28,11,-1,9,7,29,-1,29,7,31,-1,1,32,33,-1,1,33,6,-1,6,33,31,-1,6,31,7,-1,1,0,32,-1,32,0,26,-1,
        ]
    }
}
Shape{
    appearance Appearance {
        material  Material 	{
            diffuseColor 0.8274509803921568 0.6666666666666666 0.12941176470588237
            specularColor 0.4117647058823529 0.3333333333333333 0.06666666666666667
            ambientIntensity 0.2
            transparency 0
            shininess 0.5
        }
    }
    geometry IndexedFaceSet {
        ccw TRUE
        solid FALSE
        coord DEF co Coordinate {
            point [
                -0.4983 -0.0788 -0.0394, -0.4983 -0.0787 -0.0394, -0.4992 -0.079 -0.0394, -0.4991 -0.0786 -0.0394, -0.4997 -0.0791 -0.0394, -0.4997 -0.0784 -0.0394, -0.5086 -0.0823 -0.0394, -0.5086 -0.0752 -0.0394, -0.5086 -0.0752 -0.0394
            ]
        }
        coordIndex [
            0,1,2,-1,2,1,3,-1,2,3,4,-1,4,3,5,-1,4,5,6,-1,6,5,7,-1,
        ]
    }
}
Shape{
    appearance Appearance {
        material  Material 	{
            diffuseColor 0.07058823529411765 0.07058823529411765 0.07058823529411765
            specularColor 0.00392156862745098 0.00392156862745098 0.00392156862745098
            ambientIntensity 0.2
            transparency 0
            shininess 0.5
        }
    }
    geometry IndexedFaceSet {
        ccw TRUE
        solid FALSE
        coord DEF co Coordinate {
            point [
                -0.5483 -0.0142 -0.0354, -0.5507 -0.0142 -0.0354, -0.5483 -0.0142 -0.0394, -0.5507 -0.0142 -0.0394, -0.5483 -0.0055 -0.0354, -0.5483 -0.0055 -0.0394, -0.5411 -0.0055 -0.0354, -0.5411 -0.0055 -0.0394, -0.5411 -0.0131 -0.0354, -0.5411 -0.0131 -0.0394, -0.5387 -0.0131 -0.0354, -0.5387 -0.0131 -0.0394, -0.5387 -0.0055 -0.0354, -0.5387 -0.0055 -0.0394, -0.5319 -0.0055 -0.0354, -0.5319 -0.0055 -0.0394, -0.5319 -0.0137 -0.0354, -0.5319 -0.0137 -0.0394, -0.5294 -0.0137 -0.0354, -0.5294 -0.0137 -0.0394, -0.5294 -0.0027 -0.0354, -0.5294 -0.0027 -0.0394, -0.5507 -0.0027 -0.0354, -0.5507 -0.0027 -0.0394, -0.5507 -0.0263 -0.0354, -0.5507 -0.029 -0.0354, -0.5484 -0.0263 -0.0354, -0.5409 -0.029 -0.0354, -0.5411 -0.0263 -0.0354, -0.5443 -0.0205 -0.0354, -0.544 -0.0212 -0.0354, -0.5484 -0.0263 -0.0354, -0.548 -0.0249 -0.0354, -0.549 -0.0258 -0.0354, -0.5485 -0.0241 -0.0354, -0.5436 -0.0228 -0.0354, -0.5431 -0.0263 -0.0354, -0.5446 -0.0263 -0.0354, -0.5447 -0.0263 -0.0354, -0.5459 -0.0262 -0.0354, -0.5469 -0.0258 -0.0354, -0.5477 -0.0252 -0.0354, -0.5399 -0.0263 -0.0354, -0.5389 -0.0288 -0.0354, -0.5389 -0.026 -0.0354, -0.5377 -0.0284 -0.0354, -0.5384 -0.0257 -0.0354, -0.5368 -0.0278 -0.0354, -0.5379 -0.0253 -0.0354, -0.5361 -0.0271 -0.0354, -0.5376 -0.0248 -0.0354, -0.5356 -0.0262 -0.0354, -0.5374 -0.0242 -0.0354, -0.5353 -0.0251 -0.0354, -0.5373 -0.0233 -0.0354, -0.5351 -0.0235 -0.0354, -0.5375 -0.0216 -0.0354, -0.5355 -0.0208 -0.0354, -0.5381 -0.0199 -0.0354, -0.5362 -0.0188 -0.0354, -0.5392 -0.0183 -0.0354, -0.5366 -0.0183 -0.0354, -0.548 -0.02 -0.0354, -0.5499 -0.0181 -0.0354, -0.5482 -0.0203 -0.0354, -0.5505 -0.019 -0.0354, -0.5486 -0.0208 -0.0354, -0.5509 -0.02 -0.0354, -0.5488 -0.0214 -0.0354, -0.5511 -0.0216 -0.0354, -0.5489 -0.0223 -0.0354, -0.551 -0.023 -0.0354, -0.5488 -0.0233 -0.0354, -0.5506 -0.0241 -0.0354, -0.5499 -0.025 -0.0354, -0.546 -0.0195 -0.0354, -0.5463 -0.0168 -0.0354, -0.5464 -0.0195 -0.0354, -0.5467 -0.0168 -0.0354, -0.5471 -0.0196 -0.0354, -0.5479 -0.0169 -0.0354, -0.5475 -0.0197 -0.0354, -0.5488 -0.0172 -0.0354, -0.5496 -0.0178 -0.0354, -0.5417 -0.0218 -0.0354, -0.5422 -0.0198 -0.0354, -0.5445 -0.0202 -0.0354, -0.5428 -0.0187 -0.0354, -0.5449 -0.0199 -0.0354, -0.5435 -0.0179 -0.0354, -0.5454 -0.0196 -0.0354, -0.5442 -0.0173 -0.0354, -0.5452 -0.017 -0.0354, -0.5351 -0.0235 -0.0394, -0.5355 -0.0208 -0.0394, -0.5362 -0.0188 -0.0394, -0.5366 -0.0183 -0.0394, -0.5392 -0.0183 -0.0394, -0.5381 -0.0199 -0.0394, -0.5375 -0.0216 -0.0394, -0.5373 -0.0233 -0.0394, -0.5374 -0.0242 -0.0394, -0.5376 -0.0248 -0.0394, -0.5379 -0.0253 -0.0394, -0.5384 -0.0257 -0.0394, -0.5389 -0.026 -0.0394, -0.5399 -0.0263 -0.0394, -0.5411 -0.0263 -0.0394, -0.5417 -0.0218 -0.0394, -0.5422 -0.0198 -0.0394, -0.5428 -0.0187 -0.0394, -0.5435 -0.0179 -0.0394, -0.5442 -0.0173 -0.0394, -0.5452 -0.017 -0.0394, -0.5463 -0.0168 -0.0394, -0.5467 -0.0168 -0.0394, -0.5479 -0.0169 -0.0394, -0.5488 -0.0172 -0.0394, -0.5496 -0.0178 -0.0394, -0.5499 -0.0181 -0.0394, -0.5511 -0.0216 -0.0394, -0.5509 -0.0201 -0.0394, -0.5509 -0.02 -0.0394, -0.5505 -0.019 -0.0394, -0.551 -0.023 -0.0394, -0.5509 -0.0231 -0.0394, -0.5506 -0.0241 -0.0394, -0.5499 -0.025 -0.0394, -0.549 -0.0258 -0.0394, -0.5484 -0.0263 -0.0394, -0.5484 -0.0263 -0.0394, -0.5507 -0.0263 -0.0394, -0.5507 -0.029 -0.0394, -0.5409 -0.029 -0.0394, -0.5389 -0.0288 -0.0394, -0.5377 -0.0284 -0.0394, -0.5368 -0.0278 -0.0394, -0.5361 -0.0271 -0.0394, -0.5356 -0.0262 -0.0394, -0.5353 -0.0251 -0.0394, -0.5445 -0.0202 -0.0394, -0.5443 -0.0205 -0.0394, -0.544 -0.0212 -0.0394, -0.5436 -0.0228 -0.0394, -0.5464 -0.0195 -0.0394, -0.546 -0.0195 -0.0394, -0.5454 -0.0196 -0.0394, -0.5449 -0.0199 -0.0394, -0.5482 -0.0203 -0.0394, -0.548 -0.02 -0.0394, -0.5475 -0.0197 -0.0394, -0.5471 -0.0196 -0.0394, -0.5489 -0.0223 -0.0394, -0.5488 -0.0214 -0.0394, -0.5486 -0.0208 -0.0394, -0.5477 -0.0252 -0.0394, -0.548 -0.0249 -0.0394, -0.5485 -0.0241 -0.0394, -0.5488 -0.0233 -0.0394, -0.5446 -0.0263 -0.0394, -0.5447 -0.0263 -0.0394, -0.5459 -0.0262 -0.0394, -0.5469 -0.0258 -0.0394, -0.5431 -0.0263 -0.0394, -0.5431 -0.0263 -0.0394
            ]
        }
        coordIndex [
            0,1,2,-1,2,1,3,-1,4,0,5,-1,5,0,2,-1,6,4,7,-1,7,4,5,-1,8,6,9,-1,9,6,7,-1,10,8,11,-1,11,8,9,-1,12,10,13,-1,13,10,11,-1,14,12,15,-1,15,12,13,-1,16,14,17,-1,17,14,15,-1,18,16,19,-1,19,16,17,-1,20,18,21,-1,21,18,19,-1,22,20,23,-1,23,20,21,-1,1,22,3,-1,3,22,23,-1,1,0,22,-1,22,0,4,-1,8,10,6,-1,6,10,12,-1,16,18,14,-1,14,18,20,-1,14,20,12,-1,12,20,22,-1,12,22,6,-1,6,22,4,-1,24,25,26,-1,26,25,27,-1,28,29,30,-1,31,32,33,-1,33,32,34,-1,35,36,27,-1,27,36,37,-1,37,38,27,-1,27,38,39,-1,27,39,26,-1,26,39,40,-1,26,40,31,-1,31,40,41,-1,31,41,32,-1,30,35,28,-1,28,35,27,-1,28,27,42,-1,42,27,43,-1,42,43,44,-1,44,43,45,-1,44,45,46,-1,46,45,47,-1,46,47,48,-1,48,47,49,-1,48,49,50,-1,50,49,51,-1,50,51,52,-1,52,51,53,-1,52,53,54,-1,54,53,55,-1,54,55,56,-1,56,55,57,-1,56,57,58,-1,58,57,59,-1,58,59,60,-1,60,59,61,-1,62,63,64,-1,64,63,65,-1,64,65,66,-1,66,65,67,-1,66,67,68,-1,68,67,69,-1,68,69,70,-1,70,69,71,-1,70,71,72,-1,72,71,73,-1,72,73,34,-1,34,73,74,-1,34,74,33,-1,75,76,77,-1,77,76,78,-1,77,78,79,-1,79,78,80,-1,79,80,81,-1,81,80,82,-1,81,82,62,-1,62,82,83,-1,62,83,63,-1,28,84,29,-1,29,84,85,-1,29,85,86,-1,86,85,87,-1,86,87,88,-1,88,87,89,-1,88,89,90,-1,90,89,91,-1,90,91,75,-1,75,91,92,-1,75,92,76,-1,55,93,94,-1,55,94,57,-1,57,94,95,-1,57,95,59,-1,59,95,96,-1,59,96,61,-1,60,61,97,-1,97,61,96,-1,60,97,98,-1,60,98,58,-1,58,98,99,-1,58,99,56,-1,56,99,100,-1,56,100,54,-1,54,100,101,-1,54,101,52,-1,52,101,102,-1,52,102,50,-1,50,102,103,-1,50,103,48,-1,48,103,104,-1,48,104,46,-1,46,104,105,-1,46,105,44,-1,44,105,106,-1,44,106,42,-1,42,106,107,-1,42,107,28,-1,84,28,108,-1,108,28,107,-1,84,108,109,-1,84,109,85,-1,85,109,110,-1,85,110,87,-1,87,110,111,-1,87,111,89,-1,89,111,112,-1,89,112,91,-1,91,112,113,-1,91,113,92,-1,92,113,114,-1,92,114,76,-1,76,114,115,-1,76,115,78,-1,78,115,116,-1,78,116,80,-1,80,116,117,-1,80,117,82,-1,82,117,118,-1,82,118,83,-1,83,118,119,-1,83,119,63,-1,120,69,121,-1,121,69,67,-1,121,67,122,-1,122,67,65,-1,122,65,123,-1,123,65,63,-1,123,63,119,-1,69,120,124,-1,69,124,71,-1,71,124,125,-1,71,125,73,-1,125,126,73,-1,73,126,127,-1,73,127,74,-1,74,127,128,-1,74,128,33,-1,33,128,129,-1,33,129,31,-1,26,31,130,-1,130,31,129,-1,24,26,131,-1,131,26,130,-1,25,24,132,-1,132,24,131,-1,27,25,133,-1,133,25,132,-1,27,133,134,-1,27,134,43,-1,43,134,135,-1,43,135,45,-1,45,135,136,-1,45,136,47,-1,47,136,137,-1,47,137,49,-1,49,137,138,-1,49,138,51,-1,51,138,139,-1,51,139,53,-1,53,139,93,-1,53,93,55,-1,86,140,141,-1,86,141,29,-1,29,141,142,-1,29,142,30,-1,30,142,143,-1,30,143,35,-1,77,144,145,-1,77,145,75,-1,75,145,146,-1,75,146,90,-1,90,146,147,-1,90,147,88,-1,88,147,140,-1,88,140,86,-1,64,148,149,-1,64,149,62,-1,62,149,150,-1,62,150,81,-1,81,150,151,-1,81,151,79,-1,79,151,144,-1,79,144,77,-1,70,152,153,-1,70,153,68,-1,68,153,154,-1,68,154,66,-1,66,154,148,-1,66,148,64,-1,41,155,156,-1,41,156,32,-1,32,156,157,-1,32,157,34,-1,34,157,158,-1,34,158,72,-1,72,158,152,-1,72,152,70,-1,37,159,160,-1,37,160,38,-1,38,160,161,-1,38,161,39,-1,39,161,162,-1,39,162,40,-1,40,162,155,-1,40,155,41,-1,37,36,159,-1,159,36,163,-1,36,35,163,-1,163,35,143,-1,
        ]
    }
}
Shape{
    appearance Appearance {
        material  Material 	{
            diffuseColor 0.8274509803921568 0.6666666666666666 0.12941176470588237
            specularColor 0.4117647058823529 0.3333333333333333 0.06666666666666667
            ambientIntensity 0.2
            transparency 0
            shininess 0.5
        }
    }
    geometry IndexedFaceSet {
        ccw TRUE
        solid FALSE
        coord DEF co Coordinate {
            point [
                -0.5447 -0.0263 -0.0394, -0.5446 -0.0263 -0.0394, -0.5445 -0.0202 -0.0394, -0.5431 -0.0263 -0.0394, -0.5436 -0.0228 -0.0394, -0.544 -0.0212 -0.0394, -0.5443 -0.0205 -0.0394, -0.5459 -0.0262 -0.0394, -0.5449 -0.0199 -0.0394, -0.5469 -0.0258 -0.0394, -0.548 -0.02 -0.0394, -0.5482 -0.0203 -0.0394, -0.548 -0.0249 -0.0394, -0.5475 -0.0197 -0.0394, -0.5485 -0.0241 -0.0394, -0.5488 -0.0233 -0.0394, -0.5489 -0.0223 -0.0394, -0.5454 -0.0196 -0.0394, -0.546 -0.0195 -0.0394, -0.5477 -0.0252 -0.0394, -0.5464 -0.0195 -0.0394, -0.5471 -0.0196 -0.0394, -0.5486 -0.0208 -0.0394, -0.5488 -0.0214 -0.0394, -0.5488 -0.0214 -0.0394
            ]
        }
        coordIndex [
            0,1,2,-1,1,3,4,-1,4,5,1,-1,1,5,6,-1,1,6,2,-1,0,2,7,-1,7,2,8,-1,7,8,9,-1,10,11,12,-1,10,12,13,-1,14,12,15,-1,15,12,16,-1,8,17,9,-1,9,17,18,-1,9,18,19,-1,19,18,20,-1,19,20,12,-1,12,20,21,-1,12,21,13,-1,11,22,12,-1,12,22,23,-1,12,23,16,-1,
        ]
    }
}
Shape{
    appearance Appearance {
        material  Material 	{
            diffuseColor 0.07058823529411765 0.07058823529411765 0.07058823529411765
            specularColor 0.00392156862745098 0.00392156862745098 0.00392156862745098
            ambientIntensity 0.2
            transparency 0
            shininess 0.5
        }
    }
    geometry IndexedFaceSet {
        ccw TRUE
        solid FALSE
        coord DEF co Coordinate {
            point [
                -0.5475 -0.0326 -0.0394, -0.5475 -0.0326 -0.0354, -0.5481 -0.0337 -0.0354, -0.5489 -0.037 -0.0354, -0.5489 -0.037 -0.0394, -0.5487 -0.0353 -0.0394, -0.5487 -0.0353 -0.0354, -0.5482 -0.0339 -0.0394, -0.5481 -0.0337 -0.0394, -0.5502 -0.0326 -0.0354, -0.5502 -0.0326 -0.0394, -0.5507 -0.0339 -0.0394, -0.5508 -0.0344 -0.0354, -0.5511 -0.0368 -0.0394, -0.5511 -0.0368 -0.0354, -0.5509 -0.0352 -0.0394, -0.5508 -0.0344 -0.0394, -0.5509 -0.0386 -0.0394, -0.5509 -0.0389 -0.0354, -0.5509 -0.0389 -0.0394, -0.5504 -0.0404 -0.0394, -0.5504 -0.0404 -0.0354, -0.5499 -0.0412 -0.0394, -0.5499 -0.0412 -0.0354, -0.5492 -0.042 -0.0394, -0.5492 -0.042 -0.0354, -0.5485 -0.0425 -0.0394, -0.5485 -0.0425 -0.0354, -0.5477 -0.0428 -0.0394, -0.5477 -0.0428 -0.0354, -0.5466 -0.0429 -0.0394, -0.5466 -0.0429 -0.0354, -0.5456 -0.0428 -0.0394, -0.5456 -0.0428 -0.0354, -0.5448 -0.0426 -0.0394, -0.5448 -0.0426 -0.0354, -0.5441 -0.0421 -0.0394, -0.5441 -0.0421 -0.0354, -0.5435 -0.0414 -0.0394, -0.5435 -0.0414 -0.0354, -0.5425 -0.0396 -0.0394, -0.5425 -0.0396 -0.0354, -0.5421 -0.0386 -0.0394, -0.5421 -0.0386 -0.0354, -0.5414 -0.0369 -0.0394, -0.5414 -0.0369 -0.0354, -0.5408 -0.036 -0.0394, -0.5408 -0.036 -0.0354, -0.5405 -0.0357 -0.0394, -0.5405 -0.0357 -0.0354, -0.5401 -0.0356 -0.0394, -0.5401 -0.0356 -0.0354, -0.5397 -0.0354 -0.0394, -0.5397 -0.0354 -0.0354, -0.5394 -0.0354 -0.0394, -0.5394 -0.0354 -0.0354, -0.5389 -0.0355 -0.0394, -0.5389 -0.0355 -0.0354, -0.5386 -0.0356 -0.0394, -0.5386 -0.0356 -0.0354, -0.5382 -0.0358 -0.0394, -0.5382 -0.0358 -0.0354, -0.5379 -0.0362 -0.0394, -0.5379 -0.0362 -0.0354, -0.5376 -0.0368 -0.0394, -0.5376 -0.0368 -0.0354, -0.5374 -0.0375 -0.0394, -0.5374 -0.0375 -0.0354, -0.5373 -0.0383 -0.0394, -0.5373 -0.0383 -0.0354, -0.5375 -0.0401 -0.0394, -0.5375 -0.0401 -0.0354, -0.5381 -0.0416 -0.0394, -0.5381 -0.0416 -0.0354, -0.5384 -0.0422 -0.0394, -0.5384 -0.0422 -0.0354, -0.5358 -0.0422 -0.0354, -0.5358 -0.0422 -0.0394, -0.5353 -0.0404 -0.0394, -0.5353 -0.0404 -0.0354, -0.5351 -0.0386 -0.0394, -0.5351 -0.0386 -0.0354, -0.5354 -0.0367 -0.0394, -0.5354 -0.0367 -0.0354, -0.5359 -0.0352 -0.0394, -0.5359 -0.0352 -0.0354, -0.5364 -0.0344 -0.0394, -0.5364 -0.0344 -0.0354, -0.5368 -0.0339 -0.0394, -0.5371 -0.0336 -0.0354, -0.5371 -0.0336 -0.0394, -0.5378 -0.0331 -0.0394, -0.5378 -0.0331 -0.0354, -0.5387 -0.0328 -0.0394, -0.5387 -0.0328 -0.0354, -0.5396 -0.0327 -0.0394, -0.5396 -0.0327 -0.0354, -0.5407 -0.0328 -0.0394, -0.5407 -0.0328 -0.0354, -0.5415 -0.0331 -0.0394, -0.5415 -0.0331 -0.0354, -0.542 -0.0334 -0.0394, -0.542 -0.0334 -0.0354, -0.544 -0.0367 -0.0394, -0.544 -0.0367 -0.0354, -0.5433 -0.0351 -0.0354, -0.5425 -0.0339 -0.0394, -0.5425 -0.0339 -0.0354, -0.5425 -0.0339 -0.0394, -0.5433 -0.0351 -0.0394, -0.5448 -0.0385 -0.0394, -0.5448 -0.0385 -0.0354, -0.5454 -0.0395 -0.0394, -0.5454 -0.0395 -0.0354, -0.5458 -0.0398 -0.0394, -0.5458 -0.0398 -0.0354, -0.5461 -0.0401 -0.0394, -0.5461 -0.0401 -0.0354, -0.5465 -0.0402 -0.0394, -0.5465 -0.0402 -0.0354, -0.5469 -0.0402 -0.0394, -0.5469 -0.0402 -0.0354, -0.5474 -0.0401 -0.0394, -0.5474 -0.0401 -0.0354, -0.5478 -0.04 -0.0394, -0.5478 -0.04 -0.0354, -0.5481 -0.0398 -0.0394, -0.5481 -0.0398 -0.0354, -0.5484 -0.0395 -0.0394, -0.5484 -0.0395 -0.0354, -0.5485 -0.0392 -0.0394, -0.5485 -0.0392 -0.0354, -0.5488 -0.0385 -0.0394, -0.5488 -0.0385 -0.0354, -0.5489 -0.0372 -0.0394, -0.5489 -0.0372 -0.0354, -0.5355 -0.0562 -0.0354, -0.5355 -0.059 -0.0354, -0.5355 -0.0562 -0.0394, -0.5355 -0.059 -0.0394, -0.547 -0.052 -0.0354, -0.547 -0.052 -0.0394, -0.5477 -0.0518 -0.0394, -0.5477 -0.0518 -0.0354, -0.5482 -0.0517 -0.0394, -0.5482 -0.0517 -0.0354, -0.5482 -0.0516 -0.0354, -0.5482 -0.0516 -0.0394, -0.547 -0.0513 -0.0354, -0.547 -0.0513 -0.0394, -0.5355 -0.0473 -0.0354, -0.5392 -0.0486 -0.0394, -0.5355 -0.0473 -0.0394, -0.5355 -0.0443 -0.0354, -0.5355 -0.0443 -0.0394, -0.5507 -0.0503 -0.0354, -0.5464 -0.0486 -0.0394, -0.5507 -0.0503 -0.0394, -0.5535 -0.0491 -0.0394, -0.5535 -0.0491 -0.0354, -0.5509 -0.0502 -0.0394, -0.5545 -0.0486 -0.0394, -0.5545 -0.0486 -0.0354, -0.555 -0.0481 -0.0394, -0.555 -0.0481 -0.0354, -0.5553 -0.0476 -0.0394, -0.5553 -0.0476 -0.0354, -0.5556 -0.0471 -0.0394, -0.5556 -0.0471 -0.0354, -0.5556 -0.0464 -0.0394, -0.5556 -0.0464 -0.0354, -0.5555 -0.0454 -0.0394, -0.5555 -0.0454 -0.0354, -0.5553 -0.0449 -0.0394, -0.5553 -0.0449 -0.0354, -0.5577 -0.0449 -0.0354, -0.5577 -0.0449 -0.0394, -0.5579 -0.046 -0.0394, -0.5579 -0.046 -0.0354, -0.5579 -0.0466 -0.0394, -0.5579 -0.0466 -0.0354, -0.5578 -0.0477 -0.0394, -0.5578 -0.0477 -0.0354, -0.5575 -0.0486 -0.0394, -0.5574 -0.0488 -0.0354, -0.5574 -0.0488 -0.0394, -0.5568 -0.0497 -0.0394, -0.5568 -0.0497 -0.0354, -0.5566 -0.0499 -0.0394, -0.5566 -0.0499 -0.0354, -0.5554 -0.0508 -0.0394, -0.5554 -0.0508 -0.0354, -0.5531 -0.0521 -0.0394, -0.5531 -0.0521 -0.0354, -0.5509 -0.0529 -0.0394, -0.5483 -0.0733 -0.0354, -0.5507 -0.0733 -0.0354, -0.5483 -0.0733 -0.0394, -0.5507 -0.0733 -0.0394, -0.5483 -0.0646 -0.0354, -0.5483 -0.0686 -0.0394, -0.5483 -0.0646 -0.0394, -0.5411 -0.0646 -0.0354, -0.5411 -0.0646 -0.0394, -0.5411 -0.0723 -0.0354, -0.5411 -0.0686 -0.0394, -0.5411 -0.0723 -0.0394, -0.5387 -0.0723 -0.0354, -0.5387 -0.0723 -0.0394, -0.5387 -0.0646 -0.0394, -0.5387 -0.0646 -0.0354, -0.5387 -0.0686 -0.0394, -0.5319 -0.0646 -0.0354, -0.5319 -0.0646 -0.0394, -0.5319 -0.0729 -0.0394, -0.5319 -0.0729 -0.0354, -0.5319 -0.0686 -0.0394, -0.5294 -0.0729 -0.0354, -0.5294 -0.0729 -0.0394, -0.5294 -0.0619 -0.0394, -0.5294 -0.0619 -0.0354, -0.5294 -0.0686 -0.0394, -0.5507 -0.0619 -0.0354, -0.5507 -0.0619 -0.0394, -0.5507 -0.0686 -0.0394, -0.5448 -0.0906 -0.0354, -0.5461 -0.0896 -0.0354, -0.5478 -0.0915 -0.0354, -0.5463 -0.0893 -0.0354, -0.5494 -0.0893 -0.0354, -0.5473 -0.0879 -0.0354, -0.5503 -0.0869 -0.0354, -0.548 -0.0862 -0.0354, -0.5507 -0.0832 -0.0354, -0.5483 -0.0832 -0.0354, -0.5507 -0.0774 -0.0354, -0.5483 -0.0801 -0.0354, -0.5294 -0.0774 -0.0354, -0.5319 -0.0801 -0.0354, -0.5294 -0.0835 -0.0354, -0.5319 -0.0834 -0.0354, -0.5298 -0.0867 -0.0354, -0.5322 -0.0862 -0.0354, -0.5307 -0.0893 -0.0354, -0.5329 -0.0881 -0.0354, -0.5322 -0.0915 -0.0354, -0.5339 -0.0895 -0.0354, -0.533 -0.0923 -0.0354, -0.5345 -0.0901 -0.0354, -0.5348 -0.0936 -0.0354, -0.5357 -0.091 -0.0354, -0.5369 -0.0944 -0.0354, -0.5372 -0.0915 -0.0354, -0.5398 -0.0948 -0.0354, -0.5399 -0.0919 -0.0354, -0.5412 -0.0947 -0.0354, -0.5412 -0.0918 -0.0354, -0.5437 -0.0942 -0.0354, -0.5432 -0.0914 -0.0354, -0.5459 -0.0931 -0.0354, -0.5507 -0.0832 -0.0394, -0.5507 -0.0774 -0.0394, -0.5503 -0.0869 -0.0394, -0.5494 -0.0893 -0.0394, -0.5478 -0.0915 -0.0394, -0.5459 -0.0931 -0.0394, -0.5437 -0.0942 -0.0394, -0.5412 -0.0947 -0.0394, -0.5398 -0.0948 -0.0394, -0.5369 -0.0944 -0.0394, -0.5348 -0.0936 -0.0394, -0.533 -0.0923 -0.0394, -0.5322 -0.0915 -0.0394, -0.5307 -0.0893 -0.0394, -0.5298 -0.0867 -0.0394, -0.5294 -0.0835 -0.0394, -0.5294 -0.0774 -0.0394, -0.5319 -0.0834 -0.0394, -0.5319 -0.0801 -0.0394, -0.5483 -0.0801 -0.0394, -0.5483 -0.0832 -0.0394, -0.5461 -0.0896 -0.0394, -0.5463 -0.0893 -0.0394, -0.5473 -0.0879 -0.0394, -0.548 -0.0862 -0.0394, -0.5399 -0.0919 -0.0394, -0.5412 -0.0918 -0.0394, -0.5432 -0.0914 -0.0394, -0.5448 -0.0906 -0.0394, -0.5339 -0.0895 -0.0394, -0.5345 -0.0901 -0.0394, -0.5357 -0.091 -0.0394, -0.5372 -0.0915 -0.0394, -0.5322 -0.0862 -0.0394, -0.5329 -0.0881 -0.0394, -0.5329 -0.0881 -0.0394
            ]
        }
        coordIndex [
            0,1,2,-1,3,4,5,-1,3,5,6,-1,6,5,7,-1,6,7,2,-1,2,7,8,-1,2,8,0,-1,9,1,10,-1,10,1,0,-1,10,11,9,-1,9,11,12,-1,13,14,15,-1,15,14,12,-1,15,12,16,-1,16,12,11,-1,13,17,14,-1,14,17,18,-1,17,19,18,-1,18,19,20,-1,18,20,21,-1,21,20,22,-1,21,22,23,-1,23,22,24,-1,23,24,25,-1,25,24,26,-1,25,26,27,-1,27,26,28,-1,27,28,29,-1,29,28,30,-1,29,30,31,-1,31,30,32,-1,31,32,33,-1,33,32,34,-1,33,34,35,-1,35,34,36,-1,35,36,37,-1,37,36,38,-1,37,38,39,-1,39,38,40,-1,39,40,41,-1,41,40,42,-1,41,42,43,-1,43,42,44,-1,43,44,45,-1,45,44,46,-1,45,46,47,-1,47,46,48,-1,47,48,49,-1,49,48,50,-1,49,50,51,-1,51,50,52,-1,51,52,53,-1,53,52,54,-1,53,54,55,-1,55,54,56,-1,55,56,57,-1,57,56,58,-1,57,58,59,-1,59,58,60,-1,59,60,61,-1,61,60,62,-1,61,62,63,-1,63,62,64,-1,63,64,65,-1,65,64,66,-1,65,66,67,-1,67,66,68,-1,67,68,69,-1,69,68,70,-1,69,70,71,-1,71,70,72,-1,71,72,73,-1,73,72,74,-1,73,74,75,-1,76,75,77,-1,77,75,74,-1,76,77,78,-1,76,78,79,-1,79,78,80,-1,79,80,81,-1,81,80,82,-1,81,82,83,-1,83,82,84,-1,83,84,85,-1,85,84,86,-1,85,86,87,-1,86,88,87,-1,87,88,89,-1,88,90,89,-1,89,90,91,-1,89,91,92,-1,92,91,93,-1,92,93,94,-1,94,93,95,-1,94,95,96,-1,96,95,97,-1,96,97,98,-1,98,97,99,-1,98,99,100,-1,100,99,101,-1,100,101,102,-1,103,104,105,-1,102,101,106,-1,102,106,107,-1,107,106,108,-1,107,108,105,-1,105,108,109,-1,105,109,103,-1,104,103,110,-1,104,110,111,-1,111,110,112,-1,111,112,113,-1,113,112,114,-1,113,114,115,-1,115,114,116,-1,115,116,117,-1,117,116,118,-1,117,118,119,-1,119,118,120,-1,119,120,121,-1,121,120,122,-1,121,122,123,-1,123,122,124,-1,123,124,125,-1,125,124,126,-1,125,126,127,-1,127,126,128,-1,127,128,129,-1,129,128,130,-1,129,130,131,-1,131,130,132,-1,131,132,133,-1,133,132,134,-1,133,134,135,-1,135,134,4,-1,135,4,3,-1,61,63,85,-1,85,63,83,-1,111,43,104,-1,104,43,45,-1,21,23,127,-1,127,23,25,-1,127,25,125,-1,125,25,27,-1,125,27,123,-1,123,27,29,-1,123,29,121,-1,121,29,31,-1,121,31,119,-1,119,31,33,-1,119,33,117,-1,117,33,35,-1,117,35,115,-1,115,35,37,-1,115,37,113,-1,113,37,39,-1,113,39,111,-1,111,39,41,-1,111,41,43,-1,14,3,12,-1,12,3,6,-1,12,6,9,-1,9,6,2,-1,9,2,1,-1,63,65,83,-1,83,65,67,-1,83,67,81,-1,81,67,69,-1,81,69,79,-1,79,69,71,-1,79,71,76,-1,76,71,73,-1,76,73,75,-1,127,129,21,-1,21,129,131,-1,21,131,18,-1,18,131,133,-1,18,133,14,-1,14,133,135,-1,14,135,3,-1,85,87,61,-1,61,87,89,-1,61,89,59,-1,59,89,92,-1,59,92,57,-1,57,92,94,-1,57,94,55,-1,55,94,96,-1,55,96,53,-1,53,96,98,-1,53,98,51,-1,51,98,100,-1,51,100,49,-1,49,100,102,-1,49,102,47,-1,47,102,107,-1,47,107,45,-1,45,107,105,-1,45,105,104,-1,136,137,138,-1,138,137,139,-1,140,136,141,-1,141,136,138,-1,140,141,142,-1,140,142,143,-1,143,142,144,-1,143,144,145,-1,146,145,147,-1,147,145,144,-1,148,146,149,-1,149,146,147,-1,148,149,150,-1,150,149,151,-1,150,151,152,-1,153,150,154,-1,154,150,152,-1,153,154,155,-1,155,154,156,-1,155,156,157,-1,158,159,160,-1,160,159,155,-1,160,155,157,-1,159,158,161,-1,159,161,162,-1,162,161,163,-1,162,163,164,-1,164,163,165,-1,164,165,166,-1,166,165,167,-1,166,167,168,-1,168,167,169,-1,168,169,170,-1,170,169,171,-1,170,171,172,-1,172,171,173,-1,172,173,174,-1,175,174,176,-1,176,174,173,-1,175,176,177,-1,175,177,178,-1,178,177,179,-1,178,179,180,-1,180,179,181,-1,180,181,182,-1,182,181,183,-1,182,183,184,-1,183,185,184,-1,184,185,186,-1,184,186,187,-1,187,186,188,-1,187,188,189,-1,189,188,190,-1,189,190,191,-1,191,190,192,-1,191,192,193,-1,139,137,194,-1,194,137,193,-1,194,193,192,-1,143,145,193,-1,137,136,193,-1,193,136,140,-1,193,140,143,-1,150,153,148,-1,148,153,155,-1,148,155,146,-1,174,175,172,-1,172,175,178,-1,172,178,170,-1,170,178,180,-1,170,180,168,-1,168,180,182,-1,168,182,166,-1,166,182,184,-1,166,184,164,-1,191,162,189,-1,189,162,164,-1,189,164,187,-1,187,164,184,-1,145,146,193,-1,193,146,155,-1,193,155,191,-1,191,155,159,-1,191,159,162,-1,195,196,197,-1,197,196,198,-1,195,197,199,-1,199,197,200,-1,199,200,201,-1,202,199,203,-1,203,199,201,-1,202,203,204,-1,204,203,205,-1,204,205,206,-1,207,204,208,-1,208,204,206,-1,209,210,211,-1,211,210,207,-1,211,207,208,-1,212,210,213,-1,213,210,209,-1,214,215,216,-1,216,215,212,-1,216,212,213,-1,217,215,218,-1,218,215,214,-1,219,220,221,-1,221,220,217,-1,221,217,218,-1,222,220,223,-1,223,220,219,-1,222,223,196,-1,196,223,224,-1,196,224,198,-1,215,217,212,-1,212,217,220,-1,212,220,210,-1,196,195,222,-1,222,195,199,-1,222,199,202,-1,204,207,202,-1,202,207,210,-1,202,210,222,-1,222,210,220,-1,225,226,227,-1,227,226,228,-1,227,228,229,-1,229,228,230,-1,229,230,231,-1,231,230,232,-1,231,232,233,-1,233,232,234,-1,233,234,235,-1,235,234,236,-1,235,236,237,-1,237,236,238,-1,237,238,239,-1,239,238,240,-1,239,240,241,-1,241,240,242,-1,241,242,243,-1,243,242,244,-1,243,244,245,-1,245,244,246,-1,245,246,247,-1,247,246,248,-1,247,248,249,-1,249,248,250,-1,249,250,251,-1,251,250,252,-1,251,252,253,-1,253,252,254,-1,253,254,255,-1,255,254,256,-1,255,256,257,-1,257,256,258,-1,257,258,259,-1,259,258,225,-1,259,225,227,-1,233,235,260,-1,260,235,261,-1,233,260,262,-1,233,262,231,-1,231,262,263,-1,231,263,229,-1,229,263,264,-1,229,264,227,-1,227,264,265,-1,227,265,259,-1,259,265,266,-1,259,266,257,-1,257,266,267,-1,257,267,255,-1,255,267,268,-1,255,268,253,-1,253,268,269,-1,253,269,251,-1,251,269,270,-1,251,270,249,-1,249,270,271,-1,249,271,247,-1,247,271,272,-1,247,272,245,-1,245,272,273,-1,245,273,243,-1,243,273,274,-1,243,274,241,-1,241,274,275,-1,241,275,239,-1,237,239,276,-1,276,239,275,-1,235,237,261,-1,261,237,276,-1,240,238,277,-1,277,238,278,-1,238,236,278,-1,278,236,279,-1,236,234,279,-1,279,234,280,-1,226,281,282,-1,226,282,228,-1,228,282,283,-1,228,283,230,-1,230,283,284,-1,230,284,232,-1,232,284,280,-1,232,280,234,-1,254,285,286,-1,254,286,256,-1,256,286,287,-1,256,287,258,-1,258,287,288,-1,258,288,225,-1,225,288,281,-1,225,281,226,-1,246,289,290,-1,246,290,248,-1,248,290,291,-1,248,291,250,-1,250,291,292,-1,250,292,252,-1,252,292,285,-1,252,285,254,-1,240,277,293,-1,240,293,242,-1,242,293,294,-1,242,294,244,-1,244,294,289,-1,244,289,246,-1,
        ]
    }
}
Shape{
    appearance Appearance {
        material  Material 	{
            diffuseColor 0.8274509803921568 0.6666666666666666 0.12941176470588237
            specularColor 0.4117647058823529 0.3333333333333333 0.06666666666666667
            ambientIntensity 0.2
            transparency 0
            shininess 0.5
        }
    }
    geometry IndexedFaceSet {
        ccw TRUE
        solid FALSE
        coord DEF co Coordinate {
            point [
                -0.5319 -0.0801 -0.0394, -0.5483 -0.0801 -0.0394, -0.5319 -0.0834 -0.0394, -0.5483 -0.0832 -0.0394, -0.548 -0.0862 -0.0394, -0.5473 -0.0879 -0.0394, -0.5463 -0.0893 -0.0394, -0.5461 -0.0896 -0.0394, -0.5448 -0.0906 -0.0394, -0.5432 -0.0914 -0.0394, -0.5399 -0.0919 -0.0394, -0.5339 -0.0895 -0.0394, -0.5329 -0.0881 -0.0394, -0.5372 -0.0915 -0.0394, -0.5357 -0.091 -0.0394, -0.5345 -0.0901 -0.0394, -0.5412 -0.0918 -0.0394, -0.5322 -0.0862 -0.0394, -0.5322 -0.0862 -0.0394
            ]
        }
        coordIndex [
            0,1,2,-1,2,1,3,-1,3,4,2,-1,2,4,5,-1,2,5,6,-1,6,7,2,-1,2,7,8,-1,2,8,9,-1,10,11,12,-1,13,14,10,-1,10,14,15,-1,10,15,11,-1,9,16,2,-1,2,16,10,-1,2,10,17,-1,17,10,12,-1,
        ]
    }
}
Shape{
    appearance Appearance {
        material  Material 	{
            diffuseColor 0.07058823529411765 0.07058823529411765 0.07058823529411765
            specularColor 0.00392156862745098 0.00392156862745098 0.00392156862745098
            ambientIntensity 0.2
            transparency 0
            shininess 0.5
        }
    }
    geometry IndexedFaceSet {
        ccw TRUE
        solid FALSE
        coord DEF co Coordinate {
            point [
                -0.5425 -0.1019 -0.0354, -0.5336 -0.1051 -0.0354, -0.5294 -0.1041 -0.0354, -0.5507 -0.0959 -0.0354, -0.5507 -0.099 -0.0354, -0.5449 -0.101 -0.0354, -0.533 -0.1053 -0.0354, -0.5321 -0.1055 -0.0354, -0.5294 -0.107 -0.0354, -0.5321 -0.1055 -0.0354, -0.533 -0.1057 -0.0354, -0.5336 -0.1059 -0.0354, -0.5425 -0.1091 -0.0354, -0.5507 -0.1152 -0.0354, -0.5507 -0.1121 -0.0354, -0.5449 -0.1099 -0.0354, -0.5294 -0.107 -0.0394, -0.5507 -0.1152 -0.0394, -0.5294 -0.1041 -0.0394, -0.5507 -0.0959 -0.0394, -0.5507 -0.099 -0.0394, -0.5449 -0.101 -0.0394, -0.5449 -0.1099 -0.0394, -0.5507 -0.1121 -0.0394, -0.5425 -0.1019 -0.0394, -0.5425 -0.1091 -0.0394, -0.5336 -0.1059 -0.0394, -0.5321 -0.1055 -0.0394, -0.533 -0.1057 -0.0394, -0.5321 -0.1055 -0.0394, -0.5336 -0.1051 -0.0394, -0.533 -0.1053 -0.0394, -0.533 -0.1053 -0.0394
            ]
        }
        coordIndex [
            0,1,2,-1,3,4,5,-1,1,6,2,-1,2,6,7,-1,2,7,8,-1,8,7,9,-1,8,9,10,-1,10,11,8,-1,8,11,12,-1,8,12,13,-1,14,13,15,-1,15,13,12,-1,15,12,5,-1,5,12,0,-1,5,0,3,-1,3,0,2,-1,8,13,16,-1,16,13,17,-1,2,8,18,-1,18,8,16,-1,3,2,19,-1,19,2,18,-1,4,3,20,-1,20,3,19,-1,5,4,21,-1,21,4,20,-1,15,5,22,-1,22,5,21,-1,14,15,23,-1,23,15,22,-1,13,14,17,-1,17,14,23,-1,0,12,24,-1,24,12,25,-1,12,11,25,-1,25,11,26,-1,9,27,28,-1,9,28,10,-1,10,28,26,-1,10,26,11,-1,9,7,27,-1,27,7,29,-1,1,30,31,-1,1,31,6,-1,6,31,29,-1,6,29,7,-1,1,0,30,-1,30,0,24,-1,
        ]
    }
}
Shape{
    appearance Appearance {
        material  Material 	{
            diffuseColor 0.8274509803921568 0.6666666666666666 0.12941176470588237
            specularColor 0.4117647058823529 0.3333333333333333 0.06666666666666667
            ambientIntensity 0.2
            transparency 0
            shininess 0.5
        }
    }
    geometry IndexedFaceSet {
        ccw TRUE
        solid FALSE
        coord DEF co Coordinate {
            point [
                -0.5321 -0.1055 -0.0394, -0.5321 -0.1055 -0.0394, -0.533 -0.1057 -0.0394, -0.533 -0.1053 -0.0394, -0.5336 -0.1059 -0.0394, -0.5336 -0.1051 -0.0394, -0.5425 -0.1091 -0.0394, -0.5425 -0.1019 -0.0394, -0.5425 -0.1019 -0.0394
            ]
        }
        coordIndex [
            0,1,2,-1,2,1,3,-1,2,3,4,-1,4,3,5,-1,4,5,6,-1,6,5,7,-1,
        ]
    }
}
Shape{
    appearance Appearance {
        material  Material 	{
            diffuseColor 0.07058823529411765 0.07058823529411765 0.07058823529411765
            specularColor 0.00392156862745098 0.00392156862745098 0.00392156862745098
            ambientIntensity 0.2
            transparency 0
            shininess 0.5
        }
    }
    geometry IndexedFaceSet {
        ccw TRUE
        solid FALSE
        coord DEF co Coordinate {
            point [
                -0.5538 0.0916 -0.0354, -0.5566 0.0893 -0.0354, -0.5403 0.0929 -0.0354, -0.5329 0.0422 -0.0354, -0.5249 0.0469 -0.0354, -0.5355 0.0673 -0.0354, -0.54 0.0775 -0.0354, -0.5405 0.0761 -0.0354, -0.514 0.0956 -0.0354, -0.5122 0.0922 -0.0354, -0.5028 0.093 -0.0354, -0.5024 0.0835 -0.0354, -0.5135 0.0788 -0.0354, -0.5087 0.0765 -0.0354, -0.5383 0.0963 -0.0354, -0.5499 0.095 -0.0354, -0.5505 0.0931 -0.0354, -0.5021 0.087 -0.0354, -0.5414 0.0749 -0.0354, -0.5425 0.0739 -0.0354, -0.5441 0.0635 -0.0354, -0.5401 0.0803 -0.0354, -0.5308 0.0823 -0.0354, -0.5406 0.0816 -0.0354, -0.5321 0.0857 -0.0354, -0.5414 0.0828 -0.0354, -0.5342 0.0888 -0.0354, -0.5421 0.0834 -0.0354, -0.5371 0.0913 -0.0354, -0.5433 0.0842 -0.0354, -0.5448 0.0847 -0.0354, -0.5462 0.0847 -0.0354, -0.5313 0.0732 -0.0354, -0.5304 0.0768 -0.0354, -0.5303 0.0787 -0.0354, -0.5179 0.0372 -0.0354, -0.5179 0.036 -0.0354, -0.5097 0.0298 -0.0354, -0.5182 0.0331 -0.0354, -0.5099 0.029 -0.0354, -0.5193 0.0305 -0.0354, -0.5122 0.0245 -0.0354, -0.5157 0.0204 -0.0354, -0.4988 0.0804 -0.0354, -0.5046 0.0731 -0.0354, -0.4957 0.0769 -0.0354, -0.5016 0.069 -0.0354, -0.4933 0.0728 -0.0354, -0.5113 0.0885 -0.0354, -0.5112 0.0869 -0.0354, -0.5022 0.0853 -0.0354, -0.5116 0.0833 -0.0354, -0.5129 0.0799 -0.0354, -0.5437 0.0733 -0.0354, -0.5451 0.0729 -0.0354, -0.5457 0.0635 -0.0354, -0.5465 0.0729 -0.0354, -0.5472 0.0636 -0.0354, -0.544 0.0204 -0.0354, -0.538 0.0275 -0.0354, -0.5475 0.0245 -0.0354, -0.5398 0.0297 -0.0354, -0.5498 0.0291 -0.0354, -0.541 0.0324 -0.0354, -0.5508 0.0342 -0.0354, -0.5416 0.0351 -0.0354, -0.5508 0.0431 -0.0354, -0.5416 0.0419 -0.0354, -0.5507 0.044 -0.0354, -0.5399 0.0788 -0.0354, -0.5331 0.0699 -0.0354, -0.5209 0.0281 -0.0354, -0.5229 0.0264 -0.0354, -0.52 0.0173 -0.0354, -0.5255 0.025 -0.0354, -0.5246 0.0155 -0.0354, -0.5284 0.0242 -0.0354, -0.5296 0.0148 -0.0354, -0.5297 0.0242 -0.0354, -0.535 0.0155 -0.0354, -0.5327 0.0245 -0.0354, -0.5398 0.0174 -0.0354, -0.5354 0.0256 -0.0354, -0.5378 0.0273 -0.0354, -0.4977 0.038 -0.0354, -0.5047 0.0439 -0.0354, -0.5036 0.0329 -0.0354, -0.5088 0.0405 -0.0354, -0.5136 0.0382 -0.0354, -0.5227 0.1016 -0.0354, -0.5252 0.1116 -0.0354, -0.5264 0.1021 -0.0354, -0.5267 0.1116 -0.0354, -0.5287 0.1019 -0.0354, -0.5326 0.1109 -0.0354, -0.5324 0.1008 -0.0354, -0.5383 0.1087 -0.0354, -0.5355 0.099 -0.0354, -0.5432 0.1052 -0.0354, -0.5473 0.1005 -0.0354, -0.5477 0.0844 -0.0354, -0.5489 0.0838 -0.0354, -0.4906 0.0658 -0.0354, -0.4996 0.0641 -0.0354, -0.4898 0.0586 -0.0354, -0.4989 0.0585 -0.0354, -0.4906 0.0518 -0.0354, -0.4995 0.0533 -0.0354, -0.4934 0.0442 -0.0354, -0.5014 0.0486 -0.0354, -0.5043 0.0443 -0.0354, -0.505 0.0986 -0.0354, -0.5084 0.1035 -0.0354, -0.5163 0.0982 -0.0354, -0.5094 0.1045 -0.0354, -0.5193 0.1003 -0.0354, -0.5141 0.1081 -0.0354, -0.5195 0.1106 -0.0354, -0.551 0.0645 -0.0354, -0.5479 0.0733 -0.0354, -0.5544 0.0663 -0.0354, -0.5492 0.074 -0.0354, -0.557 0.0686 -0.0354, -0.5502 0.0748 -0.0354, -0.5591 0.0716 -0.0354, -0.551 0.076 -0.0354, -0.5604 0.075 -0.0354, -0.5515 0.0773 -0.0354, -0.5608 0.0787 -0.0354, -0.5517 0.0788 -0.0354, -0.5608 0.0793 -0.0354, -0.5517 0.0791 -0.0354, -0.5603 0.0828 -0.0354, -0.5515 0.0804 -0.0354, -0.5588 0.0863 -0.0354, -0.5509 0.0818 -0.0354, -0.55 0.083 -0.0354, -0.5414 0.0427 -0.0354, -0.5492 0.0463 -0.0354, -0.5496 0.046 -0.0354, -0.5415 0.0422 -0.0354, -0.5503 0.045 -0.0354, -0.5461 0.0476 -0.0354, -0.5472 0.0474 -0.0354, -0.5483 0.047 -0.0354, -0.5416 0.044 -0.0354, -0.542 0.0451 -0.0354, -0.5455 0.0475 -0.0354, -0.5426 0.046 -0.0354, -0.5433 0.0466 -0.0354, -0.5444 0.0472 -0.0354, -0.5414 0.0428 -0.0354, -0.5296 0.0148 -0.0394, -0.5246 0.0155 -0.0394, -0.5233 0.016 -0.0394, -0.52 0.0173 -0.0394, -0.5157 0.0204 -0.0394, -0.5122 0.0245 -0.0394, -0.5099 0.029 -0.0394, -0.5097 0.0298 -0.0394, -0.5036 0.0329 -0.0394, -0.4977 0.038 -0.0394, -0.4953 0.0414 -0.0394, -0.4934 0.0442 -0.0394, -0.4906 0.0518 -0.0394, -0.4898 0.0586 -0.0394, -0.4957 0.0769 -0.0394, -0.4953 0.0762 -0.0394, -0.4933 0.0728 -0.0394, -0.4906 0.0658 -0.0394, -0.4988 0.0804 -0.0394, -0.5024 0.0835 -0.0394, -0.5022 0.0853 -0.0394, -0.5021 0.087 -0.0394, -0.5028 0.093 -0.0394, -0.505 0.0986 -0.0394, -0.5084 0.1035 -0.0394, -0.5094 0.1045 -0.0394, -0.5267 0.1116 -0.0394, -0.5141 0.1081 -0.0394, -0.5195 0.1106 -0.0394, -0.5233 0.1112 -0.0394, -0.5252 0.1116 -0.0394, -0.5326 0.1109 -0.0394, -0.5383 0.1087 -0.0394, -0.5432 0.1052 -0.0394, -0.5473 0.1005 -0.0394, -0.5499 0.095 -0.0394, -0.5505 0.0931 -0.0394, -0.5509 0.0929 -0.0394, -0.5538 0.0916 -0.0394, -0.5566 0.0893 -0.0394, -0.5588 0.0863 -0.0394, -0.5594 0.0849 -0.0394, -0.5603 0.0828 -0.0394, -0.5608 0.0793 -0.0394, -0.5608 0.0787 -0.0394, -0.5457 0.0635 -0.0394, -0.5604 0.075 -0.0394, -0.5594 0.0724 -0.0394, -0.5591 0.0716 -0.0394, -0.557 0.0686 -0.0394, -0.5544 0.0663 -0.0394, -0.551 0.0645 -0.0394, -0.5509 0.0644 -0.0394, -0.5472 0.0636 -0.0394, -0.5441 0.0635 -0.0394, -0.5329 0.0422 -0.0394, -0.5249 0.0469 -0.0394, -0.5355 0.0673 -0.0394, -0.5331 0.0699 -0.0394, -0.5313 0.0732 -0.0394, -0.5304 0.0768 -0.0394, -0.5303 0.0787 -0.0394, -0.5308 0.0823 -0.0394, -0.5321 0.0857 -0.0394, -0.5342 0.0888 -0.0394, -0.5371 0.0913 -0.0394, -0.5403 0.0929 -0.0394, -0.5383 0.0963 -0.0394, -0.5355 0.099 -0.0394, -0.5324 0.1008 -0.0394, -0.5287 0.1019 -0.0394, -0.5264 0.1021 -0.0394, -0.5233 0.1017 -0.0394, -0.5227 0.1016 -0.0394, -0.5193 0.1003 -0.0394, -0.5163 0.0982 -0.0394, -0.514 0.0956 -0.0394, -0.5122 0.0922 -0.0394, -0.5113 0.0885 -0.0394, -0.5112 0.0869 -0.0394, -0.5116 0.0833 -0.0394, -0.5129 0.0799 -0.0394, -0.5135 0.0788 -0.0394, -0.5087 0.0765 -0.0394, -0.5046 0.0731 -0.0394, -0.5016 0.069 -0.0394, -0.4996 0.0641 -0.0394, -0.4989 0.0585 -0.0394, -0.4995 0.0533 -0.0394, -0.5014 0.0486 -0.0394, -0.5043 0.0443 -0.0394, -0.5047 0.0439 -0.0394, -0.5088 0.0405 -0.0394, -0.5136 0.0382 -0.0394, -0.5179 0.0372 -0.0394, -0.5179 0.036 -0.0394, -0.5182 0.0331 -0.0394, -0.5193 0.0305 -0.0394, -0.5209 0.0281 -0.0394, -0.5229 0.0264 -0.0394, -0.5233 0.0261 -0.0394, -0.5255 0.025 -0.0394, -0.5284 0.0242 -0.0394, -0.5297 0.0242 -0.0394, -0.5327 0.0245 -0.0394, -0.5354 0.0256 -0.0394, -0.5378 0.0273 -0.0394, -0.538 0.0275 -0.0394, -0.5398 0.0297 -0.0394, -0.541 0.0324 -0.0394, -0.5416 0.0351 -0.0394, -0.5416 0.0419 -0.0394, -0.5415 0.0422 -0.0394, -0.5414 0.0427 -0.0394, -0.5414 0.0428 -0.0394, -0.5416 0.044 -0.0394, -0.542 0.0451 -0.0394, -0.5426 0.046 -0.0394, -0.5433 0.0466 -0.0394, -0.5444 0.0472 -0.0394, -0.5455 0.0475 -0.0394, -0.5461 0.0476 -0.0394, -0.5472 0.0474 -0.0394, -0.5483 0.047 -0.0394, -0.5492 0.0463 -0.0394, -0.5496 0.046 -0.0394, -0.5503 0.045 -0.0394, -0.5507 0.044 -0.0394, -0.5508 0.0431 -0.0394, -0.5508 0.0342 -0.0394, -0.5498 0.0291 -0.0394, -0.5475 0.0245 -0.0394, -0.544 0.0204 -0.0394, -0.5398 0.0174 -0.0394, -0.535 0.0155 -0.0394, -0.5399 0.0788 -0.0394, -0.54 0.0775 -0.0394, -0.5405 0.0761 -0.0394, -0.5414 0.0749 -0.0394, -0.5425 0.0739 -0.0394, -0.5437 0.0733 -0.0394, -0.5451 0.0729 -0.0394, -0.5465 0.0729 -0.0394, -0.5479 0.0733 -0.0394, -0.5492 0.074 -0.0394, -0.5502 0.0748 -0.0394, -0.551 0.076 -0.0394, -0.5515 0.0773 -0.0394, -0.5517 0.0788 -0.0394, -0.5517 0.0791 -0.0394, -0.5515 0.0804 -0.0394, -0.5509 0.0818 -0.0394, -0.55 0.083 -0.0394, -0.5489 0.0838 -0.0394, -0.5477 0.0844 -0.0394, -0.5462 0.0847 -0.0394, -0.5448 0.0847 -0.0394, -0.5433 0.0842 -0.0394, -0.5421 0.0834 -0.0394, -0.5414 0.0828 -0.0394, -0.5406 0.0816 -0.0394, -0.5401 0.0803 -0.0394, -0.5401 0.0803 -0.0394
            ]
        }
        coordIndex [
            0,1,2,-1,3,4,5,-1,6,7,3,-1,8,9,10,-1,11,12,13,-1,14,15,2,-1,2,15,16,-1,2,16,0,-1,10,9,17,-1,7,18,3,-1,3,18,19,-1,3,19,20,-1,21,22,23,-1,23,22,24,-1,23,24,25,-1,25,24,26,-1,25,26,27,-1,27,26,28,-1,27,28,29,-1,29,28,2,-1,29,2,30,-1,30,2,31,-1,32,33,21,-1,21,33,34,-1,21,34,22,-1,35,36,37,-1,37,36,38,-1,37,38,39,-1,39,38,40,-1,39,40,41,-1,41,40,42,-1,11,13,43,-1,43,13,44,-1,43,44,45,-1,45,44,46,-1,45,46,47,-1,9,48,17,-1,17,48,49,-1,17,49,50,-1,50,49,51,-1,50,51,11,-1,11,51,52,-1,11,52,12,-1,19,53,20,-1,20,53,54,-1,20,54,55,-1,55,54,56,-1,55,56,57,-1,58,59,60,-1,60,59,61,-1,60,61,62,-1,62,61,63,-1,62,63,64,-1,64,63,65,-1,64,65,66,-1,66,65,67,-1,66,67,68,-1,6,3,69,-1,69,3,5,-1,69,5,21,-1,21,5,70,-1,21,70,32,-1,40,71,42,-1,42,71,72,-1,42,72,73,-1,73,72,74,-1,73,74,75,-1,75,74,76,-1,75,76,77,-1,77,76,78,-1,77,78,79,-1,79,78,80,-1,79,80,81,-1,81,80,82,-1,81,82,58,-1,58,82,83,-1,58,83,59,-1,84,85,86,-1,86,85,87,-1,86,87,37,-1,37,87,88,-1,37,88,35,-1,89,90,91,-1,91,90,92,-1,91,92,93,-1,93,92,94,-1,93,94,95,-1,95,94,96,-1,95,96,97,-1,97,96,98,-1,97,98,14,-1,14,98,99,-1,14,99,15,-1,31,2,100,-1,100,2,1,-1,100,1,101,-1,47,46,102,-1,102,46,103,-1,102,103,104,-1,104,103,105,-1,104,105,106,-1,106,105,107,-1,106,107,108,-1,108,107,109,-1,108,109,84,-1,84,109,110,-1,84,110,85,-1,10,111,8,-1,8,111,112,-1,8,112,113,-1,113,112,114,-1,113,114,115,-1,115,114,116,-1,115,116,89,-1,89,116,117,-1,89,117,90,-1,57,56,118,-1,118,56,119,-1,118,119,120,-1,120,119,121,-1,120,121,122,-1,122,121,123,-1,122,123,124,-1,124,123,125,-1,124,125,126,-1,126,125,127,-1,126,127,128,-1,128,127,129,-1,128,129,130,-1,130,129,131,-1,130,131,132,-1,132,131,133,-1,132,133,134,-1,134,133,135,-1,134,135,1,-1,1,135,136,-1,1,136,101,-1,137,138,139,-1,67,140,68,-1,68,140,137,-1,68,137,141,-1,141,137,139,-1,142,143,137,-1,137,143,144,-1,137,144,138,-1,145,146,147,-1,146,148,147,-1,147,148,149,-1,147,149,150,-1,142,137,147,-1,147,137,151,-1,147,151,145,-1,77,152,153,-1,77,153,75,-1,75,153,154,-1,75,154,73,-1,154,155,73,-1,73,155,156,-1,73,156,42,-1,42,156,157,-1,42,157,41,-1,41,157,158,-1,41,158,39,-1,39,158,159,-1,39,159,37,-1,37,159,160,-1,37,160,86,-1,86,160,161,-1,86,161,84,-1,84,161,108,-1,108,161,162,-1,162,163,108,-1,108,163,164,-1,108,164,106,-1,106,164,165,-1,106,165,104,-1,166,45,167,-1,167,45,47,-1,167,47,168,-1,168,47,102,-1,168,102,169,-1,169,102,104,-1,169,104,165,-1,45,166,170,-1,45,170,43,-1,43,170,171,-1,43,171,11,-1,11,171,172,-1,11,172,50,-1,50,172,173,-1,50,173,17,-1,17,173,174,-1,17,174,10,-1,10,174,175,-1,10,175,111,-1,111,175,176,-1,111,176,112,-1,112,176,177,-1,112,177,114,-1,178,92,90,-1,114,177,179,-1,114,179,116,-1,116,179,180,-1,116,180,117,-1,117,180,181,-1,117,181,90,-1,90,181,182,-1,90,182,178,-1,92,178,183,-1,92,183,94,-1,94,183,184,-1,94,184,96,-1,96,184,185,-1,96,185,98,-1,98,185,186,-1,98,186,99,-1,99,186,187,-1,99,187,15,-1,15,187,188,-1,15,188,16,-1,16,188,189,-1,16,189,0,-1,189,190,0,-1,0,190,191,-1,0,191,1,-1,1,191,192,-1,1,192,134,-1,134,192,193,-1,134,193,132,-1,193,194,132,-1,132,194,195,-1,132,195,130,-1,130,195,196,-1,130,196,128,-1,197,55,57,-1,128,196,198,-1,128,198,126,-1,126,198,199,-1,126,199,124,-1,199,200,124,-1,124,200,201,-1,124,201,122,-1,122,201,202,-1,122,202,120,-1,120,202,203,-1,120,203,118,-1,118,203,204,-1,118,204,57,-1,57,204,205,-1,57,205,197,-1,20,55,206,-1,206,55,197,-1,3,20,207,-1,207,20,206,-1,4,3,208,-1,208,3,207,-1,5,4,209,-1,209,4,208,-1,5,209,210,-1,5,210,70,-1,70,210,211,-1,70,211,32,-1,32,211,212,-1,32,212,33,-1,33,212,213,-1,33,213,34,-1,34,213,214,-1,34,214,22,-1,22,214,215,-1,22,215,24,-1,24,215,216,-1,24,216,26,-1,26,216,217,-1,26,217,28,-1,28,217,218,-1,28,218,2,-1,2,218,219,-1,2,219,14,-1,14,219,220,-1,14,220,97,-1,97,220,221,-1,97,221,95,-1,95,221,222,-1,95,222,93,-1,93,222,223,-1,93,223,91,-1,223,224,91,-1,91,224,89,-1,224,225,89,-1,89,225,226,-1,89,226,115,-1,115,226,227,-1,115,227,113,-1,113,227,228,-1,113,228,8,-1,8,228,229,-1,8,229,9,-1,9,229,230,-1,9,230,48,-1,48,230,231,-1,48,231,49,-1,49,231,232,-1,49,232,51,-1,51,232,233,-1,51,233,52,-1,52,233,234,-1,52,234,12,-1,12,234,235,-1,12,235,13,-1,13,235,236,-1,13,236,44,-1,44,236,237,-1,44,237,46,-1,46,237,238,-1,46,238,103,-1,103,238,239,-1,103,239,105,-1,105,239,240,-1,105,240,107,-1,107,240,241,-1,107,241,109,-1,109,241,242,-1,109,242,110,-1,110,242,243,-1,110,243,85,-1,85,243,244,-1,85,244,87,-1,87,244,245,-1,87,245,88,-1,88,245,246,-1,88,246,35,-1,36,35,247,-1,247,35,246,-1,36,247,248,-1,36,248,38,-1,38,248,249,-1,38,249,40,-1,40,249,250,-1,40,250,71,-1,71,250,251,-1,71,251,72,-1,72,251,252,-1,72,252,74,-1,252,253,74,-1,74,253,254,-1,74,254,76,-1,76,254,255,-1,76,255,78,-1,78,255,256,-1,78,256,80,-1,80,256,257,-1,80,257,82,-1,82,257,258,-1,82,258,83,-1,83,258,259,-1,83,259,59,-1,59,259,260,-1,59,260,61,-1,61,260,261,-1,61,261,63,-1,63,261,262,-1,63,262,65,-1,67,65,263,-1,263,65,262,-1,67,263,264,-1,67,264,140,-1,140,264,265,-1,140,265,137,-1,137,265,266,-1,137,266,151,-1,151,266,267,-1,151,267,145,-1,145,267,268,-1,145,268,146,-1,146,268,269,-1,146,269,148,-1,148,269,270,-1,148,270,149,-1,149,270,271,-1,149,271,150,-1,150,271,272,-1,150,272,147,-1,147,272,273,-1,147,273,142,-1,142,273,274,-1,142,274,143,-1,143,274,275,-1,143,275,144,-1,144,275,276,-1,144,276,138,-1,138,276,277,-1,138,277,139,-1,139,277,278,-1,139,278,141,-1,141,278,279,-1,141,279,68,-1,68,279,280,-1,68,280,66,-1,64,66,281,-1,281,66,280,-1,64,281,282,-1,64,282,62,-1,62,282,283,-1,62,283,60,-1,60,283,284,-1,60,284,58,-1,58,284,285,-1,58,285,81,-1,81,285,286,-1,81,286,79,-1,79,286,152,-1,79,152,77,-1,69,287,288,-1,69,288,6,-1,6,288,289,-1,6,289,7,-1,7,289,290,-1,7,290,18,-1,18,290,291,-1,18,291,19,-1,19,291,292,-1,19,292,53,-1,53,292,293,-1,53,293,54,-1,54,293,294,-1,54,294,56,-1,56,294,295,-1,56,295,119,-1,119,295,296,-1,119,296,121,-1,121,296,297,-1,121,297,123,-1,123,297,298,-1,123,298,125,-1,125,298,299,-1,125,299,127,-1,127,299,300,-1,127,300,129,-1,129,300,301,-1,129,301,131,-1,131,301,302,-1,131,302,133,-1,133,302,303,-1,133,303,135,-1,135,303,304,-1,135,304,136,-1,136,304,305,-1,136,305,101,-1,101,305,306,-1,101,306,100,-1,100,306,307,-1,100,307,31,-1,31,307,308,-1,31,308,30,-1,30,308,309,-1,30,309,29,-1,29,309,310,-1,29,310,27,-1,27,310,311,-1,27,311,25,-1,25,311,312,-1,25,312,23,-1,23,312,313,-1,23,313,21,-1,21,313,287,-1,21,287,69,-1,
        ]
    }
}
Shape{
    appearance Appearance {
        material  Material 	{
            diffuseColor 0.8274509803921568 0.6666666666666666 0.12941176470588237
            specularColor 0.4117647058823529 0.3333333333333333 0.06666666666666667
            ambientIntensity 0.2
            transparency 0
            shininess 0.5
        }
    }
    geometry IndexedFaceSet {
        ccw TRUE
        solid FALSE
        coord DEF co Coordinate {
            point [
                -0.5517 0.0791 -0.0394, -0.5414 0.0828 -0.0394, -0.5421 0.0834 -0.0394, -0.5515 0.0773 -0.0394, -0.551 0.076 -0.0394, -0.54 0.0775 -0.0394, -0.5399 0.0788 -0.0394, -0.5401 0.0803 -0.0394, -0.5406 0.0816 -0.0394, -0.5477 0.0844 -0.0394, -0.5489 0.0838 -0.0394, -0.55 0.083 -0.0394, -0.5517 0.0788 -0.0394, -0.5433 0.0842 -0.0394, -0.5448 0.0847 -0.0394, -0.5462 0.0847 -0.0394, -0.5509 0.0818 -0.0394, -0.5515 0.0804 -0.0394, -0.5502 0.0748 -0.0394, -0.5492 0.074 -0.0394, -0.5479 0.0733 -0.0394, -0.5465 0.0729 -0.0394, -0.5451 0.0729 -0.0394, -0.5437 0.0733 -0.0394, -0.5425 0.0739 -0.0394, -0.5414 0.0749 -0.0394, -0.5405 0.0761 -0.0394, -0.5405 0.0761 -0.0394
            ]
        }
        coordIndex [
            0,1,2,-1,3,4,5,-1,6,7,0,-1,0,7,8,-1,0,8,1,-1,9,10,2,-1,2,10,11,-1,6,0,5,-1,5,0,12,-1,5,12,3,-1,13,14,2,-1,2,14,15,-1,2,15,9,-1,11,16,2,-1,2,16,17,-1,2,17,0,-1,4,18,5,-1,5,18,19,-1,5,19,20,-1,20,21,5,-1,5,21,22,-1,5,22,23,-1,23,24,5,-1,5,24,25,-1,5,25,26,-1,
        ]
    }
}