#VRML V2.0 utf8
# 3D model generated by easyeda2kicad.py (https://github.com/uPesy/easyeda2kicad.py)

Shape{
    appearance Appearance {
        material  Material 	{
            diffuseColor 0.5019607843137255 0.5019607843137255 0.5019607843137255
            specularColor 0.25098039215686274 0.25098039215686274 0.25098039215686274
            ambientIntensity 0.2
            transparency 0
            shininess 0.5
        }
    }
    geometry IndexedFaceSet {
        ccw TRUE
        solid FALSE
        coord DEF co Coordinate {
            point [
                0.1969 0.1461 0.0, 0.1969 -0.0591 0.0197, 0.1969 -0.1929 0.0, 0.1969 -0.0984 0.0197, 0.1969 -0.1929 0.2323, 0.1969 0.1929 0.0, 0.1969 0.1929 0.2323, 0.1969 0.1786 0.0, 0.1969 0.1586 0.0, 0.1969 0.0197 0.0394, 0.1969 -0.0197 0.0394, 0.1969 0.0984 0.0197, 0.1969 0.0591 0.0197, 0.1969 -0.0984 0.0394, 0.1969 -0.0591 0.0394, 0.1969 -0.0197 0.0197, 0.1969 0.0197 0.0197, 0.1969 0.0591 0.0394, 0.1969 0.0984 0.0394, 0.0787 0.1969 0.0551, 0.0787 0.1969 0.0, 0.0197 0.1969 0.0197, 0.1929 0.1969 0.2323, 0.0197 0.1969 0.0394, -0.1929 0.1969 0.2323, -0.0197 0.1969 0.0394, 0.1772 0.1969 0.0551, 0.1929 0.1969 0.0, 0.1772 0.1969 0.0, 0.0243 0.1969 0.0, 0.0069 0.1969 0.0, -0.0197 0.1969 0.0197, -0.0075 0.1969 0.0, -0.1772 0.1969 0.0, -0.1929 0.1969 0.0, -0.1772 0.1969 0.0551, -0.0787 0.1969 0.0551, -0.0787 0.1969 0.0, -0.026 0.1969 0.0, -0.089 0.159 0.0, -0.089 0.1586 0.0, -0.0894 0.1586 0.0, 0.0243 -0.1093 0.0, 0.0243 -0.1969 0.0, 0.0069 -0.1969 0.0, -0.0075 0.1461 0.0, 0.0069 0.1461 0.0, -0.0 0.1336 0.0, 0.0069 0.1267 0.0, 0.0243 0.1461 0.0, 0.0243 0.1093 0.0, 0.1496 0.0984 0.0, 0.1772 0.0984 0.0, 0.1336 0.0 0.0, 0.102 0.1461 0.0, 0.1772 -0.1969 0.0, 0.1772 -0.0984 0.0, 0.1929 -0.1969 0.0, 0.1967 -0.1939 0.0, 0.0787 -0.1969 0.0, 0.0787 -0.1693 0.0, 0.1496 -0.0984 0.0, 0.1963 -0.1949 0.0, 0.1957 -0.1957 0.0, 0.1939 -0.1967 0.0, 0.1949 -0.1963 0.0, -0.0075 -0.1262 0.0, 0.0 -0.1336 0.0, 0.0069 -0.1267 0.0, -0.0075 -0.1969 0.0, -0.026 -0.1969 0.0, -0.026 -0.1077 0.0, -0.1772 -0.0709 0.0, -0.1772 -0.1969 0.0, -0.1929 -0.1969 0.0, -0.102 0.1461 0.0, -0.089 0.0446 0.0, -0.1496 0.0984 0.0, -0.1336 0.0 0.0, -0.1772 0.0984 0.0, -0.1939 -0.1967 0.0, -0.1949 -0.1963 0.0, -0.1957 -0.1957 0.0, -0.1969 0.1461 0.0, -0.1969 -0.1929 0.0, -0.1967 -0.1939 0.0, -0.1963 -0.1949 0.0, -0.0075 0.1262 0.0, -0.026 0.1077 0.0, -0.026 0.1461 0.0, -0.089 0.1461 0.0, 0.1939 0.1967 0.0, 0.1949 0.1963 0.0, 0.1957 0.1957 0.0, 0.1963 0.1949 0.0, 0.1967 0.1939 0.0, 0.1772 0.1461 0.0, 0.1772 0.1586 0.0, 0.1772 0.1786 0.0, 0.0252 0.1609 0.0, 0.0252 0.1588 0.0, 0.0243 0.1586 0.0, 0.0353 0.1588 0.0, 0.0353 0.1784 0.0, 0.0787 0.1786 0.0, 0.0326 0.1784 0.0, 0.0243 0.1786 0.0, 0.0787 0.1693 0.0, 0.0894 0.1586 0.0, -0.0416 0.1588 0.0, -0.026 0.1586 0.0, -0.0444 0.1588 0.0, -0.0368 0.1784 0.0, -0.0787 0.1693 0.0, -0.0787 0.1786 0.0, -0.026 0.1786 0.0, -0.0396 0.1643 0.0, -0.0314 0.1643 0.0, -0.0296 0.1588 0.0, -0.0267 0.1588 0.0, -0.0341 0.1784 0.0, -0.1969 0.1786 0.0, -0.1772 0.1586 0.0, -0.1969 0.1586 0.0, -0.1772 0.1461 0.0, -0.089 -0.166 0.0, -0.089 -0.0446 0.0, -0.0787 -0.1772 0.0, -0.0787 -0.1969 0.0, -0.1967 0.1939 0.0, -0.1969 0.1929 0.0, -0.1772 0.1786 0.0, -0.1963 0.1949 0.0, -0.1957 0.1957 0.0, -0.1949 0.1963 0.0, -0.1939 0.1967 0.0, 0.0069 0.1786 0.0, 0.0088 0.1619 0.0, 0.0069 0.1586 0.0, 0.0088 0.1598 0.0, 0.0109 0.1589 0.0, 0.0117 0.1786 0.0, 0.0111 0.1785 0.0, 0.0088 0.1779 0.0, 0.0088 0.1753 0.0, 0.0111 0.1762 0.0, 0.0092 0.1617 0.0, 0.0135 0.1765 0.0, 0.0154 0.1763 0.0, 0.0169 0.1758 0.0, 0.0182 0.1749 0.0, 0.0194 0.1735 0.0, 0.0209 0.1684 0.0, 0.0207 0.1663 0.0, 0.0201 0.1646 0.0, 0.0157 0.1609 0.0, 0.0139 0.1607 0.0, 0.0172 0.1614 0.0, 0.0184 0.1622 0.0, 0.0193 0.1632 0.0, 0.0113 0.161 0.0, 0.0202 0.172 0.0, 0.0208 0.1699 0.0, 0.015 0.1786 0.0, 0.0135 0.1787 0.0, 0.0186 0.1594 0.0, 0.0202 0.1604 0.0, 0.0213 0.1751 0.0, 0.0195 0.1768 0.0, 0.0177 0.1779 0.0, 0.0235 0.1682 0.0, 0.0232 0.171 0.0, 0.0225 0.1733 0.0, 0.0155 0.1785 0.0, 0.0217 0.162 0.0, 0.0227 0.1639 0.0, 0.0233 0.1659 0.0, 0.0326 0.1609 0.0, 0.0129 0.1586 0.0, 0.0137 0.1585 0.0, 0.0143 0.1585 0.0, 0.0154 0.1586 0.0, 0.0167 0.1588 0.0, -0.0075 0.1586 0.0, -0.0051 0.1784 0.0, -0.0075 0.1786 0.0, -0.0051 0.1763 0.0, -0.0056 0.1609 0.0, -0.0056 0.1588 0.0, 0.005 0.1588 0.0, 0.005 0.1784 0.0, 0.0024 0.1676 0.0, 0.0024 0.1609 0.0, -0.0046 0.1676 0.0, -0.0046 0.1698 0.0, 0.0024 0.1698 0.0, 0.0024 0.1763 0.0, -0.0243 0.1641 0.0, -0.0231 0.1624 0.0, -0.0215 0.1608 0.0, -0.0195 0.1596 0.0, -0.015 0.1784 0.0, -0.0178 0.1781 0.0, -0.0201 0.1773 0.0, -0.0222 0.1759 0.0, -0.0223 0.1759 0.0, -0.0237 0.1743 0.0, -0.0246 0.1726 0.0, -0.0172 0.159 0.0, -0.0147 0.1588 0.0, -0.0094 0.1588 0.0, -0.0094 0.1784 0.0, -0.0251 0.1707 0.0, -0.0252 0.1688 0.0, -0.025 0.1662 0.0, -0.1969 -0.0984 0.0197, -0.1969 -0.0984 0.0394, -0.1969 -0.1929 0.2323, -0.1969 -0.0591 0.0394, -0.1969 -0.0197 0.0394, -0.1969 -0.0197 0.0197, -0.1969 -0.0591 0.0197, -0.1969 0.0591 0.0394, -0.1969 0.0591 0.0197, -0.1969 0.0197 0.0197, -0.1969 0.1929 0.2323, -0.1969 0.0197 0.0394, -0.1969 0.0984 0.0394, -0.1969 0.0984 0.0197, -0.0787 -0.1969 0.0551, -0.1929 -0.1969 0.2323, -0.1772 -0.1969 0.0551, -0.0197 -0.1969 0.0197, -0.0197 -0.1969 0.0394, 0.0197 -0.1969 0.0394, 0.1772 -0.1969 0.0551, 0.1929 -0.1969 0.2323, 0.0787 -0.1969 0.0551, 0.0197 -0.1969 0.0197, -0.1381 -0.1604 0.2362, -0.1439 -0.1562 0.2362, -0.1929 -0.1929 0.2362, -0.0893 -0.1446 0.2362, 0.1929 -0.1929 0.2362, -0.0871 -0.1378 0.2362, -0.0864 -0.1306 0.2362, -0.1315 -0.1634 0.2362, -0.0929 -0.1508 0.2362, -0.0978 -0.1562 0.2362, -0.1036 -0.1604 0.2362, -0.1102 -0.1634 0.2362, -0.1172 -0.1649 0.2362, -0.1244 -0.1649 0.2362, -0.1487 -0.1508 0.2362, -0.1523 -0.1446 0.2362, -0.1546 -0.1378 0.2362, -0.1553 -0.1306 0.2362, -0.1546 -0.1234 0.2362, -0.1929 0.1929 0.2362, -0.1523 -0.1166 0.2362, -0.1487 -0.1103 0.2362, -0.1439 -0.105 0.2362, -0.1381 -0.1007 0.2362, -0.1315 -0.0978 0.2362, 0.1929 0.1929 0.2362, -0.1036 -0.1007 0.2362, -0.0978 -0.105 0.2362, -0.0929 -0.1103 0.2362, -0.0893 -0.1166 0.2362, -0.0871 -0.1234 0.2362, -0.1244 -0.0963 0.2362, -0.1172 -0.0963 0.2362, -0.1102 -0.0978 0.2362, -0.1102 -0.0978 0.2362
            ]
        }
        coordIndex [
            0,1,2,-1,2,1,3,-1,2,3,4,-1,5,6,7,-1,7,6,8,-1,9,6,10,-1,10,6,4,-1,8,6,0,-1,0,6,11,-1,0,11,12,-1,3,13,4,-1,4,13,14,-1,4,14,10,-1,10,14,15,-1,14,1,15,-1,15,1,0,-1,15,0,16,-1,16,0,12,-1,16,12,9,-1,9,12,17,-1,9,17,6,-1,6,17,18,-1,6,18,11,-1,19,20,21,-1,22,23,24,-1,24,23,25,-1,21,23,19,-1,19,23,22,-1,19,22,26,-1,26,22,27,-1,26,27,28,-1,20,29,21,-1,21,29,30,-1,21,30,31,-1,31,30,32,-1,33,34,35,-1,35,34,24,-1,35,24,36,-1,36,24,25,-1,36,25,37,-1,37,25,31,-1,37,31,38,-1,38,31,32,-1,39,40,41,-1,42,43,44,-1,45,46,47,-1,47,46,48,-1,48,46,49,-1,48,49,50,-1,51,52,53,-1,51,53,54,-1,55,56,57,-1,57,56,2,-1,57,2,58,-1,59,43,60,-1,60,43,42,-1,60,42,61,-1,61,42,53,-1,61,53,56,-1,56,53,52,-1,56,52,2,-1,2,52,0,-1,58,62,57,-1,57,62,63,-1,57,63,64,-1,64,63,65,-1,66,67,44,-1,44,67,68,-1,44,68,42,-1,44,69,66,-1,66,69,70,-1,66,70,71,-1,72,73,74,-1,75,76,77,-1,77,76,78,-1,77,78,79,-1,80,81,82,-1,83,72,84,-1,84,72,74,-1,84,74,85,-1,85,74,80,-1,85,80,86,-1,86,80,82,-1,47,87,45,-1,45,87,88,-1,45,88,89,-1,89,88,76,-1,89,76,90,-1,90,76,75,-1,91,92,93,-1,93,94,91,-1,91,94,95,-1,91,95,27,-1,27,95,5,-1,27,5,7,-1,52,96,0,-1,0,96,97,-1,0,97,8,-1,8,97,98,-1,8,98,7,-1,7,98,28,-1,7,28,27,-1,99,100,101,-1,101,100,102,-1,102,103,104,-1,103,105,106,-1,104,107,102,-1,102,107,108,-1,102,108,101,-1,101,108,54,-1,101,54,49,-1,49,54,53,-1,49,53,50,-1,103,106,104,-1,104,106,29,-1,104,29,20,-1,109,110,111,-1,111,110,40,-1,111,40,112,-1,112,40,39,-1,39,113,112,-1,112,113,114,-1,112,114,115,-1,116,117,109,-1,109,117,118,-1,109,118,110,-1,110,118,119,-1,110,119,115,-1,115,119,120,-1,115,120,112,-1,121,122,123,-1,123,122,124,-1,123,124,83,-1,83,124,79,-1,83,79,72,-1,72,79,78,-1,72,78,125,-1,125,78,126,-1,125,126,127,-1,127,126,71,-1,127,71,128,-1,128,71,70,-1,129,34,130,-1,130,34,33,-1,130,33,121,-1,121,33,131,-1,121,131,122,-1,129,132,133,-1,133,134,129,-1,129,134,135,-1,129,135,34,-1,136,137,138,-1,138,137,139,-1,138,139,140,-1,136,141,142,-1,142,143,136,-1,136,143,144,-1,136,144,137,-1,137,144,145,-1,137,145,146,-1,146,145,147,-1,146,147,148,-1,148,149,146,-1,146,149,150,-1,146,150,151,-1,152,153,146,-1,146,153,154,-1,155,156,157,-1,157,156,158,-1,154,159,146,-1,146,159,158,-1,146,158,160,-1,160,158,156,-1,151,161,146,-1,146,161,162,-1,146,162,152,-1,163,164,30,-1,165,166,101,-1,167,168,106,-1,106,168,169,-1,170,171,106,-1,106,171,172,-1,106,172,167,-1,30,29,163,-1,163,29,106,-1,163,106,173,-1,173,106,169,-1,166,174,101,-1,101,174,175,-1,101,175,176,-1,176,170,101,-1,101,170,106,-1,101,106,99,-1,99,106,105,-1,99,105,177,-1,178,179,46,-1,46,179,180,-1,46,180,49,-1,49,180,181,-1,49,181,101,-1,101,181,182,-1,101,182,165,-1,75,41,90,-1,90,41,40,-1,90,40,89,-1,89,40,110,-1,89,110,45,-1,45,110,183,-1,45,183,46,-1,46,183,138,-1,46,138,178,-1,178,138,140,-1,184,185,136,-1,184,186,185,-1,185,186,187,-1,185,187,183,-1,183,187,188,-1,183,188,138,-1,138,188,189,-1,138,189,136,-1,136,189,190,-1,136,190,184,-1,191,192,193,-1,193,192,187,-1,193,187,194,-1,194,187,186,-1,194,186,195,-1,195,186,196,-1,197,198,110,-1,110,198,199,-1,110,199,200,-1,201,115,185,-1,201,202,115,-1,115,202,203,-1,115,203,204,-1,204,205,115,-1,115,205,206,-1,115,206,207,-1,200,208,110,-1,110,208,209,-1,110,209,183,-1,183,209,210,-1,183,210,185,-1,185,210,211,-1,185,211,201,-1,207,212,115,-1,115,212,213,-1,115,213,110,-1,110,213,214,-1,110,214,197,-1,114,37,115,-1,115,37,38,-1,115,38,185,-1,185,38,32,-1,185,32,136,-1,136,32,30,-1,136,30,141,-1,141,30,164,-1,215,84,216,-1,216,84,217,-1,216,217,218,-1,219,220,221,-1,222,223,224,-1,224,223,83,-1,224,83,220,-1,220,83,84,-1,220,84,221,-1,221,84,215,-1,130,121,225,-1,225,121,123,-1,225,123,83,-1,221,218,219,-1,219,218,217,-1,219,217,226,-1,226,217,225,-1,224,226,222,-1,222,226,225,-1,222,225,227,-1,227,225,83,-1,227,83,228,-1,228,83,223,-1,229,230,231,-1,231,230,74,-1,231,74,73,-1,128,232,229,-1,229,232,233,-1,229,233,230,-1,230,233,234,-1,55,57,235,-1,235,57,236,-1,235,236,237,-1,128,70,232,-1,232,70,69,-1,232,69,238,-1,238,69,44,-1,236,230,237,-1,237,230,234,-1,237,234,59,-1,59,234,238,-1,59,238,43,-1,43,238,44,-1,239,240,241,-1,242,243,244,-1,244,243,245,-1,239,241,246,-1,242,247,243,-1,243,247,248,-1,243,248,249,-1,249,250,243,-1,243,250,251,-1,243,251,241,-1,241,251,252,-1,241,252,246,-1,240,253,241,-1,241,253,254,-1,241,254,255,-1,255,256,241,-1,241,256,257,-1,241,257,258,-1,258,257,259,-1,258,259,260,-1,260,261,258,-1,258,261,262,-1,258,262,263,-1,264,265,266,-1,266,267,264,-1,264,267,268,-1,264,268,243,-1,243,268,269,-1,243,269,245,-1,263,270,258,-1,258,270,271,-1,258,271,264,-1,264,271,272,-1,264,272,265,-1,
        ]
    }
}
Shape{
    appearance Appearance {
        material  Material 	{
            diffuseColor 1.0 1.0 1.0
            specularColor 0.5019607843137255 0.5019607843137255 0.5019607843137255
            ambientIntensity 0.2
            transparency 0
            shininess 0.5
        }
    }
    geometry IndexedFaceSet {
        ccw TRUE
        solid FALSE
        coord DEF co Coordinate {
            point [
                -0.0075 0.1262 0.0, -0.0 0.1336 0.0, -0.0 0.1336 -0.0039, -0.1336 0.0 -0.0039, -0.1336 0.0 0.0, -0.089 0.0446 0.0, -0.026 0.1077 0.0, 0.1336 0.0 0.0, 0.1336 0.0 -0.0039, 0.0243 0.1093 0.0, 0.0069 0.1267 0.0, 0.0243 -0.1093 0.0, 0.0 -0.1336 -0.0039, 0.0069 -0.1267 0.0, 0.0 -0.1336 0.0, -0.0075 -0.1262 0.0, -0.026 -0.1077 0.0, -0.089 -0.0446 0.0, -0.1772 -0.0709 0.0, -0.1772 -0.0709 -0.0039, -0.1772 -0.1969 0.0, -0.1772 -0.2008 -0.0039, -0.1772 -0.1969 0.0551, -0.1772 -0.2008 0.0551, -0.0787 -0.1772 0.0, -0.0787 -0.1772 -0.0039, -0.089 -0.166 0.0, -0.0787 -0.1969 0.0551, -0.0787 -0.2008 0.0551, -0.0787 -0.1969 0.0, -0.0787 -0.2008 -0.0039, 0.1772 -0.0984 -0.0039, 0.1496 -0.0984 -0.0039, 0.1772 -0.0984 0.0, 0.1496 -0.0984 0.0, 0.1772 -0.1969 0.0551, 0.1772 -0.2008 0.0551, 0.1772 -0.1969 0.0, 0.1772 -0.2008 -0.0039, 0.0787 -0.1693 0.0, 0.0787 -0.1693 -0.0039, 0.0787 -0.1969 0.0, 0.0787 -0.2008 -0.0039, 0.0787 -0.1969 0.0551, 0.0787 -0.2008 0.0551, 0.1496 0.0984 -0.0039, 0.1772 0.0984 -0.0039, 0.1496 0.0984 0.0, 0.1772 0.0984 0.0, 0.102 0.1461 0.0, 0.0787 0.1693 -0.0039, 0.0894 0.1586 0.0, 0.0787 0.1693 0.0, 0.0787 0.1969 0.0551, 0.0787 0.2008 0.0551, 0.0787 0.1969 0.0, 0.0787 0.2008 -0.0039, 0.0787 0.1786 0.0, 0.1772 0.2008 0.0551, 0.1772 0.1969 0.0551, 0.1772 0.2008 -0.0039, 0.1772 0.1969 0.0, 0.1772 0.1786 0.0, 0.1772 0.1586 0.0, 0.1772 0.1461 0.0, -0.0787 0.1693 -0.0039, -0.0787 0.1693 0.0, -0.089 0.159 0.0, -0.1496 0.0984 0.0, -0.1496 0.0984 -0.0039, -0.102 0.1461 0.0, -0.0894 0.1586 0.0, -0.1772 0.0984 -0.0039, -0.1772 0.0984 0.0, -0.1772 0.1586 0.0, -0.1772 0.2008 -0.0039, -0.1772 0.1461 0.0, -0.1772 0.1969 0.0551, -0.1772 0.2008 0.0551, -0.1772 0.1969 0.0, -0.1772 0.1786 0.0, -0.0787 0.2008 0.0551, -0.0787 0.1969 0.0551, -0.0787 0.2008 -0.0039, -0.0787 0.1969 0.0, -0.0787 0.1786 0.0, -0.0368 0.1784 0.0004, -0.0444 0.1588 0.0004, -0.0368 0.1784 0.0, -0.0444 0.1588 0.0, -0.0416 0.1588 0.0004, -0.0416 0.1588 0.0, -0.0396 0.1643 0.0004, -0.0396 0.1643 0.0, -0.0314 0.1643 0.0004, -0.0314 0.1643 0.0, -0.0296 0.1588 0.0004, -0.0296 0.1588 0.0, -0.0267 0.1588 0.0004, -0.0267 0.1588 0.0, -0.0341 0.1784 0.0004, -0.0341 0.1784 0.0, -0.0321 0.1664 0.0004, -0.0387 0.1664 0.0004, -0.035 0.1747 0.0004, -0.0352 0.1753 0.0004, -0.0354 0.176 0.0004, -0.0354 0.176 0.0004, -0.0355 0.1753 0.0004, -0.0357 0.1747 0.0004, -0.0321 0.1664 0.0, -0.0387 0.1664 0.0, -0.035 0.1747 -0.0, -0.0352 0.1753 -0.0, -0.0354 0.176 0.0, -0.0354 0.176 0.0, -0.0355 0.1753 0.0, -0.0357 0.1747 0.0, -0.0147 0.1588 0.0004, -0.0094 0.1588 0.0004, -0.0147 0.1588 0.0, -0.0094 0.1588 0.0, -0.0094 0.1784 0.0004, -0.0094 0.1784 0.0, -0.015 0.1784 0.0004, -0.015 0.1784 0.0, -0.0252 0.1688 0.0004, -0.0252 0.1688 0.0, -0.0251 0.1707 0.0, -0.0251 0.1707 0.0004, -0.0246 0.1726 0.0, -0.0246 0.1726 0.0004, -0.0237 0.1743 0.0, -0.0237 0.1743 0.0004, -0.0223 0.1759 0.0, -0.0223 0.1759 0.0004, -0.0222 0.1759 0.0, -0.0222 0.1759 0.0004, -0.0201 0.1773 0.0, -0.0201 0.1773 0.0004, -0.0178 0.1781 0.0, -0.0178 0.1781 0.0004, -0.0172 0.159 0.0, -0.0172 0.159 0.0004, -0.0195 0.1596 0.0, -0.0195 0.1596 0.0004, -0.0215 0.1608 0.0, -0.0215 0.1608 0.0004, -0.0231 0.1624 0.0, -0.0231 0.1624 0.0004, -0.0243 0.1641 0.0, -0.0243 0.1641 0.0004, -0.025 0.1662 0.0, -0.025 0.1662 0.0004, -0.0213 0.1735 0.0004, -0.0203 0.1745 0.0004, -0.0189 0.1755 0.0004, -0.0173 0.176 0.0004, -0.0149 0.1763 0.0004, -0.012 0.1763 0.0004, -0.012 0.1609 0.0004, -0.0148 0.1609 0.0004, -0.0169 0.1611 0.0004, -0.0186 0.1616 0.0004, -0.0199 0.1624 0.0004, -0.021 0.1635 0.0004, -0.0218 0.1649 0.0004, -0.0224 0.1667 0.0004, -0.0226 0.1688 0.0004, -0.0224 0.1707 0.0004, -0.022 0.1723 0.0004, -0.0149 0.1763 0.0, -0.012 0.1763 0.0, -0.0173 0.176 -0.0, -0.0189 0.1755 0.0, -0.0203 0.1745 0.0, -0.0213 0.1735 -0.0, -0.022 0.1723 0.0, -0.0224 0.1707 0.0, -0.0226 0.1688 0.0, -0.0224 0.1667 0.0, -0.0218 0.1649 0.0, -0.021 0.1635 0.0, -0.0199 0.1624 0.0, -0.0186 0.1616 0.0, -0.0169 0.1611 0.0, -0.0148 0.1609 0.0, -0.012 0.1609 0.0, -0.0056 0.1609 0.0004, -0.0056 0.1588 0.0004, -0.0056 0.1609 0.0, -0.0056 0.1588 0.0, 0.005 0.1588 0.0004, 0.005 0.1588 0.0, 0.005 0.1784 0.0004, 0.005 0.1784 0.0, -0.0051 0.1784 0.0004, -0.0051 0.1784 0.0, -0.0051 0.1763 0.0004, -0.0051 0.1763 0.0, 0.0024 0.1763 0.0004, 0.0024 0.1763 0.0, 0.0024 0.1698 0.0004, 0.0024 0.1698 0.0, -0.0046 0.1698 0.0004, -0.0046 0.1698 0.0, -0.0046 0.1676 0.0004, -0.0046 0.1676 0.0, 0.0024 0.1676 0.0004, 0.0024 0.1676 0.0, 0.0024 0.1609 0.0004, 0.0024 0.1609 0.0, 0.0088 0.1619 0.0004, 0.0088 0.1598 0.0004, 0.0088 0.1619 0.0, 0.0088 0.1598 0.0, 0.0109 0.1589 0.0004, 0.0143 0.1585 0.0004, 0.0143 0.1585 0.0, 0.0137 0.1585 0.0, 0.0137 0.1585 0.0004, 0.0129 0.1586 0.0, 0.0109 0.1589 0.0, 0.0235 0.1682 0.0004, 0.0235 0.1682 0.0, 0.0233 0.1659 0.0, 0.0233 0.1659 0.0004, 0.0227 0.1639 0.0, 0.0227 0.1639 0.0004, 0.0217 0.162 0.0, 0.0217 0.162 0.0004, 0.0202 0.1604 0.0, 0.0202 0.1604 0.0004, 0.0186 0.1594 0.0, 0.0186 0.1594 0.0004, 0.0167 0.1588 0.0, 0.0167 0.1588 0.0004, 0.0154 0.1586 0.0, 0.0135 0.1787 0.0004, 0.0135 0.1787 0.0, 0.0155 0.1785 0.0004, 0.015 0.1786 0.0, 0.0155 0.1785 0.0, 0.0177 0.1779 0.0, 0.0177 0.1779 0.0004, 0.0195 0.1768 0.0, 0.0195 0.1768 0.0004, 0.0213 0.1751 0.0, 0.0213 0.1751 0.0004, 0.0225 0.1733 0.0, 0.0225 0.1733 0.0004, 0.0232 0.171 0.0, 0.0232 0.171 0.0004, 0.0117 0.1786 0.0, 0.0111 0.1785 0.0004, 0.0111 0.1785 0.0, 0.0088 0.1779 0.0004, 0.0088 0.1779 0.0, 0.0088 0.1753 0.0004, 0.0088 0.1753 0.0, 0.0135 0.1765 0.0004, 0.0135 0.1765 0.0, 0.0111 0.1762 0.0, 0.0111 0.1762 0.0004, 0.0209 0.1684 0.0004, 0.0209 0.1684 0.0, 0.0208 0.1699 0.0, 0.0208 0.1699 0.0004, 0.0202 0.172 0.0, 0.0202 0.172 0.0004, 0.0194 0.1735 0.0, 0.0194 0.1735 0.0004, 0.0182 0.1749 0.0, 0.0182 0.1749 0.0004, 0.0169 0.1758 0.0, 0.0169 0.1758 0.0004, 0.0154 0.1763 0.0, 0.0154 0.1763 0.0004, 0.0139 0.1607 0.0004, 0.0139 0.1607 0.0, 0.0157 0.1609 0.0, 0.0157 0.1609 0.0004, 0.0172 0.1614 0.0, 0.0172 0.1614 0.0004, 0.0184 0.1622 0.0, 0.0184 0.1622 0.0004, 0.0193 0.1632 0.0, 0.0193 0.1632 0.0004, 0.0201 0.1646 0.0, 0.0201 0.1646 0.0004, 0.0207 0.1663 0.0, 0.0207 0.1663 0.0004, 0.0092 0.1617 0.0, 0.0092 0.1617 0.0004, 0.0113 0.161 0.0, 0.0113 0.161 0.0004, 0.0252 0.1609 0.0004, 0.0252 0.1588 0.0004, 0.0252 0.1609 0.0, 0.0252 0.1588 0.0, 0.0353 0.1588 0.0004, 0.0353 0.1588 0.0, 0.0353 0.1784 0.0004, 0.0353 0.1784 0.0, 0.0326 0.1784 0.0004, 0.0326 0.1784 0.0, 0.0326 0.1609 0.0004, 0.0326 0.1609 0.0, 0.0326 0.1609 0.0
            ]
        }
        coordIndex [
            0,1,2,-1,3,4,5,-1,3,5,2,-1,2,5,6,-1,2,6,0,-1,7,8,9,-1,9,8,2,-1,9,2,10,-1,10,2,1,-1,8,7,11,-1,8,11,12,-1,12,11,13,-1,12,13,14,-1,12,14,15,-1,15,16,12,-1,12,16,17,-1,12,17,3,-1,3,17,4,-1,8,12,2,-1,2,12,3,-1,18,19,20,-1,20,19,21,-1,20,21,22,-1,22,21,23,-1,24,25,26,-1,26,25,19,-1,26,19,18,-1,27,28,29,-1,29,28,30,-1,29,30,24,-1,24,30,25,-1,21,19,30,-1,30,19,25,-1,31,32,33,-1,33,32,34,-1,35,36,37,-1,37,36,38,-1,37,38,33,-1,33,38,31,-1,39,40,41,-1,41,40,42,-1,41,42,43,-1,43,42,44,-1,32,40,34,-1,34,40,39,-1,32,31,40,-1,40,31,38,-1,40,38,42,-1,45,46,47,-1,47,46,48,-1,45,47,49,-1,45,49,50,-1,50,49,51,-1,50,51,52,-1,53,54,55,-1,55,54,56,-1,55,56,57,-1,57,56,50,-1,57,50,52,-1,58,59,60,-1,60,59,61,-1,60,61,62,-1,62,63,60,-1,60,63,64,-1,60,64,46,-1,46,64,48,-1,50,56,45,-1,45,56,60,-1,45,60,46,-1,65,66,67,-1,68,69,70,-1,70,69,65,-1,70,65,71,-1,71,65,67,-1,72,69,73,-1,73,69,68,-1,74,75,76,-1,76,75,72,-1,76,72,73,-1,77,78,79,-1,79,78,75,-1,79,75,80,-1,80,75,74,-1,81,82,83,-1,83,82,84,-1,83,84,65,-1,65,84,85,-1,65,85,66,-1,69,72,65,-1,65,72,75,-1,65,75,83,-1,86,87,88,-1,88,87,89,-1,87,90,89,-1,89,90,91,-1,90,92,91,-1,91,92,93,-1,92,94,93,-1,93,94,95,-1,94,96,95,-1,95,96,97,-1,96,98,97,-1,97,98,99,-1,98,100,99,-1,99,100,101,-1,100,86,101,-1,101,86,88,-1,102,94,103,-1,103,94,92,-1,104,100,102,-1,102,100,98,-1,102,98,94,-1,94,98,96,-1,104,105,100,-1,100,105,106,-1,100,106,86,-1,86,106,107,-1,86,107,108,-1,108,109,86,-1,86,109,103,-1,86,103,87,-1,87,103,92,-1,87,92,90,-1,102,103,110,-1,110,103,111,-1,104,102,112,-1,112,102,110,-1,104,112,113,-1,104,113,105,-1,105,113,114,-1,105,114,106,-1,107,106,115,-1,115,106,114,-1,107,115,116,-1,107,116,108,-1,108,116,117,-1,108,117,109,-1,103,109,111,-1,111,109,117,-1,118,119,120,-1,120,119,121,-1,119,122,121,-1,121,122,123,-1,122,124,123,-1,123,124,125,-1,126,127,128,-1,126,128,129,-1,129,128,130,-1,129,130,131,-1,131,130,132,-1,131,132,133,-1,133,132,134,-1,133,134,135,-1,135,134,136,-1,135,136,137,-1,137,136,138,-1,137,138,139,-1,139,138,140,-1,139,140,141,-1,141,140,125,-1,141,125,124,-1,118,120,142,-1,118,142,143,-1,143,142,144,-1,143,144,145,-1,145,144,146,-1,145,146,147,-1,147,146,148,-1,147,148,149,-1,149,148,150,-1,149,150,151,-1,151,150,152,-1,151,152,153,-1,153,152,127,-1,153,127,126,-1,131,133,154,-1,154,133,135,-1,154,135,155,-1,155,135,137,-1,155,137,156,-1,156,137,139,-1,156,139,157,-1,157,139,141,-1,157,141,158,-1,158,141,124,-1,158,124,159,-1,159,124,122,-1,159,122,160,-1,160,122,119,-1,160,119,161,-1,161,119,118,-1,161,118,162,-1,162,118,143,-1,162,143,163,-1,163,143,145,-1,163,145,164,-1,164,145,147,-1,164,147,165,-1,165,147,149,-1,165,149,166,-1,166,149,151,-1,166,151,167,-1,167,151,153,-1,167,153,168,-1,168,153,126,-1,168,126,169,-1,169,126,129,-1,169,129,170,-1,170,129,131,-1,170,131,154,-1,158,159,171,-1,171,159,172,-1,158,171,173,-1,158,173,157,-1,157,173,174,-1,157,174,156,-1,156,174,175,-1,156,175,155,-1,155,175,176,-1,155,176,154,-1,154,176,177,-1,154,177,170,-1,170,177,178,-1,170,178,169,-1,169,178,179,-1,169,179,168,-1,168,179,180,-1,168,180,167,-1,167,180,181,-1,167,181,166,-1,166,181,182,-1,166,182,165,-1,165,182,183,-1,165,183,164,-1,164,183,184,-1,164,184,163,-1,163,184,185,-1,163,185,162,-1,162,185,186,-1,162,186,161,-1,160,161,187,-1,187,161,186,-1,159,160,172,-1,172,160,187,-1,188,189,190,-1,190,189,191,-1,189,192,191,-1,191,192,193,-1,192,194,193,-1,193,194,195,-1,194,196,195,-1,195,196,197,-1,196,198,197,-1,197,198,199,-1,198,200,199,-1,199,200,201,-1,200,202,201,-1,201,202,203,-1,202,204,203,-1,203,204,205,-1,204,206,205,-1,205,206,207,-1,206,208,207,-1,207,208,209,-1,208,210,209,-1,209,210,211,-1,210,188,211,-1,211,188,190,-1,192,189,188,-1,188,210,192,-1,192,210,208,-1,192,208,194,-1,198,196,200,-1,200,196,194,-1,200,194,202,-1,202,194,208,-1,202,208,204,-1,204,208,206,-1,212,213,214,-1,214,213,215,-1,215,213,216,-1,217,218,219,-1,217,219,220,-1,220,219,221,-1,220,221,216,-1,216,221,222,-1,216,222,215,-1,223,224,225,-1,223,225,226,-1,226,225,227,-1,226,227,228,-1,228,227,229,-1,228,229,230,-1,230,229,231,-1,230,231,232,-1,232,231,233,-1,232,233,234,-1,234,233,235,-1,234,235,236,-1,236,235,217,-1,217,235,237,-1,217,237,218,-1,238,239,240,-1,240,239,241,-1,241,242,240,-1,240,242,243,-1,240,243,244,-1,244,243,245,-1,244,245,246,-1,246,245,247,-1,246,247,248,-1,248,247,249,-1,248,249,250,-1,250,249,251,-1,250,251,252,-1,252,251,224,-1,252,224,223,-1,239,238,253,-1,253,238,254,-1,253,254,255,-1,255,254,256,-1,255,256,257,-1,256,258,257,-1,257,258,259,-1,260,261,262,-1,260,262,263,-1,263,262,259,-1,263,259,258,-1,264,265,266,-1,264,266,267,-1,267,266,268,-1,267,268,269,-1,269,268,270,-1,269,270,271,-1,271,270,272,-1,271,272,273,-1,273,272,274,-1,273,274,275,-1,275,274,276,-1,275,276,277,-1,277,276,261,-1,277,261,260,-1,278,279,280,-1,278,280,281,-1,281,280,282,-1,281,282,283,-1,283,282,284,-1,283,284,285,-1,285,284,286,-1,285,286,287,-1,287,286,288,-1,287,288,289,-1,289,288,290,-1,289,290,291,-1,291,290,265,-1,291,265,264,-1,212,214,292,-1,212,292,293,-1,293,292,294,-1,293,294,295,-1,295,294,279,-1,295,279,278,-1,281,217,278,-1,278,217,220,-1,278,220,295,-1,295,220,216,-1,295,216,293,-1,293,216,213,-1,293,213,212,-1,258,256,263,-1,263,256,254,-1,263,254,260,-1,260,254,238,-1,260,238,277,-1,277,238,240,-1,277,240,275,-1,275,240,244,-1,275,244,273,-1,273,244,246,-1,273,246,271,-1,271,246,248,-1,271,248,269,-1,269,248,250,-1,269,250,267,-1,267,250,252,-1,267,252,264,-1,264,252,223,-1,264,223,291,-1,291,223,226,-1,291,226,289,-1,289,226,228,-1,289,228,287,-1,287,228,230,-1,287,230,285,-1,285,230,232,-1,285,232,283,-1,283,232,234,-1,283,234,281,-1,281,234,236,-1,281,236,217,-1,296,297,298,-1,298,297,299,-1,297,300,299,-1,299,300,301,-1,300,302,301,-1,301,302,303,-1,302,304,303,-1,303,304,305,-1,304,306,305,-1,305,306,307,-1,306,296,307,-1,307,296,298,-1,304,302,306,-1,306,302,300,-1,306,300,296,-1,296,300,297,-1,
        ]
    }
}
Shape{
    appearance Appearance {
        material  Material 	{
            diffuseColor 0.5019607843137255 0.5019607843137255 0.5019607843137255
            specularColor 0.25098039215686274 0.25098039215686274 0.25098039215686274
            ambientIntensity 0.2
            transparency 0
            shininess 0.5
        }
    }
    geometry IndexedFaceSet {
        ccw TRUE
        solid FALSE
        coord DEF co Coordinate {
            point [
                -0.0321 0.1664 0.0, -0.0387 0.1664 0.0, -0.035 0.1747 -0.0, -0.0357 0.1747 0.0, -0.0352 0.1753 -0.0, -0.0355 0.1753 0.0, -0.0354 0.176 0.0, -0.0354 0.176 0.0, -0.012 0.1763 0.0, -0.012 0.1609 0.0, -0.0149 0.1763 0.0, -0.0148 0.1609 0.0, -0.0169 0.1611 0.0, -0.0226 0.1688 0.0, -0.0224 0.1707 0.0, -0.022 0.1723 0.0, -0.0173 0.176 -0.0, -0.0186 0.1616 0.0, -0.0199 0.1624 0.0, -0.021 0.1635 0.0, -0.0218 0.1649 0.0, -0.0224 0.1667 0.0, -0.0213 0.1735 -0.0, -0.0203 0.1745 0.0, -0.0189 0.1755 0.0, -0.0189 0.1755 0.0
            ]
        }
        coordIndex [
            0,1,2,-1,2,1,3,-1,2,3,4,-1,4,3,5,-1,4,5,6,-1,6,5,7,-1,8,9,10,-1,10,9,11,-1,10,11,12,-1,13,14,10,-1,10,14,15,-1,10,15,16,-1,12,17,10,-1,10,17,18,-1,10,18,19,-1,19,20,10,-1,10,20,21,-1,10,21,13,-1,22,23,15,-1,15,23,24,-1,15,24,16,-1,
        ]
    }
}
Shape{
    appearance Appearance {
        material  Material 	{
            diffuseColor 1.0 1.0 1.0
            specularColor 0.5019607843137255 0.5019607843137255 0.5019607843137255
            ambientIntensity 0.2
            transparency 0
            shininess 0.5
        }
    }
    geometry IndexedFaceSet {
        ccw TRUE
        solid FALSE
        coord DEF co Coordinate {
            point [
                0.1772 0.2008 0.0551, 0.0787 0.2008 0.0551, 0.1772 0.1969 0.0551, 0.0787 0.1969 0.0551, 0.0787 0.2008 -0.0039, 0.1772 0.2008 -0.0039, -0.0787 0.2008 0.0551, -0.1772 0.2008 0.0551, -0.0787 0.1969 0.0551, -0.1772 0.1969 0.0551, -0.1772 0.2008 -0.0039, -0.0787 0.2008 -0.0039, -0.0197 0.2008 0.0394, -0.0197 0.2008 0.0197, -0.0197 0.1969 0.0394, -0.0197 0.1969 0.0197, 0.0197 0.2008 0.0394, 0.0197 0.1969 0.0394, 0.0197 0.2008 0.0197, 0.0197 0.1969 0.0197, 0.0787 -0.2008 0.0551, 0.1772 -0.2008 0.0551, 0.0787 -0.1969 0.0551, 0.1772 -0.1969 0.0551, 0.0787 -0.2008 -0.0039, 0.1772 -0.2008 -0.0039, -0.1772 -0.2008 0.0551, -0.0787 -0.2008 0.0551, -0.1772 -0.1969 0.0551, -0.0787 -0.1969 0.0551, -0.0787 -0.2008 -0.0039, -0.1772 -0.2008 -0.0039, -0.0197 -0.2008 0.0197, -0.0197 -0.2008 0.0394, -0.0197 -0.1969 0.0197, -0.0197 -0.1969 0.0394, 0.0197 -0.2008 0.0197, 0.0197 -0.1969 0.0197, 0.0197 -0.2008 0.0394, 0.0197 -0.1969 0.0394, 0.0197 -0.1969 0.0394
            ]
        }
        coordIndex [
            0,1,2,-1,2,1,3,-1,4,1,5,-1,5,1,0,-1,6,7,8,-1,8,7,9,-1,7,6,10,-1,10,6,11,-1,12,13,14,-1,14,13,15,-1,16,12,17,-1,17,12,14,-1,18,16,19,-1,19,16,17,-1,13,18,15,-1,15,18,19,-1,16,18,12,-1,12,18,13,-1,20,21,22,-1,22,21,23,-1,20,24,21,-1,21,24,25,-1,26,27,28,-1,28,27,29,-1,27,26,30,-1,30,26,31,-1,32,33,34,-1,34,33,35,-1,36,32,37,-1,37,32,34,-1,38,36,39,-1,39,36,37,-1,33,38,35,-1,35,38,39,-1,36,38,32,-1,32,38,33,-1,
        ]
    }
}
Shape{
    appearance Appearance {
        material  Material 	{
            diffuseColor 0.7529411764705882 0.7529411764705882 0.7529411764705882
            specularColor 0.3764705882352941 0.3764705882352941 0.3764705882352941
            ambientIntensity 0.2
            transparency 0
            shininess 0.5
        }
    }
    geometry IndexedFaceSet {
        ccw TRUE
        solid FALSE
        coord DEF co Coordinate {
            point [
                -0.0929 -0.143 0.2323, -0.091 -0.1369 0.2323, -0.1208 -0.1306 0.2323, -0.0903 -0.1306 0.2323, -0.091 -0.1242 0.2323, -0.1056 -0.157 0.2323, -0.1004 -0.1533 0.2323, -0.0961 -0.1485 0.2323, -0.124 -0.161 0.2323, -0.1176 -0.161 0.2323, -0.1114 -0.1596 0.2323, -0.1413 -0.1533 0.2323, -0.1361 -0.157 0.2323, -0.1303 -0.1596 0.2323, -0.1507 -0.1369 0.2323, -0.1487 -0.143 0.2323, -0.1455 -0.1485 0.2323, -0.1487 -0.1182 0.2323, -0.1507 -0.1242 0.2323, -0.1514 -0.1306 0.2323, -0.1361 -0.1041 0.2323, -0.1413 -0.1079 0.2323, -0.1455 -0.1126 0.2323, -0.1176 -0.1002 0.2323, -0.124 -0.1002 0.2323, -0.1303 -0.1015 0.2323, -0.1004 -0.1079 0.2323, -0.1056 -0.1041 0.2323, -0.1114 -0.1015 0.2323, -0.0929 -0.1182 0.2323, -0.0961 -0.1126 0.2323, -0.0961 -0.1126 0.2323
            ]
        }
        coordIndex [
            0,1,2,-1,2,1,3,-1,2,3,4,-1,5,6,2,-1,2,6,7,-1,2,7,0,-1,8,9,2,-1,2,9,10,-1,2,10,5,-1,11,12,2,-1,2,12,13,-1,2,13,8,-1,14,15,2,-1,2,15,16,-1,2,16,11,-1,17,18,2,-1,2,18,19,-1,2,19,14,-1,20,21,2,-1,2,21,22,-1,2,22,17,-1,23,24,2,-1,2,24,25,-1,2,25,20,-1,26,27,2,-1,2,27,28,-1,2,28,23,-1,4,29,2,-1,2,29,30,-1,2,30,26,-1,
        ]
    }
}
Shape{
    appearance Appearance {
        material  Material 	{
            diffuseColor 1.0 1.0 1.0
            specularColor 0.5019607843137255 0.5019607843137255 0.5019607843137255
            ambientIntensity 0.2
            transparency 0
            shininess 0.5
        }
    }
    geometry IndexedFaceSet {
        ccw TRUE
        solid FALSE
        coord DEF co Coordinate {
            point [
                0.2008 0.0197 0.0197, 0.2008 -0.0197 0.0197, 0.1969 0.0197 0.0197, 0.1969 -0.0197 0.0197, 0.2008 0.0197 0.0394, 0.1969 0.0197 0.0394, 0.2008 -0.0197 0.0394, 0.1969 -0.0197 0.0394, 0.2008 0.0984 0.0394, 0.2008 0.0984 0.0197, 0.1969 0.0984 0.0394, 0.1969 0.0984 0.0197, 0.2008 0.0591 0.0394, 0.1969 0.0591 0.0394, 0.2008 0.0591 0.0197, 0.1969 0.0591 0.0197, 0.2008 -0.0591 0.0394, 0.2008 -0.0591 0.0197, 0.1969 -0.0591 0.0394, 0.1969 -0.0591 0.0197, 0.2008 -0.0984 0.0394, 0.1969 -0.0984 0.0394, 0.2008 -0.0984 0.0197, 0.1969 -0.0984 0.0197, -0.2008 -0.0197 0.0197, -0.2008 0.0197 0.0197, -0.1969 -0.0197 0.0197, -0.1969 0.0197 0.0197, -0.2008 -0.0197 0.0394, -0.1969 -0.0197 0.0394, -0.2008 0.0197 0.0394, -0.1969 0.0197 0.0394, -0.2008 0.0984 0.0197, -0.2008 0.0984 0.0394, -0.1969 0.0984 0.0197, -0.1969 0.0984 0.0394, -0.2008 0.0591 0.0197, -0.1969 0.0591 0.0197, -0.2008 0.0591 0.0394, -0.1969 0.0591 0.0394, -0.2008 -0.0591 0.0197, -0.2008 -0.0591 0.0394, -0.1969 -0.0591 0.0197, -0.1969 -0.0591 0.0394, -0.2008 -0.0984 0.0197, -0.1969 -0.0984 0.0197, -0.2008 -0.0984 0.0394, -0.1969 -0.0984 0.0394, -0.1969 -0.0984 0.0394
            ]
        }
        coordIndex [
            0,1,2,-1,2,1,3,-1,4,0,5,-1,5,0,2,-1,6,4,7,-1,7,4,5,-1,1,6,3,-1,3,6,7,-1,4,6,0,-1,0,6,1,-1,8,9,10,-1,10,9,11,-1,12,8,13,-1,13,8,10,-1,14,12,15,-1,15,12,13,-1,9,14,11,-1,11,14,15,-1,12,14,8,-1,8,14,9,-1,16,17,18,-1,18,17,19,-1,20,16,21,-1,21,16,18,-1,22,20,23,-1,23,20,21,-1,17,22,19,-1,19,22,23,-1,20,22,16,-1,16,22,17,-1,24,25,26,-1,26,25,27,-1,28,24,29,-1,29,24,26,-1,30,28,31,-1,31,28,29,-1,25,30,27,-1,27,30,31,-1,28,30,24,-1,24,30,25,-1,32,33,34,-1,34,33,35,-1,36,32,37,-1,37,32,34,-1,38,36,39,-1,39,36,37,-1,33,38,35,-1,35,38,39,-1,36,38,32,-1,32,38,33,-1,40,41,42,-1,42,41,43,-1,44,40,45,-1,45,40,42,-1,46,44,47,-1,47,44,45,-1,41,46,43,-1,43,46,47,-1,44,46,40,-1,40,46,41,-1,
        ]
    }
}
Shape{
    appearance Appearance {
        material  Material 	{
            diffuseColor 0.5019607843137255 0.5019607843137255 0.5019607843137255
            specularColor 0.25098039215686274 0.25098039215686274 0.25098039215686274
            ambientIntensity 0.2
            transparency 0
            shininess 0.5
        }
    }
    geometry IndexedFaceSet {
        ccw TRUE
        solid FALSE
        coord DEF co Coordinate {
            point [
                -0.1929 0.1969 0.2323, -0.1929 0.1969 0.0, -0.1939 0.1967 0.0, -0.1939 0.1967 0.2323, -0.1949 0.1963 0.0, -0.1949 0.1963 0.2323, -0.1957 0.1957 0.0, -0.1957 0.1957 0.2323, -0.1963 0.1949 0.0, -0.1963 0.1949 0.2323, -0.1967 0.1939 0.0, -0.1967 0.1939 0.2323, -0.1969 0.1929 0.0, -0.1969 0.1929 0.2323, -0.1929 0.1929 0.2362, 0.1929 0.1929 0.2362, 0.1929 0.1939 0.2361, -0.1929 0.1939 0.2361, 0.1929 0.1949 0.2357, -0.1929 0.1949 0.2357, 0.1929 0.1957 0.2351, -0.1929 0.1957 0.2351, 0.1929 0.1963 0.2343, -0.1929 0.1963 0.2343, 0.1929 0.1967 0.2333, -0.1929 0.1967 0.2333, 0.1929 0.1969 0.2323, 0.1969 0.1929 0.2323, 0.1969 0.1929 0.0, 0.1967 0.1939 0.0, 0.1967 0.1939 0.2323, 0.1963 0.1949 0.0, 0.1963 0.1949 0.2323, 0.1957 0.1957 0.0, 0.1957 0.1957 0.2323, 0.1949 0.1963 0.0, 0.1949 0.1963 0.2323, 0.1939 0.1967 0.0, 0.1939 0.1967 0.2323, 0.1929 0.1969 0.0, -0.1967 0.1929 0.2333, -0.1966 0.1939 0.2333, -0.1946 0.1939 0.2357, -0.1938 0.1934 0.2361, -0.1936 0.1936 0.2361, -0.1932 0.1939 0.2361, -0.1939 0.1932 0.2361, -0.1948 0.1934 0.2357, -0.1956 0.1936 0.2351, -0.1939 0.1929 0.2361, -0.1943 0.1943 0.2357, -0.1934 0.1938 0.2361, -0.1939 0.1946 0.2357, -0.1934 0.1948 0.2357, -0.1949 0.1929 0.2357, -0.1957 0.1929 0.2351, -0.1963 0.1929 0.2343, -0.1953 0.1943 0.2351, -0.1949 0.1949 0.2351, -0.1943 0.1953 0.2351, -0.1936 0.1956 0.2351, -0.1962 0.1938 0.2343, -0.1959 0.1946 0.2343, -0.1953 0.1953 0.2343, -0.1946 0.1959 0.2343, -0.1938 0.1962 0.2343, -0.1962 0.1948 0.2333, -0.1956 0.1956 0.2333, -0.1948 0.1962 0.2333, -0.1939 0.1966 0.2333, 0.1939 0.1966 0.2333, 0.1939 0.1946 0.2357, 0.1934 0.1938 0.2361, 0.1936 0.1936 0.2361, 0.1939 0.1929 0.2361, 0.1939 0.1932 0.2361, 0.1932 0.1939 0.2361, 0.1934 0.1948 0.2357, 0.1936 0.1956 0.2351, 0.1943 0.1943 0.2357, 0.1938 0.1934 0.2361, 0.1946 0.1939 0.2357, 0.1948 0.1934 0.2357, 0.1949 0.1929 0.2357, 0.1943 0.1953 0.2351, 0.1949 0.1949 0.2351, 0.1953 0.1943 0.2351, 0.1956 0.1936 0.2351, 0.1957 0.1929 0.2351, 0.1938 0.1962 0.2343, 0.1946 0.1959 0.2343, 0.1953 0.1953 0.2343, 0.1959 0.1946 0.2343, 0.1962 0.1938 0.2343, 0.1963 0.1929 0.2343, 0.1948 0.1962 0.2333, 0.1956 0.1956 0.2333, 0.1962 0.1948 0.2333, 0.1966 0.1939 0.2333, 0.1967 0.1929 0.2333, -0.1969 -0.1929 0.2323, -0.1969 -0.1929 0.0, -0.1967 -0.1939 0.0, -0.1967 -0.1939 0.2323, -0.1963 -0.1949 0.0, -0.1963 -0.1949 0.2323, -0.1957 -0.1957 0.0, -0.1957 -0.1957 0.2323, -0.1949 -0.1963 0.0, -0.1949 -0.1963 0.2323, -0.1939 -0.1967 0.0, -0.1939 -0.1967 0.2323, -0.1929 -0.1969 0.0, -0.1929 -0.1969 0.2323, -0.1929 -0.1929 0.2362, -0.1939 -0.1929 0.2361, -0.1949 -0.1929 0.2357, -0.1957 -0.1929 0.2351, -0.1963 -0.1929 0.2343, -0.1967 -0.1929 0.2333, 0.1929 -0.1929 0.2362, 0.1939 -0.1929 0.2361, 0.1949 -0.1929 0.2357, 0.1957 -0.1929 0.2351, 0.1963 -0.1929 0.2343, 0.1967 -0.1929 0.2333, 0.1969 -0.1929 0.2323, 0.1929 -0.1969 0.2323, 0.1929 -0.1969 0.0, 0.1939 -0.1967 0.0, 0.1939 -0.1967 0.2323, 0.1949 -0.1963 0.0, 0.1949 -0.1963 0.2323, 0.1957 -0.1957 0.0, 0.1957 -0.1957 0.2323, 0.1963 -0.1949 0.0, 0.1963 -0.1949 0.2323, 0.1967 -0.1939 0.0, 0.1967 -0.1939 0.2323, 0.1969 -0.1929 0.0, -0.1929 -0.1967 0.2333, -0.1939 -0.1966 0.2333, -0.1939 -0.1946 0.2357, -0.1934 -0.1938 0.2361, -0.1936 -0.1936 0.2361, -0.1939 -0.1932 0.2361, -0.1932 -0.1939 0.2361, -0.1934 -0.1948 0.2357, -0.1936 -0.1956 0.2351, -0.1929 -0.1939 0.2361, -0.1943 -0.1943 0.2357, -0.1938 -0.1934 0.2361, -0.1946 -0.1939 0.2357, -0.1948 -0.1934 0.2357, -0.1929 -0.1949 0.2357, -0.1929 -0.1957 0.2351, -0.1929 -0.1963 0.2343, -0.1943 -0.1953 0.2351, -0.1949 -0.1949 0.2351, -0.1953 -0.1943 0.2351, -0.1956 -0.1936 0.2351, -0.1938 -0.1962 0.2343, -0.1946 -0.1959 0.2343, -0.1953 -0.1953 0.2343, -0.1959 -0.1946 0.2343, -0.1962 -0.1938 0.2343, -0.1948 -0.1962 0.2333, -0.1956 -0.1956 0.2333, -0.1962 -0.1948 0.2333, -0.1966 -0.1939 0.2333, 0.1966 -0.1939 0.2333, 0.1946 -0.1939 0.2357, 0.1938 -0.1934 0.2361, 0.1936 -0.1936 0.2361, 0.1929 -0.1939 0.2361, 0.1932 -0.1939 0.2361, 0.1939 -0.1932 0.2361, 0.1948 -0.1934 0.2357, 0.1956 -0.1936 0.2351, 0.1943 -0.1943 0.2357, 0.1934 -0.1938 0.2361, 0.1939 -0.1946 0.2357, 0.1934 -0.1948 0.2357, 0.1929 -0.1949 0.2357, 0.1953 -0.1943 0.2351, 0.1949 -0.1949 0.2351, 0.1943 -0.1953 0.2351, 0.1936 -0.1956 0.2351, 0.1929 -0.1957 0.2351, 0.1962 -0.1938 0.2343, 0.1959 -0.1946 0.2343, 0.1953 -0.1953 0.2343, 0.1946 -0.1959 0.2343, 0.1938 -0.1962 0.2343, 0.1929 -0.1963 0.2343, 0.1962 -0.1948 0.2333, 0.1956 -0.1956 0.2333, 0.1948 -0.1962 0.2333, 0.1939 -0.1966 0.2333, 0.1929 -0.1967 0.2333, -0.0903 -0.1306 0.2323, -0.0908 -0.1242 0.2333, -0.091 -0.1242 0.2323, -0.0928 -0.1181 0.2333, -0.0929 -0.1182 0.2323, -0.096 -0.1126 0.2333, -0.0961 -0.1126 0.2323, -0.1003 -0.1078 0.2333, -0.1004 -0.1079 0.2323, -0.1055 -0.104 0.2333, -0.1056 -0.1041 0.2323, -0.1114 -0.1014 0.2333, -0.1114 -0.1015 0.2323, -0.1176 -0.1001 0.2333, -0.1176 -0.1002 0.2323, -0.124 -0.1001 0.2333, -0.124 -0.1002 0.2323, -0.1303 -0.1014 0.2333, -0.1303 -0.1015 0.2323, -0.1362 -0.104 0.2333, -0.1361 -0.1041 0.2323, -0.1414 -0.1078 0.2333, -0.1413 -0.1079 0.2323, -0.1456 -0.1126 0.2333, -0.1455 -0.1126 0.2323, -0.1489 -0.1181 0.2333, -0.1487 -0.1182 0.2323, -0.1508 -0.1242 0.2333, -0.1507 -0.1242 0.2323, -0.1515 -0.1306 0.2333, -0.1514 -0.1306 0.2323, -0.1508 -0.137 0.2333, -0.1507 -0.1369 0.2323, -0.1489 -0.1431 0.2333, -0.1487 -0.143 0.2323, -0.1456 -0.1486 0.2333, -0.1455 -0.1485 0.2323, -0.1414 -0.1534 0.2333, -0.1413 -0.1533 0.2323, -0.1362 -0.1571 0.2333, -0.1361 -0.157 0.2323, -0.1303 -0.1598 0.2333, -0.1303 -0.1596 0.2323, -0.124 -0.1611 0.2333, -0.124 -0.161 0.2323, -0.1176 -0.1611 0.2333, -0.1176 -0.161 0.2323, -0.1114 -0.1598 0.2333, -0.1114 -0.1596 0.2323, -0.1055 -0.1571 0.2333, -0.1056 -0.157 0.2323, -0.1003 -0.1534 0.2333, -0.1004 -0.1533 0.2323, -0.096 -0.1486 0.2333, -0.0961 -0.1485 0.2323, -0.0928 -0.1431 0.2333, -0.0929 -0.143 0.2323, -0.0908 -0.137 0.2333, -0.091 -0.1369 0.2323, -0.0902 -0.1306 0.2333, -0.0905 -0.1241 0.2343, -0.0925 -0.118 0.2343, -0.0957 -0.1123 0.2343, -0.1001 -0.1075 0.2343, -0.1053 -0.1037 0.2343, -0.1112 -0.101 0.2343, -0.1176 -0.0997 0.2343, -0.1241 -0.0997 0.2343, -0.1304 -0.101 0.2343, -0.1364 -0.1037 0.2343, -0.1416 -0.1075 0.2343, -0.146 -0.1123 0.2343, -0.1492 -0.118 0.2343, -0.1512 -0.1241 0.2343, -0.1519 -0.1306 0.2343, -0.1512 -0.137 0.2343, -0.1492 -0.1432 0.2343, -0.146 -0.1488 0.2343, -0.1416 -0.1537 0.2343, -0.1364 -0.1575 0.2343, -0.1304 -0.1601 0.2343, -0.1241 -0.1615 0.2343, -0.1176 -0.1615 0.2343, -0.1112 -0.1601 0.2343, -0.1053 -0.1575 0.2343, -0.1001 -0.1537 0.2343, -0.0957 -0.1488 0.2343, -0.0925 -0.1432 0.2343, -0.0905 -0.137 0.2343, -0.0898 -0.1306 0.2343, -0.0898 -0.124 0.2351, -0.0919 -0.1177 0.2351, -0.0952 -0.112 0.2351, -0.0996 -0.107 0.2351, -0.105 -0.1031 0.2351, -0.111 -0.1005 0.2351, -0.1175 -0.0991 0.2351, -0.1241 -0.0991 0.2351, -0.1306 -0.1005 0.2351, -0.1367 -0.1031 0.2351, -0.142 -0.107 0.2351, -0.1465 -0.112 0.2351, -0.1498 -0.1177 0.2351, -0.1518 -0.124 0.2351, -0.1525 -0.1306 0.2351, -0.1518 -0.1372 0.2351, -0.1498 -0.1435 0.2351, -0.1465 -0.1492 0.2351, -0.142 -0.1541 0.2351, -0.1367 -0.158 0.2351, -0.1306 -0.1607 0.2351, -0.1241 -0.1621 0.2351, -0.1175 -0.1621 0.2351, -0.111 -0.1607 0.2351, -0.105 -0.158 0.2351, -0.0996 -0.1541 0.2351, -0.0952 -0.1492 0.2351, -0.0919 -0.1435 0.2351, -0.0898 -0.1372 0.2351, -0.0891 -0.1306 0.2351, -0.089 -0.1238 0.2357, -0.0911 -0.1174 0.2357, -0.0945 -0.1115 0.2357, -0.0991 -0.1064 0.2357, -0.1046 -0.1024 0.2357, -0.1108 -0.0997 0.2357, -0.1174 -0.0983 0.2357, -0.1242 -0.0983 0.2357, -0.1309 -0.0997 0.2357, -0.1371 -0.1024 0.2357, -0.1426 -0.1064 0.2357, -0.1471 -0.1115 0.2357, -0.1505 -0.1174 0.2357, -0.1526 -0.1238 0.2357, -0.1533 -0.1306 0.2357, -0.1526 -0.1373 0.2357, -0.1505 -0.1438 0.2357, -0.1471 -0.1497 0.2357, -0.1426 -0.1547 0.2357, -0.1371 -0.1587 0.2357, -0.1309 -0.1615 0.2357, -0.1242 -0.1629 0.2357, -0.1174 -0.1629 0.2357, -0.1108 -0.1615 0.2357, -0.1046 -0.1587 0.2357, -0.0991 -0.1547 0.2357, -0.0945 -0.1497 0.2357, -0.0911 -0.1438 0.2357, -0.089 -0.1373 0.2357, -0.0883 -0.1306 0.2357, -0.0881 -0.1236 0.2361, -0.0903 -0.117 0.2361, -0.0938 -0.1109 0.2361, -0.0985 -0.1057 0.2361, -0.1041 -0.1016 0.2361, -0.1105 -0.0988 0.2361, -0.1173 -0.0973 0.2361, -0.1243 -0.0973 0.2361, -0.1312 -0.0988 0.2361, -0.1376 -0.1016 0.2361, -0.1432 -0.1057 0.2361, -0.1479 -0.1109 0.2361, -0.1514 -0.117 0.2361, -0.1536 -0.1236 0.2361, -0.1543 -0.1306 0.2361, -0.1536 -0.1375 0.2361, -0.1514 -0.1442 0.2361, -0.1479 -0.1502 0.2361, -0.1432 -0.1554 0.2361, -0.1376 -0.1596 0.2361, -0.1312 -0.1624 0.2361, -0.1243 -0.1639 0.2361, -0.1173 -0.1639 0.2361, -0.1105 -0.1624 0.2361, -0.1041 -0.1596 0.2361, -0.0985 -0.1554 0.2361, -0.0938 -0.1502 0.2361, -0.0903 -0.1442 0.2361, -0.0881 -0.1375 0.2361, -0.0874 -0.1306 0.2361, -0.0871 -0.1234 0.2362, -0.0893 -0.1166 0.2362, -0.0929 -0.1103 0.2362, -0.0978 -0.105 0.2362, -0.1036 -0.1007 0.2362, -0.1102 -0.0978 0.2362, -0.1172 -0.0963 0.2362, -0.1244 -0.0963 0.2362, -0.1315 -0.0978 0.2362, -0.1381 -0.1007 0.2362, -0.1439 -0.105 0.2362, -0.1487 -0.1103 0.2362, -0.1523 -0.1166 0.2362, -0.1546 -0.1234 0.2362, -0.1553 -0.1306 0.2362, -0.1546 -0.1378 0.2362, -0.1523 -0.1446 0.2362, -0.1487 -0.1508 0.2362, -0.1439 -0.1562 0.2362, -0.1381 -0.1604 0.2362, -0.1315 -0.1634 0.2362, -0.1244 -0.1649 0.2362, -0.1172 -0.1649 0.2362, -0.1102 -0.1634 0.2362, -0.1036 -0.1604 0.2362, -0.0978 -0.1562 0.2362, -0.0929 -0.1508 0.2362, -0.0893 -0.1446 0.2362, -0.0871 -0.1378 0.2362, -0.0864 -0.1306 0.2362, -0.0864 -0.1306 0.2362
            ]
        }
        coordIndex [
            0,1,2,-1,0,2,3,-1,3,2,4,-1,3,4,5,-1,5,4,6,-1,5,6,7,-1,7,6,8,-1,7,8,9,-1,9,8,10,-1,9,10,11,-1,11,10,12,-1,11,12,13,-1,14,15,16,-1,14,16,17,-1,17,16,18,-1,17,18,19,-1,19,18,20,-1,19,20,21,-1,21,20,22,-1,21,22,23,-1,23,22,24,-1,23,24,25,-1,25,24,26,-1,25,26,0,-1,27,28,29,-1,27,29,30,-1,30,29,31,-1,30,31,32,-1,32,31,33,-1,32,33,34,-1,34,33,35,-1,34,35,36,-1,36,35,37,-1,36,37,38,-1,38,37,39,-1,38,39,26,-1,13,40,41,-1,42,43,44,-1,14,17,45,-1,44,43,14,-1,46,14,43,-1,46,43,47,-1,47,43,42,-1,47,42,48,-1,49,14,46,-1,50,51,52,-1,52,51,45,-1,52,45,53,-1,53,45,17,-1,53,17,19,-1,49,46,54,-1,54,46,47,-1,54,47,55,-1,55,47,48,-1,55,48,56,-1,57,50,58,-1,58,50,52,-1,58,52,59,-1,59,52,53,-1,59,53,60,-1,60,53,19,-1,60,19,21,-1,61,57,62,-1,62,57,58,-1,62,58,63,-1,63,58,59,-1,63,59,64,-1,64,59,60,-1,64,60,65,-1,65,60,21,-1,65,21,23,-1,40,61,41,-1,41,61,62,-1,41,62,66,-1,66,62,63,-1,66,63,67,-1,67,63,64,-1,67,64,68,-1,68,64,65,-1,68,65,69,-1,69,65,23,-1,69,23,25,-1,13,41,11,-1,11,41,66,-1,11,66,9,-1,9,66,67,-1,9,67,7,-1,7,67,68,-1,7,68,5,-1,5,68,69,-1,5,69,3,-1,3,69,25,-1,3,25,0,-1,51,14,45,-1,40,56,61,-1,61,56,48,-1,61,48,57,-1,57,48,42,-1,57,42,50,-1,50,42,44,-1,50,44,51,-1,51,44,14,-1,26,24,70,-1,71,72,73,-1,15,74,75,-1,73,72,15,-1,76,15,72,-1,76,72,77,-1,77,72,71,-1,77,71,78,-1,16,15,76,-1,79,80,81,-1,81,80,75,-1,81,75,82,-1,82,75,74,-1,82,74,83,-1,16,76,18,-1,18,76,77,-1,18,77,20,-1,20,77,78,-1,20,78,22,-1,84,79,85,-1,85,79,81,-1,85,81,86,-1,86,81,82,-1,86,82,87,-1,87,82,83,-1,87,83,88,-1,89,84,90,-1,90,84,85,-1,90,85,91,-1,91,85,86,-1,91,86,92,-1,92,86,87,-1,92,87,93,-1,93,87,88,-1,93,88,94,-1,24,89,70,-1,70,89,90,-1,70,90,95,-1,95,90,91,-1,95,91,96,-1,96,91,92,-1,96,92,97,-1,97,92,93,-1,97,93,98,-1,98,93,94,-1,98,94,99,-1,26,70,38,-1,38,70,95,-1,38,95,36,-1,36,95,96,-1,36,96,34,-1,34,96,97,-1,34,97,32,-1,32,97,98,-1,32,98,30,-1,30,98,99,-1,30,99,27,-1,80,15,75,-1,24,22,89,-1,89,22,78,-1,89,78,84,-1,84,78,71,-1,84,71,79,-1,79,71,73,-1,79,73,80,-1,80,73,15,-1,100,101,102,-1,100,102,103,-1,103,102,104,-1,103,104,105,-1,105,104,106,-1,105,106,107,-1,107,106,108,-1,107,108,109,-1,109,108,110,-1,109,110,111,-1,111,110,112,-1,111,112,113,-1,114,14,49,-1,114,49,115,-1,115,49,54,-1,115,54,116,-1,116,54,55,-1,116,55,117,-1,117,55,56,-1,117,56,118,-1,118,56,40,-1,118,40,119,-1,119,40,13,-1,119,13,100,-1,15,120,121,-1,15,121,74,-1,74,121,122,-1,74,122,83,-1,83,122,123,-1,83,123,88,-1,88,123,124,-1,88,124,94,-1,94,124,125,-1,94,125,99,-1,99,125,126,-1,99,126,27,-1,127,128,129,-1,127,129,130,-1,130,129,131,-1,130,131,132,-1,132,131,133,-1,132,133,134,-1,134,133,135,-1,134,135,136,-1,136,135,137,-1,136,137,138,-1,138,137,139,-1,138,139,126,-1,113,140,141,-1,142,143,144,-1,114,115,145,-1,144,143,114,-1,146,114,143,-1,146,143,147,-1,147,143,142,-1,147,142,148,-1,149,114,146,-1,150,151,152,-1,152,151,145,-1,152,145,153,-1,153,145,115,-1,153,115,116,-1,149,146,154,-1,154,146,147,-1,154,147,155,-1,155,147,148,-1,155,148,156,-1,157,150,158,-1,158,150,152,-1,158,152,159,-1,159,152,153,-1,159,153,160,-1,160,153,116,-1,160,116,117,-1,161,157,162,-1,162,157,158,-1,162,158,163,-1,163,158,159,-1,163,159,164,-1,164,159,160,-1,164,160,165,-1,165,160,117,-1,165,117,118,-1,140,161,141,-1,141,161,162,-1,141,162,166,-1,166,162,163,-1,166,163,167,-1,167,163,164,-1,167,164,168,-1,168,164,165,-1,168,165,169,-1,169,165,118,-1,169,118,119,-1,113,141,111,-1,111,141,166,-1,111,166,109,-1,109,166,167,-1,109,167,107,-1,107,167,168,-1,107,168,105,-1,105,168,169,-1,105,169,103,-1,103,169,119,-1,103,119,100,-1,151,114,145,-1,140,156,161,-1,161,156,148,-1,161,148,157,-1,157,148,142,-1,157,142,150,-1,150,142,144,-1,150,144,151,-1,151,144,114,-1,126,125,170,-1,171,172,173,-1,120,174,175,-1,173,172,120,-1,176,120,172,-1,176,172,177,-1,177,172,171,-1,177,171,178,-1,121,120,176,-1,179,180,181,-1,181,180,175,-1,181,175,182,-1,182,175,174,-1,182,174,183,-1,121,176,122,-1,122,176,177,-1,122,177,123,-1,123,177,178,-1,123,178,124,-1,184,179,185,-1,185,179,181,-1,185,181,186,-1,186,181,182,-1,186,182,187,-1,187,182,183,-1,187,183,188,-1,189,184,190,-1,190,184,185,-1,190,185,191,-1,191,185,186,-1,191,186,192,-1,192,186,187,-1,192,187,193,-1,193,187,188,-1,193,188,194,-1,125,189,170,-1,170,189,190,-1,170,190,195,-1,195,190,191,-1,195,191,196,-1,196,191,192,-1,196,192,197,-1,197,192,193,-1,197,193,198,-1,198,193,194,-1,198,194,199,-1,126,170,138,-1,138,170,195,-1,138,195,136,-1,136,195,196,-1,136,196,134,-1,134,196,197,-1,134,197,132,-1,132,197,198,-1,132,198,130,-1,130,198,199,-1,130,199,127,-1,180,120,175,-1,125,124,189,-1,189,124,178,-1,189,178,184,-1,184,178,171,-1,184,171,179,-1,179,171,173,-1,179,173,180,-1,180,173,120,-1,120,114,149,-1,120,149,174,-1,174,149,154,-1,174,154,183,-1,183,154,155,-1,183,155,188,-1,188,155,156,-1,188,156,194,-1,194,156,140,-1,194,140,199,-1,199,140,113,-1,199,113,127,-1,200,201,202,-1,202,201,203,-1,202,203,204,-1,204,203,205,-1,204,205,206,-1,206,205,207,-1,206,207,208,-1,208,207,209,-1,208,209,210,-1,210,209,211,-1,210,211,212,-1,212,211,213,-1,212,213,214,-1,214,213,215,-1,214,215,216,-1,216,215,217,-1,216,217,218,-1,218,217,219,-1,218,219,220,-1,220,219,221,-1,220,221,222,-1,222,221,223,-1,222,223,224,-1,224,223,225,-1,224,225,226,-1,226,225,227,-1,226,227,228,-1,228,227,229,-1,228,229,230,-1,230,229,231,-1,230,231,232,-1,232,231,233,-1,232,233,234,-1,234,233,235,-1,234,235,236,-1,236,235,237,-1,236,237,238,-1,238,237,239,-1,238,239,240,-1,240,239,241,-1,240,241,242,-1,242,241,243,-1,242,243,244,-1,244,243,245,-1,244,245,246,-1,246,245,247,-1,246,247,248,-1,248,247,249,-1,248,249,250,-1,250,249,251,-1,250,251,252,-1,252,251,253,-1,252,253,254,-1,254,253,255,-1,254,255,256,-1,256,255,257,-1,256,257,258,-1,258,257,259,-1,258,259,200,-1,200,259,201,-1,259,260,201,-1,201,260,261,-1,201,261,203,-1,203,261,262,-1,203,262,205,-1,205,262,263,-1,205,263,207,-1,207,263,264,-1,207,264,209,-1,209,264,265,-1,209,265,211,-1,211,265,266,-1,211,266,213,-1,213,266,267,-1,213,267,215,-1,215,267,268,-1,215,268,217,-1,217,268,269,-1,217,269,219,-1,219,269,270,-1,219,270,221,-1,221,270,271,-1,221,271,223,-1,223,271,272,-1,223,272,225,-1,225,272,273,-1,225,273,227,-1,227,273,274,-1,227,274,229,-1,229,274,275,-1,229,275,231,-1,231,275,276,-1,231,276,233,-1,233,276,277,-1,233,277,235,-1,235,277,278,-1,235,278,237,-1,237,278,279,-1,237,279,239,-1,239,279,280,-1,239,280,241,-1,241,280,281,-1,241,281,243,-1,243,281,282,-1,243,282,245,-1,245,282,283,-1,245,283,247,-1,247,283,284,-1,247,284,249,-1,249,284,285,-1,249,285,251,-1,251,285,286,-1,251,286,253,-1,253,286,287,-1,253,287,255,-1,255,287,288,-1,255,288,257,-1,257,288,289,-1,257,289,259,-1,259,289,260,-1,289,290,260,-1,260,290,291,-1,260,291,261,-1,261,291,292,-1,261,292,262,-1,262,292,293,-1,262,293,263,-1,263,293,294,-1,263,294,264,-1,264,294,295,-1,264,295,265,-1,265,295,296,-1,265,296,266,-1,266,296,297,-1,266,297,267,-1,267,297,298,-1,267,298,268,-1,268,298,299,-1,268,299,269,-1,269,299,300,-1,269,300,270,-1,270,300,301,-1,270,301,271,-1,271,301,302,-1,271,302,272,-1,272,302,303,-1,272,303,273,-1,273,303,304,-1,273,304,274,-1,274,304,305,-1,274,305,275,-1,275,305,306,-1,275,306,276,-1,276,306,307,-1,276,307,277,-1,277,307,308,-1,277,308,278,-1,278,308,309,-1,278,309,279,-1,279,309,310,-1,279,310,280,-1,280,310,311,-1,280,311,281,-1,281,311,312,-1,281,312,282,-1,282,312,313,-1,282,313,283,-1,283,313,314,-1,283,314,284,-1,284,314,315,-1,284,315,285,-1,285,315,316,-1,285,316,286,-1,286,316,317,-1,286,317,287,-1,287,317,318,-1,287,318,288,-1,288,318,319,-1,288,319,289,-1,289,319,290,-1,319,320,290,-1,290,320,321,-1,290,321,291,-1,291,321,322,-1,291,322,292,-1,292,322,323,-1,292,323,293,-1,293,323,324,-1,293,324,294,-1,294,324,325,-1,294,325,295,-1,295,325,326,-1,295,326,296,-1,296,326,327,-1,296,327,297,-1,297,327,328,-1,297,328,298,-1,298,328,329,-1,298,329,299,-1,299,329,330,-1,299,330,300,-1,300,330,331,-1,300,331,301,-1,301,331,332,-1,301,332,302,-1,302,332,333,-1,302,333,303,-1,303,333,334,-1,303,334,304,-1,304,334,335,-1,304,335,305,-1,305,335,336,-1,305,336,306,-1,306,336,337,-1,306,337,307,-1,307,337,338,-1,307,338,308,-1,308,338,339,-1,308,339,309,-1,309,339,340,-1,309,340,310,-1,310,340,341,-1,310,341,311,-1,311,341,342,-1,311,342,312,-1,312,342,343,-1,312,343,313,-1,313,343,344,-1,313,344,314,-1,314,344,345,-1,314,345,315,-1,315,345,346,-1,315,346,316,-1,316,346,347,-1,316,347,317,-1,317,347,348,-1,317,348,318,-1,318,348,349,-1,318,349,319,-1,319,349,320,-1,349,350,320,-1,320,350,351,-1,320,351,321,-1,321,351,352,-1,321,352,322,-1,322,352,353,-1,322,353,323,-1,323,353,354,-1,323,354,324,-1,324,354,355,-1,324,355,325,-1,325,355,356,-1,325,356,326,-1,326,356,357,-1,326,357,327,-1,327,357,358,-1,327,358,328,-1,328,358,359,-1,328,359,329,-1,329,359,360,-1,329,360,330,-1,330,360,361,-1,330,361,331,-1,331,361,362,-1,331,362,332,-1,332,362,363,-1,332,363,333,-1,333,363,364,-1,333,364,334,-1,334,364,365,-1,334,365,335,-1,335,365,366,-1,335,366,336,-1,336,366,367,-1,336,367,337,-1,337,367,368,-1,337,368,338,-1,338,368,369,-1,338,369,339,-1,339,369,370,-1,339,370,340,-1,340,370,371,-1,340,371,341,-1,341,371,372,-1,341,372,342,-1,342,372,373,-1,342,373,343,-1,343,373,374,-1,343,374,344,-1,344,374,375,-1,344,375,345,-1,345,375,376,-1,345,376,346,-1,346,376,377,-1,346,377,347,-1,347,377,378,-1,347,378,348,-1,348,378,379,-1,348,379,349,-1,349,379,350,-1,379,380,350,-1,350,380,381,-1,350,381,351,-1,351,381,382,-1,351,382,352,-1,352,382,383,-1,352,383,353,-1,353,383,384,-1,353,384,354,-1,354,384,385,-1,354,385,355,-1,355,385,386,-1,355,386,356,-1,356,386,387,-1,356,387,357,-1,357,387,388,-1,357,388,358,-1,358,388,389,-1,358,389,359,-1,359,389,390,-1,359,390,360,-1,360,390,391,-1,360,391,361,-1,361,391,392,-1,361,392,362,-1,362,392,393,-1,362,393,363,-1,363,393,394,-1,363,394,364,-1,364,394,395,-1,364,395,365,-1,365,395,396,-1,365,396,366,-1,366,396,397,-1,366,397,367,-1,367,397,398,-1,367,398,368,-1,368,398,399,-1,368,399,369,-1,369,399,400,-1,369,400,370,-1,370,400,401,-1,370,401,371,-1,371,401,402,-1,371,402,372,-1,372,402,403,-1,372,403,373,-1,373,403,404,-1,373,404,374,-1,374,404,405,-1,374,405,375,-1,375,405,406,-1,375,406,376,-1,376,406,407,-1,376,407,377,-1,377,407,408,-1,377,408,378,-1,378,408,409,-1,378,409,379,-1,379,409,380,-1,
        ]
    }
}